<?xml version="1.0" encoding="utf-8"?>
<svg xmlns="http://www.w3.org/2000/svg" fill="none" version="1.1" viewBox="-114.386 -20.4482 254.058 35.2774" x="-114.386pt" y="-20.4482pt" width="254.058pt" height="35.2774pt" stroke-width="0.566929" stroke-miterlimit="10.000000">
 <g transform="matrix(1.000000,0.000000,0.000000,1.000000,0.000000,-0.000000)">
  <path d="M0.667497 -0M6.32628 -5.75841C6.4259 -6.16687 6.60523 -6.46575 7.40224 -6.49564C7.45205 -6.49564 7.57161 -6.5056 7.57161 -6.69489C7.57161 -6.70486 7.57161 -6.80448 7.44209 -6.80448C7.11333 -6.80448 6.76463 -6.7746 6.4259 -6.7746C6.08717 -6.7746 5.71856 -6.80448 5.38979 -6.80448C5.33001 -6.80448 5.21046 -6.80448 5.21046 -6.60523C5.21046 -6.49564 5.31009 -6.49564 5.38979 -6.49564C5.95766 -6.48568 6.06725 -6.27646 6.06725 -6.05729C6.06725 -6.0274 6.04732 -5.87796 6.03736 -5.84807L5.14072 -2.29141C4.80199 -0.956413 3.65629 -0.0896638 2.66002 -0.0896638C1.98257 -0.0896638 1.44458 -0.52802 1.44458 -1.38481C1.44458 -1.40473 1.44458 -1.72354 1.55417 -2.16189L2.52055 -6.03736C2.61021 -6.39601 2.63014 -6.49564 3.35741 -6.49564C3.61644 -6.49564 3.69614 -6.49564 3.69614 -6.69489C3.69614 -6.80448 3.58655 -6.80448 3.55666 -6.80448C3.27771 -6.80448 2.5604 -6.7746 2.28144 -6.7746C1.99253 -6.7746 1.28518 -6.80448 0.996264 -6.80448C0.916563 -6.80448 0.806974 -6.80448 0.806974 -6.60523C0.806974 -6.49564 0.896638 -6.49564 1.08593 -6.49564C1.10585 -6.49564 1.29514 -6.49564 1.46451 -6.47572C1.64384 -6.45579 1.7335 -6.44583 1.7335 -6.31631C1.7335 -6.25654 1.62391 -5.83811 1.56413 -5.60897L1.34496 -4.73225C1.25529 -4.34371 0.777086 -2.46077 0.737235 -2.27148C0.667497 -1.99253 0.667497 -1.84309 0.667497 -1.69365C0.667497 -0.478207 1.5741 0.219178 2.62017 0.219178C3.87547 0.219178 5.11083 -0.9066 5.4396 -2.22167ZM5.4396 -2.22167" fill="black"/>
  <path d="M8.87475 -0M11.1861 2.39103C11.1861 2.36115 11.1861 2.34122 11.0167 2.17186C9.77139 0.916563 9.45258 -0.966376 9.45258 -2.49066C9.45258 -4.22416 9.83116 -5.95766 11.0566 -7.20299C11.1861 -7.32254 11.1861 -7.34247 11.1861 -7.37235C11.1861 -7.44209 11.1462 -7.47198 11.0865 -7.47198C10.9868 -7.47198 10.0902 -6.79452 9.5024 -5.52927C8.9943 -4.43337 8.87475 -3.32752 8.87475 -2.49066C8.87475 -1.71357 8.98434 -0.508095 9.53228 0.617684C10.13 1.84309 10.9868 2.49066 11.0865 2.49066C11.1462 2.49066 11.1861 2.46077 11.1861 2.39103ZM11.1861 2.39103M12.1425 -0M16.3368 -3.18804C16.3368 -3.98506 16.287 -4.78207 15.9383 -5.5193C15.48 -6.47572 14.663 -6.63512 14.2446 -6.63512C13.6469 -6.63512 12.9196 -6.37609 12.5111 -5.44956C12.1923 -4.76214 12.1425 -3.98506 12.1425 -3.18804C12.1425 -2.44085 12.1823 -1.54421 12.5908 -0.787049C13.0192 0.0199253 13.7465 0.219178 14.2346 0.219178C14.7726 0.219178 15.5298 0.00996264 15.9681 -0.936488C16.287 -1.62391 16.3368 -2.401 16.3368 -3.18804ZM16.3368 -3.18804M14.2346 -0C13.8461 -0 13.2583 -0.249066 13.079 -1.20548C12.9694 -1.80324 12.9694 -2.7198 12.9694 -3.3076C12.9694 -3.94521 12.9694 -4.60274 13.0491 -5.14072C13.2384 -6.32628 13.9856 -6.41594 14.2346 -6.41594C14.5634 -6.41594 15.221 -6.23661 15.4102 -5.25031C15.5099 -4.6924 15.5099 -3.93524 15.5099 -3.3076C15.5099 -2.5604 15.5099 -1.88294 15.4003 -1.24533C15.2508 -0.298879 14.683 -0 14.2346 -0ZM14.2346 -0" fill="black"/>
  <path d="M17.6009 -0M18.7666 -0.00996264C18.7666 -0.667497 18.5175 -1.05604 18.129 -1.05604C17.8002 -1.05604 17.6009 -0.806974 17.6009 -0.52802C17.6009 -0.259029 17.8002 -0 18.129 -0C18.2485 -0 18.378 -0.0398506 18.4777 -0.129514C18.5075 -0.14944 18.5175 -0.159402 18.5275 -0.159402C18.5374 -0.159402 18.5474 -0.14944 18.5474 -0.00996264C18.5474 0.727273 18.1987 1.32503 17.8699 1.6538C17.7603 1.76339 17.7603 1.78331 17.7603 1.8132C17.7603 1.88294 17.8102 1.92279 17.86 1.92279C17.9696 1.92279 18.7666 1.15567 18.7666 -0.00996264ZM18.7666 -0.00996264" fill="black"/>
  <path d="M22.0586 -0M24.101 -6.37609C24.101 -6.61519 24.101 -6.63512 23.8718 -6.63512C23.2542 -5.99751 22.3774 -5.99751 22.0586 -5.99751L22.0586 -5.68867C22.2579 -5.68867 22.8457 -5.68867 23.3637 -5.9477L23.3637 -0.787049C23.3637 -0.428394 23.3339 -0.308842 22.4372 -0.308842L22.1184 -0.308842L22.1184 -0C22.4671 -0.0298879 23.3339 -0.0298879 23.7324 -0.0298879C24.1309 -0.0298879 24.9976 -0.0298879 25.3463 -0L25.3463 -0.308842L25.0275 -0.308842C24.1309 -0.308842 24.101 -0.418431 24.101 -0.787049ZM24.101 -0.787049M26.7212 -0M29.0325 -2.49066C29.0325 -3.26775 28.9229 -4.47323 28.375 -5.599C27.7772 -6.82441 26.9204 -7.47198 26.8208 -7.47198C26.761 -7.47198 26.7212 -7.43213 26.7212 -7.37235C26.7212 -7.34247 26.7212 -7.32254 26.9104 -7.14321C27.8868 -6.15691 28.4547 -4.57285 28.4547 -2.49066C28.4547 -0.787049 28.086 0.966376 26.8507 2.22167C26.7212 2.34122 26.7212 2.36115 26.7212 2.39103C26.7212 2.45081 26.761 2.49066 26.8208 2.49066C26.9204 2.49066 27.817 1.8132 28.4048 0.547945C28.9129 -0.547945 29.0325 -1.6538 29.0325 -2.49066ZM29.0325 -2.49066" fill="black"/>
 </g>
 <g transform="matrix(1.000000,0.000000,0.000000,1.000000,-113.385827,-0.000000)">
  <path d="M0.288917 -0M3.32752 -3.00872C3.3873 -3.26775 3.61644 -4.18431 4.31382 -4.18431C4.36364 -4.18431 4.60274 -4.18431 4.81196 -4.05479C4.533 -4.00498 4.33375 -3.75592 4.33375 -3.51681C4.33375 -3.35741 4.44334 -3.16812 4.71233 -3.16812C4.93151 -3.16812 5.25031 -3.34745 5.25031 -3.74595C5.25031 -4.26401 4.66252 -4.40349 4.32379 -4.40349C3.74595 -4.40349 3.39726 -3.87547 3.27771 -3.64633C3.02864 -4.30386 2.49066 -4.40349 2.20174 -4.40349C1.16563 -4.40349 0.597758 -3.11831 0.597758 -2.86924C0.597758 -2.76961 0.697385 -2.76961 0.71731 -2.76961C0.797011 -2.76961 0.826899 -2.78954 0.846824 -2.8792C1.18555 -3.93524 1.84309 -4.18431 2.18182 -4.18431C2.37111 -4.18431 2.7198 -4.09465 2.7198 -3.51681C2.7198 -3.20797 2.55044 -2.54047 2.18182 -1.1457C2.02242 -0.52802 1.67372 -0.109589 1.23537 -0.109589C1.17559 -0.109589 0.946451 -0.109589 0.737235 -0.239103C0.986301 -0.288917 1.20548 -0.498132 1.20548 -0.777086C1.20548 -1.04608 0.986301 -1.12578 0.836862 -1.12578C0.537983 -1.12578 0.288917 -0.86675 0.288917 -0.547945C0.288917 -0.0896638 0.787049 0.109589 1.2254 0.109589C1.88294 0.109589 2.24159 -0.587796 2.27148 -0.647572C2.39103 -0.278954 2.74969 0.109589 3.34745 0.109589C4.3736 0.109589 4.94147 -1.17559 4.94147 -1.42466C4.94147 -1.52428 4.85181 -1.52428 4.82192 -1.52428C4.73225 -1.52428 4.71233 -1.48443 4.6924 -1.41469C4.36364 -0.348692 3.68618 -0.109589 3.36737 -0.109589C2.97883 -0.109589 2.81943 -0.428394 2.81943 -0.767123C2.81943 -0.986301 2.8792 -1.20548 2.98879 -1.64384ZM2.98879 -1.64384" fill="black"/>
  <path d="M9.0092 -0M15.6543 -3.32752C15.6543 -3.5467 15.5945 -3.64633 15.5148 -3.64633C15.465 -3.64633 15.3853 -3.57659 15.3753 -3.3873C15.3355 -2.43088 14.6779 -1.88294 13.9806 -1.88294C13.3529 -1.88294 12.8747 -2.31133 12.3865 -2.73973C11.8784 -3.19801 11.3604 -3.65629 10.6829 -3.65629C9.59699 -3.65629 9.0092 -2.5604 9.0092 -1.6538C9.0092 -1.33499 9.13871 -1.33499 9.14867 -1.33499C9.25826 -1.33499 9.28815 -1.53425 9.28815 -1.56413C9.328 -2.66002 10.0752 -3.09838 10.6829 -3.09838C11.3106 -3.09838 11.7888 -2.66999 12.2769 -2.24159C12.785 -1.78331 13.3031 -1.32503 13.9806 -1.32503C15.0665 -1.32503 15.6543 -2.42092 15.6543 -3.32752ZM15.6543 -3.32752" fill="black"/>
  <path d="M19.5053 -0M22.6336 -3.98506L23.4904 -3.98506C23.6897 -3.98506 23.7893 -3.98506 23.7893 -4.18431C23.7893 -4.2939 23.6897 -4.2939 23.5203 -4.2939L22.6934 -4.2939L22.9026 -5.42964C22.9425 -5.63885 23.0819 -6.3462 23.1417 -6.46575C23.2314 -6.65504 23.4007 -6.80448 23.61 -6.80448C23.6498 -6.80448 23.9088 -6.80448 24.0981 -6.62516C23.6598 -6.58531 23.5601 -6.23661 23.5601 -6.08717C23.5601 -5.85803 23.7395 -5.73848 23.9288 -5.73848C24.1878 -5.73848 24.4767 -5.95766 24.4767 -6.33624C24.4767 -6.79452 24.0184 -7.02366 23.61 -7.02366C23.2712 -7.02366 22.6436 -6.84433 22.3447 -5.85803C22.2849 -5.64882 22.255 -5.54919 22.0159 -4.2939L21.3285 -4.2939C21.1392 -4.2939 21.0296 -4.2939 21.0296 -4.10461C21.0296 -3.98506 21.1193 -3.98506 21.3086 -3.98506L21.9661 -3.98506L21.2189 -0.0498132C21.0396 0.916563 20.8702 1.82316 20.3522 1.82316C20.3123 1.82316 20.0633 1.82316 19.874 1.64384C20.3322 1.61395 20.4219 1.25529 20.4219 1.10585C20.4219 0.876712 20.2426 0.757161 20.0533 0.757161C19.7943 0.757161 19.5053 0.976339 19.5053 1.35492C19.5053 1.80324 19.9437 2.04234 20.3522 2.04234C20.9001 2.04234 21.2986 1.45455 21.478 1.07597C21.7968 0.448319 22.0259 -0.757161 22.0359 -0.826899ZM22.0359 -0.826899" fill="black"/>
  <path d="M25.9136 -0M28.2249 2.39103C28.2249 2.36115 28.2249 2.34122 28.0555 2.17186C26.8102 0.916563 26.4914 -0.966376 26.4914 -2.49066C26.4914 -4.22416 26.87 -5.95766 28.0954 -7.20299C28.2249 -7.32254 28.2249 -7.34247 28.2249 -7.37235C28.2249 -7.44209 28.1851 -7.47198 28.1253 -7.47198C28.0257 -7.47198 27.129 -6.79452 26.5412 -5.52927C26.0331 -4.43337 25.9136 -3.32752 25.9136 -2.49066C25.9136 -1.71357 26.0232 -0.508095 26.5711 0.617684C27.1689 1.84309 28.0257 2.49066 28.1253 2.49066C28.1851 2.49066 28.2249 2.46077 28.2249 2.39103ZM28.2249 2.39103" fill="black"/>
  <path d="M29.0906 -0M32.1292 -3.00872C32.1889 -3.26775 32.4181 -4.18431 33.1155 -4.18431C33.1653 -4.18431 33.4044 -4.18431 33.6136 -4.05479C33.3346 -4.00498 33.1354 -3.75592 33.1354 -3.51681C33.1354 -3.35741 33.245 -3.16812 33.514 -3.16812C33.7332 -3.16812 34.052 -3.34745 34.052 -3.74595C34.052 -4.26401 33.4642 -4.40349 33.1254 -4.40349C32.5476 -4.40349 32.1989 -3.87547 32.0794 -3.64633C31.8303 -4.30386 31.2923 -4.40349 31.0034 -4.40349C29.9673 -4.40349 29.3994 -3.11831 29.3994 -2.86924C29.3994 -2.76961 29.499 -2.76961 29.519 -2.76961C29.5987 -2.76961 29.6285 -2.78954 29.6485 -2.8792C29.9872 -3.93524 30.6447 -4.18431 30.9835 -4.18431C31.1728 -4.18431 31.5214 -4.09465 31.5214 -3.51681C31.5214 -3.20797 31.3521 -2.54047 30.9835 -1.1457C30.8241 -0.52802 30.4754 -0.109589 30.037 -0.109589C29.9772 -0.109589 29.7481 -0.109589 29.5389 -0.239103C29.7879 -0.288917 30.0071 -0.498132 30.0071 -0.777086C30.0071 -1.04608 29.7879 -1.12578 29.6385 -1.12578C29.3396 -1.12578 29.0906 -0.86675 29.0906 -0.547945C29.0906 -0.0896638 29.5887 0.109589 30.0271 0.109589C30.6846 0.109589 31.0432 -0.587796 31.0731 -0.647572C31.1927 -0.278954 31.5513 0.109589 32.1491 0.109589C33.1752 0.109589 33.7431 -1.17559 33.7431 -1.42466C33.7431 -1.52428 33.6535 -1.52428 33.6236 -1.52428C33.5339 -1.52428 33.514 -1.48443 33.4941 -1.41469C33.1653 -0.348692 32.4878 -0.109589 32.169 -0.109589C31.7805 -0.109589 31.6211 -0.428394 31.6211 -0.767123C31.6211 -0.986301 31.6808 -1.20548 31.7904 -1.64384ZM31.7904 -1.64384" fill="black"/>
  <path d="M35.0634 -0M37.3748 -2.49066C37.3748 -3.26775 37.2652 -4.47323 36.7172 -5.599C36.1195 -6.82441 35.2627 -7.47198 35.1631 -7.47198C35.1033 -7.47198 35.0634 -7.43213 35.0634 -7.37235C35.0634 -7.34247 35.0634 -7.32254 35.2527 -7.14321C36.2291 -6.15691 36.7969 -4.57285 36.7969 -2.49066C36.7969 -0.787049 36.4283 0.966376 35.193 2.22167C35.0634 2.34122 35.0634 2.36115 35.0634 2.39103C35.0634 2.45081 35.1033 2.49066 35.1631 2.49066C35.2627 2.49066 36.1593 1.8132 36.7471 0.547945C37.2552 -0.547945 37.3748 -1.6538 37.3748 -2.49066ZM37.3748 -2.49066" fill="black"/>
 </g>
 <g transform="matrix(1.000000,0.000000,0.000000,1.000000,102.047244,-0.000000)">
  <path d="M0.288917 -0M4.84184 -3.79577C4.88169 -3.93524 4.88169 -3.95517 4.88169 -4.02491C4.88169 -4.20423 4.74222 -4.2939 4.59278 -4.2939C4.49315 -4.2939 4.33375 -4.23412 4.24408 -4.08468C4.22416 -4.03487 4.14446 -3.72603 4.10461 -3.5467C4.03487 -3.28767 3.96513 -3.01868 3.90535 -2.74969L3.45704 -0.956413C3.41719 -0.806974 2.98879 -0.109589 2.33126 -0.109589C1.82316 -0.109589 1.71357 -0.547945 1.71357 -0.916563C1.71357 -1.37484 1.88294 -1.99253 2.22167 -2.86924C2.38107 -3.27771 2.42092 -3.3873 2.42092 -3.58655C2.42092 -4.03487 2.10212 -4.40349 1.60399 -4.40349C0.657534 -4.40349 0.288917 -2.9589 0.288917 -2.86924C0.288917 -2.76961 0.388543 -2.76961 0.408468 -2.76961C0.508095 -2.76961 0.518057 -2.78954 0.56787 -2.94894C0.836862 -3.88543 1.23537 -4.18431 1.5741 -4.18431C1.6538 -4.18431 1.82316 -4.18431 1.82316 -3.8655C1.82316 -3.61644 1.72354 -3.35741 1.6538 -3.16812C1.25529 -2.11208 1.07597 -1.54421 1.07597 -1.07597C1.07597 -0.18929 1.70361 0.109589 2.29141 0.109589C2.67995 0.109589 3.01868 -0.0597758 3.29763 -0.33873C3.16812 0.179328 3.04857 0.667497 2.65006 1.19552C2.39103 1.53425 2.01245 1.82316 1.55417 1.82316C1.41469 1.82316 0.966376 1.79328 0.797011 1.40473C0.956413 1.40473 1.08593 1.40473 1.2254 1.28518C1.32503 1.19552 1.42466 1.066 1.42466 0.876712C1.42466 0.56787 1.15567 0.52802 1.05604 0.52802C0.826899 0.52802 0.498132 0.687422 0.498132 1.17559C0.498132 1.67372 0.936488 2.04234 1.55417 2.04234C2.58032 2.04234 3.60648 1.13574 3.88543 0.00996264ZM3.88543 0.00996264" fill="black"/>
  <path d="M8.55722 -0M15.2023 -3.32752C15.2023 -3.5467 15.1425 -3.64633 15.0628 -3.64633C15.013 -3.64633 14.9333 -3.57659 14.9233 -3.3873C14.8835 -2.43088 14.226 -1.88294 13.5286 -1.88294C12.9009 -1.88294 12.4227 -2.31133 11.9346 -2.73973C11.4265 -3.19801 10.9084 -3.65629 10.2309 -3.65629C9.14501 -3.65629 8.55722 -2.5604 8.55722 -1.6538C8.55722 -1.33499 8.68673 -1.33499 8.69669 -1.33499C8.80628 -1.33499 8.83617 -1.53425 8.83617 -1.56413C8.87602 -2.66002 9.62322 -3.09838 10.2309 -3.09838C10.8586 -3.09838 11.3368 -2.66999 11.825 -2.24159C12.3331 -1.78331 12.8511 -1.32503 13.5286 -1.32503C14.6145 -1.32503 15.2023 -2.42092 15.2023 -3.32752ZM15.2023 -3.32752" fill="black"/>
  <path d="M18.6748 -0M23.2178 -3.75592C23.2277 -3.81569 23.2476 -3.8655 23.2476 -3.93524C23.2476 -4.10461 23.1281 -4.20423 22.9587 -4.20423C22.8591 -4.20423 22.5901 -4.1345 22.5503 -3.77584C22.3709 -4.14446 22.0222 -4.40349 21.6237 -4.40349C20.488 -4.40349 19.2526 -3.00872 19.2526 -1.5741C19.2526 -0.587796 19.8603 -0 20.5777 -0C21.1654 -0 21.6337 -0.468244 21.7333 -0.577833L21.7433 -0.56787C21.5341 0.318804 21.4145 0.727273 21.4145 0.747198C21.3747 0.836862 21.0359 1.82316 19.9799 1.82316C19.7906 1.82316 19.4618 1.8132 19.1829 1.72354C19.4818 1.63387 19.5914 1.37484 19.5914 1.20548C19.5914 1.04608 19.4818 0.856787 19.2128 0.856787C18.9936 0.856787 18.6748 1.03611 18.6748 1.43462C18.6748 1.84309 19.0434 2.04234 19.9998 2.04234C21.2451 2.04234 21.9625 1.26526 22.1119 0.667497ZM22.1119 0.667497M21.9226 -1.27522C21.8628 -1.01619 21.6337 -0.767123 21.4145 -0.577833C21.2053 -0.398506 20.8965 -0.219178 20.6075 -0.219178C20.1094 -0.219178 19.96 -0.737235 19.96 -1.13574C19.96 -1.61395 20.2489 -2.78954 20.5179 -3.29763C20.7869 -3.7858 21.2153 -4.18431 21.6337 -4.18431C22.2912 -4.18431 22.4307 -3.37733 22.4307 -3.32752C22.4307 -3.27771 22.4108 -3.21793 22.4008 -3.17808ZM22.4008 -3.17808" fill="black"/>
  <path d="M24.621 -0M26.9323 2.39103C26.9323 2.36115 26.9323 2.34122 26.7629 2.17186C25.5176 0.916563 25.1988 -0.966376 25.1988 -2.49066C25.1988 -4.22416 25.5774 -5.95766 26.8028 -7.20299C26.9323 -7.32254 26.9323 -7.34247 26.9323 -7.37235C26.9323 -7.44209 26.8924 -7.47198 26.8327 -7.47198C26.733 -7.47198 25.8364 -6.79452 25.2486 -5.52927C24.7405 -4.43337 24.621 -3.32752 24.621 -2.49066C24.621 -1.71357 24.7305 -0.508095 25.2785 0.617684C25.8762 1.84309 26.733 2.49066 26.8327 2.49066C26.8924 2.49066 26.9323 2.46077 26.9323 2.39103ZM26.9323 2.39103" fill="black"/>
  <path d="M27.7979 -0M32.3509 -3.79577C32.3907 -3.93524 32.3907 -3.95517 32.3907 -4.02491C32.3907 -4.20423 32.2512 -4.2939 32.1018 -4.2939C32.0022 -4.2939 31.8428 -4.23412 31.7531 -4.08468C31.7332 -4.03487 31.6535 -3.72603 31.6136 -3.5467C31.5439 -3.28767 31.4742 -3.01868 31.4144 -2.74969L30.9661 -0.956413C30.9262 -0.806974 30.4978 -0.109589 29.8403 -0.109589C29.3322 -0.109589 29.2226 -0.547945 29.2226 -0.916563C29.2226 -1.37484 29.392 -1.99253 29.7307 -2.86924C29.8901 -3.27771 29.9299 -3.3873 29.9299 -3.58655C29.9299 -4.03487 29.6111 -4.40349 29.113 -4.40349C28.1666 -4.40349 27.7979 -2.9589 27.7979 -2.86924C27.7979 -2.76961 27.8976 -2.76961 27.9175 -2.76961C28.0171 -2.76961 28.0271 -2.78954 28.0769 -2.94894C28.3459 -3.88543 28.7444 -4.18431 29.0831 -4.18431C29.1628 -4.18431 29.3322 -4.18431 29.3322 -3.8655C29.3322 -3.61644 29.2326 -3.35741 29.1628 -3.16812C28.7643 -2.11208 28.585 -1.54421 28.585 -1.07597C28.585 -0.18929 29.2126 0.109589 29.8004 0.109589C30.189 0.109589 30.5277 -0.0597758 30.8067 -0.33873C30.6771 0.179328 30.5576 0.667497 30.1591 1.19552C29.9001 1.53425 29.5215 1.82316 29.0632 1.82316C28.9237 1.82316 28.4754 1.79328 28.306 1.40473C28.4654 1.40473 28.595 1.40473 28.7344 1.28518C28.8341 1.19552 28.9337 1.066 28.9337 0.876712C28.9337 0.56787 28.6647 0.52802 28.5651 0.52802C28.3359 0.52802 28.0072 0.687422 28.0072 1.17559C28.0072 1.67372 28.4455 2.04234 29.0632 2.04234C30.0893 2.04234 31.1155 1.13574 31.3945 0.00996264ZM31.3945 0.00996264" fill="black"/>
  <path d="M33.3188 -0M35.6302 -2.49066C35.6302 -3.26775 35.5206 -4.47323 34.9726 -5.599C34.3749 -6.82441 33.5181 -7.47198 33.4185 -7.47198C33.3587 -7.47198 33.3188 -7.43213 33.3188 -7.37235C33.3188 -7.34247 33.3188 -7.32254 33.5081 -7.14321C34.4845 -6.15691 35.0523 -4.57285 35.0523 -2.49066C35.0523 -0.787049 34.6837 0.966376 33.4483 2.22167C33.3188 2.34122 33.3188 2.36115 33.3188 2.39103C33.3188 2.45081 33.3587 2.49066 33.4185 2.49066C33.5181 2.49066 34.4147 1.8132 35.0025 0.547945C35.5106 -0.547945 35.6302 -1.6538 35.6302 -2.49066ZM35.6302 -2.49066" fill="black"/>
 </g>
 <g stroke-width="1.133858">
  <path d="M-70.8661 -0L-10.1039 -0" stroke="black"/>
  <g stroke-linecap="butt" stroke-dasharray="none">
   <path d="M-11.2126 -2.2961L-5.66929 -0L-11.2126 2.2961L-10.1039 -0Z" fill="black"/>
  </g>
 </g>
 <g stroke-width="1.133858">
  <path d="M-5.66929 -5.66929L-66.4315 -5.66929" stroke="black"/>
  <g stroke-linecap="butt" stroke-dasharray="none">
   <path d="M-65.3229 -3.37319L-70.8661 -5.66929L-65.3229 -7.96539L-66.4315 -5.66929Z" fill="black"/>
  </g>
 </g>
 <g transform="matrix(1.000000,0.000000,0.000000,1.000000,-53.858268,-11.338583)">
  <path d="M0.37858 -0M3.01868 -3.23786L3.98506 -3.23786C4.73225 -3.23786 4.81196 -3.07846 4.81196 -2.78954C4.81196 -2.7198 4.81196 -2.60025 4.74222 -2.30137C4.72229 -2.25156 4.71233 -2.21171 4.71233 -2.19178C4.71233 -2.11208 4.7721 -2.07223 4.83188 -2.07223C4.93151 -2.07223 4.93151 -2.10212 4.98132 -2.28144L5.52927 -4.44334C5.55915 -4.55293 5.55915 -4.57285 5.55915 -4.60274C5.55915 -4.62267 5.53923 -4.71233 5.4396 -4.71233C5.33998 -4.71233 5.33001 -4.66252 5.29016 -4.50311C5.08095 -3.72603 4.85181 -3.5467 4.00498 -3.5467L3.09838 -3.5467L3.73599 -6.07721C3.82565 -6.4259 3.83562 -6.46575 4.27397 -6.46575L5.58904 -6.46575C6.81445 -6.46575 7.04359 -6.13699 7.04359 -5.36986C7.04359 -5.14072 7.04359 -5.10087 7.0137 -4.83188C6.99377 -4.70237 6.99377 -4.68244 6.99377 -4.65255C6.99377 -4.60274 7.02366 -4.533 7.11333 -4.533C7.22291 -4.533 7.23288 -4.59278 7.2528 -4.78207L7.45205 -6.5056C7.48194 -6.7746 7.43213 -6.7746 7.18306 -6.7746L2.30137 -6.7746C2.10212 -6.7746 2.00249 -6.7746 2.00249 -6.57534C2.00249 -6.46575 2.09215 -6.46575 2.28144 -6.46575C2.65006 -6.46575 2.92902 -6.46575 2.92902 -6.28643C2.92902 -6.24658 2.92902 -6.22665 2.8792 -6.04732L1.56413 -0.777086C1.46451 -0.388543 1.44458 -0.308842 0.657534 -0.308842C0.488169 -0.308842 0.37858 -0.308842 0.37858 -0.119552C0.37858 -0 0.498132 -0 0.52802 -0C0.816936 -0 1.55417 -0.0298879 1.84309 -0.0298879C2.17186 -0.0298879 2.99875 -0 3.32752 -0C3.41719 -0 3.53674 -0 3.53674 -0.18929C3.53674 -0.268991 3.47696 -0.288917 3.47696 -0.298879C3.44707 -0.308842 3.42715 -0.308842 3.19801 -0.308842C2.97883 -0.308842 2.92902 -0.308842 2.67995 -0.328767C2.39103 -0.358655 2.36115 -0.398506 2.36115 -0.52802C2.36115 -0.547945 2.36115 -0.607721 2.401 -0.757161ZM2.401 -0.757161" fill="black"/>
  <path d="M8.54342 -3.61536M12.9788 -5.19145C13.0904 -5.19145 13.2577 -5.19145 13.2577 -5.35883C13.2577 -5.53317 13.0973 -5.53317 12.9788 -5.53317L8.82237 -5.53317C8.71079 -5.53317 8.54342 -5.53317 8.54342 -5.3658C8.54342 -5.19145 8.70382 -5.19145 8.82237 -5.19145ZM8.82237 -5.19145" fill="black"/>
  <path d="M14.7771 -3.61536M16.3531 -8.05073C16.3531 -8.23903 16.3392 -8.246 16.1439 -8.246C15.6976 -7.80665 15.063 -7.79967 14.7771 -7.79967L14.7771 -7.54861C14.9444 -7.54861 15.4047 -7.54861 15.7883 -7.74388L15.7883 -4.18722C15.7883 -3.95708 15.7883 -3.86642 15.0909 -3.86642L14.8259 -3.86642L14.8259 -3.61536C14.9514 -3.62234 15.8092 -3.64326 16.0672 -3.64326C16.2834 -3.64326 17.1621 -3.62234 17.3155 -3.61536L17.3155 -3.86642L17.0505 -3.86642C16.3531 -3.86642 16.3531 -3.95708 16.3531 -4.18722ZM16.3531 -4.18722" fill="black"/>
  <path d="M19.4726 -0M21.7839 2.39103C21.7839 2.36115 21.7839 2.34122 21.6145 2.17186C20.3692 0.916563 20.0504 -0.966376 20.0504 -2.49066C20.0504 -4.22416 20.429 -5.95766 21.6544 -7.20299C21.7839 -7.32254 21.7839 -7.34247 21.7839 -7.37235C21.7839 -7.44209 21.7441 -7.47198 21.6843 -7.47198C21.5847 -7.47198 20.688 -6.79452 20.1002 -5.52927C19.5921 -4.43337 19.4726 -3.32752 19.4726 -2.49066C19.4726 -1.71357 19.5822 -0.508095 20.1301 0.617684C20.7279 1.84309 21.5847 2.49066 21.6843 2.49066C21.7441 2.49066 21.7839 2.46077 21.7839 2.39103ZM21.7839 2.39103" fill="black"/>
  <path d="M22.6496 -0M25.6882 -3.00872C25.7479 -3.26775 25.9771 -4.18431 26.6745 -4.18431C26.7243 -4.18431 26.9634 -4.18431 27.1726 -4.05479C26.8937 -4.00498 26.6944 -3.75592 26.6944 -3.51681C26.6944 -3.35741 26.804 -3.16812 27.073 -3.16812C27.2922 -3.16812 27.611 -3.34745 27.611 -3.74595C27.611 -4.26401 27.0232 -4.40349 26.6844 -4.40349C26.1066 -4.40349 25.7579 -3.87547 25.6384 -3.64633C25.3893 -4.30386 24.8513 -4.40349 24.5624 -4.40349C23.5263 -4.40349 22.9584 -3.11831 22.9584 -2.86924C22.9584 -2.76961 23.058 -2.76961 23.078 -2.76961C23.1577 -2.76961 23.1876 -2.78954 23.2075 -2.8792C23.5462 -3.93524 24.2037 -4.18431 24.5425 -4.18431C24.7318 -4.18431 25.0805 -4.09465 25.0805 -3.51681C25.0805 -3.20797 24.9111 -2.54047 24.5425 -1.1457C24.3831 -0.52802 24.0344 -0.109589 23.596 -0.109589C23.5362 -0.109589 23.3071 -0.109589 23.0979 -0.239103C23.347 -0.288917 23.5661 -0.498132 23.5661 -0.777086C23.5661 -1.04608 23.347 -1.12578 23.1975 -1.12578C22.8986 -1.12578 22.6496 -0.86675 22.6496 -0.547945C22.6496 -0.0896638 23.1477 0.109589 23.5861 0.109589C24.2436 0.109589 24.6022 -0.587796 24.6321 -0.647572C24.7517 -0.278954 25.1103 0.109589 25.7081 0.109589C26.7343 0.109589 27.3021 -1.17559 27.3021 -1.42466C27.3021 -1.52428 27.2125 -1.52428 27.1826 -1.52428C27.0929 -1.52428 27.073 -1.48443 27.0531 -1.41469C26.7243 -0.348692 26.0468 -0.109589 25.728 -0.109589C25.3395 -0.109589 25.1801 -0.428394 25.1801 -0.767123C25.1801 -0.986301 25.2399 -1.20548 25.3494 -1.64384ZM25.3494 -1.64384" fill="black"/>
  <path d="M28.6224 -0M30.9338 -2.49066C30.9338 -3.26775 30.8242 -4.47323 30.2762 -5.599C29.6785 -6.82441 28.8217 -7.47198 28.7221 -7.47198C28.6623 -7.47198 28.6224 -7.43213 28.6224 -7.37235C28.6224 -7.34247 28.6224 -7.32254 28.8117 -7.14321C29.7881 -6.15691 30.3559 -4.57285 30.3559 -2.49066C30.3559 -0.787049 29.9873 0.966376 28.752 2.22167C28.6224 2.34122 28.6224 2.36115 28.6224 2.39103C28.6224 2.45081 28.6623 2.49066 28.7221 2.49066C28.8217 2.49066 29.7183 1.8132 30.3061 0.547945C30.8142 -0.547945 30.9338 -1.6538 30.9338 -2.49066ZM30.9338 -2.49066" fill="black"/>
 </g>
 <g transform="matrix(1.000000,0.000000,0.000000,1.000000,-49.606299,11.338583)">
  <path d="M0.37858 -0M3.01868 -3.23786L3.98506 -3.23786C4.73225 -3.23786 4.81196 -3.07846 4.81196 -2.78954C4.81196 -2.7198 4.81196 -2.60025 4.74222 -2.30137C4.72229 -2.25156 4.71233 -2.21171 4.71233 -2.19178C4.71233 -2.11208 4.7721 -2.07223 4.83188 -2.07223C4.93151 -2.07223 4.93151 -2.10212 4.98132 -2.28144L5.52927 -4.44334C5.55915 -4.55293 5.55915 -4.57285 5.55915 -4.60274C5.55915 -4.62267 5.53923 -4.71233 5.4396 -4.71233C5.33998 -4.71233 5.33001 -4.66252 5.29016 -4.50311C5.08095 -3.72603 4.85181 -3.5467 4.00498 -3.5467L3.09838 -3.5467L3.73599 -6.07721C3.82565 -6.4259 3.83562 -6.46575 4.27397 -6.46575L5.58904 -6.46575C6.81445 -6.46575 7.04359 -6.13699 7.04359 -5.36986C7.04359 -5.14072 7.04359 -5.10087 7.0137 -4.83188C6.99377 -4.70237 6.99377 -4.68244 6.99377 -4.65255C6.99377 -4.60274 7.02366 -4.533 7.11333 -4.533C7.22291 -4.533 7.23288 -4.59278 7.2528 -4.78207L7.45205 -6.5056C7.48194 -6.7746 7.43213 -6.7746 7.18306 -6.7746L2.30137 -6.7746C2.10212 -6.7746 2.00249 -6.7746 2.00249 -6.57534C2.00249 -6.46575 2.09215 -6.46575 2.28144 -6.46575C2.65006 -6.46575 2.92902 -6.46575 2.92902 -6.28643C2.92902 -6.24658 2.92902 -6.22665 2.8792 -6.04732L1.56413 -0.777086C1.46451 -0.388543 1.44458 -0.308842 0.657534 -0.308842C0.488169 -0.308842 0.37858 -0.308842 0.37858 -0.119552C0.37858 -0 0.498132 -0 0.52802 -0C0.816936 -0 1.55417 -0.0298879 1.84309 -0.0298879C2.17186 -0.0298879 2.99875 -0 3.32752 -0C3.41719 -0 3.53674 -0 3.53674 -0.18929C3.53674 -0.268991 3.47696 -0.288917 3.47696 -0.298879C3.44707 -0.308842 3.42715 -0.308842 3.19801 -0.308842C2.97883 -0.308842 2.92902 -0.308842 2.67995 -0.328767C2.39103 -0.358655 2.36115 -0.398506 2.36115 -0.52802C2.36115 -0.547945 2.36115 -0.607721 2.401 -0.757161ZM2.401 -0.757161" fill="black"/>
  <path d="M8.77655 -0M11.0879 2.39103C11.0879 2.36115 11.0879 2.34122 10.9185 2.17186C9.67318 0.916563 9.35438 -0.966376 9.35438 -2.49066C9.35438 -4.22416 9.73296 -5.95766 10.9584 -7.20299C11.0879 -7.32254 11.0879 -7.34247 11.0879 -7.37235C11.0879 -7.44209 11.048 -7.47198 10.9883 -7.47198C10.8886 -7.47198 9.99199 -6.79452 9.40419 -5.52927C8.8961 -4.43337 8.77655 -3.32752 8.77655 -2.49066C8.77655 -1.71357 8.88614 -0.508095 9.43408 0.617684C10.0318 1.84309 10.8886 2.49066 10.9883 2.49066C11.048 2.49066 11.0879 2.46077 11.0879 2.39103ZM11.0879 2.39103" fill="black"/>
  <path d="M11.9535 -0M14.9921 -3.00872C15.0519 -3.26775 15.2811 -4.18431 15.9784 -4.18431C16.0283 -4.18431 16.2674 -4.18431 16.4766 -4.05479C16.1976 -4.00498 15.9984 -3.75592 15.9984 -3.51681C15.9984 -3.35741 16.108 -3.16812 16.3769 -3.16812C16.5961 -3.16812 16.9149 -3.34745 16.9149 -3.74595C16.9149 -4.26401 16.3271 -4.40349 15.9884 -4.40349C15.4106 -4.40349 15.0619 -3.87547 14.9423 -3.64633C14.6933 -4.30386 14.1553 -4.40349 13.8664 -4.40349C12.8302 -4.40349 12.2624 -3.11831 12.2624 -2.86924C12.2624 -2.76961 12.362 -2.76961 12.3819 -2.76961C12.4616 -2.76961 12.4915 -2.78954 12.5114 -2.8792C12.8502 -3.93524 13.5077 -4.18431 13.8464 -4.18431C14.0357 -4.18431 14.3844 -4.09465 14.3844 -3.51681C14.3844 -3.20797 14.2151 -2.54047 13.8464 -1.1457C13.687 -0.52802 13.3383 -0.109589 12.9 -0.109589C12.8402 -0.109589 12.6111 -0.109589 12.4019 -0.239103C12.6509 -0.288917 12.8701 -0.498132 12.8701 -0.777086C12.8701 -1.04608 12.6509 -1.12578 12.5015 -1.12578C12.2026 -1.12578 11.9535 -0.86675 11.9535 -0.547945C11.9535 -0.0896638 12.4517 0.109589 12.89 0.109589C13.5476 0.109589 13.9062 -0.587796 13.9361 -0.647572C14.0557 -0.278954 14.4143 0.109589 15.0121 0.109589C16.0382 0.109589 16.6061 -1.17559 16.6061 -1.42466C16.6061 -1.52428 16.5164 -1.52428 16.4865 -1.52428C16.3969 -1.52428 16.3769 -1.48443 16.357 -1.41469C16.0283 -0.348692 15.3508 -0.109589 15.032 -0.109589C14.6434 -0.109589 14.484 -0.428394 14.484 -0.767123C14.484 -0.986301 14.5438 -1.20548 14.6534 -1.64384ZM14.6534 -1.64384" fill="black"/>
  <path d="M17.9264 -0M20.2377 -2.49066C20.2377 -3.26775 20.1281 -4.47323 19.5802 -5.599C18.9824 -6.82441 18.1257 -7.47198 18.026 -7.47198C17.9663 -7.47198 17.9264 -7.43213 17.9264 -7.37235C17.9264 -7.34247 17.9264 -7.32254 18.1157 -7.14321C19.092 -6.15691 19.6599 -4.57285 19.6599 -2.49066C19.6599 -0.787049 19.2913 0.966376 18.0559 2.22167C17.9264 2.34122 17.9264 2.36115 17.9264 2.39103C17.9264 2.45081 17.9663 2.49066 18.026 2.49066C18.1257 2.49066 19.0223 1.8132 19.6101 0.547945C20.1182 -0.547945 20.2377 -1.6538 20.2377 -2.49066ZM20.2377 -2.49066" fill="black"/>
 </g>
 <g stroke-width="1.133858">
  <path d="M34.0157 -0L94.778 -0" stroke="black"/>
  <g stroke-linecap="butt" stroke-dasharray="none">
   <path d="M93.6693 -2.2961L99.2126 -0L93.6693 2.2961L94.778 -0Z" fill="black"/>
  </g>
 </g>
 <g stroke-width="1.133858">
  <path d="M99.2126 -5.66929L38.4504 -5.66929" stroke="black"/>
  <g stroke-linecap="butt" stroke-dasharray="none">
   <path d="M39.559 -3.37319L34.0157 -5.66929L39.559 -7.96539L38.4504 -5.66929Z" fill="black"/>
  </g>
 </g>
 <g transform="matrix(1.000000,0.000000,0.000000,1.000000,56.692913,11.338583)">
  <path d="M0.498132 -0M7.57161 -6.92403C7.57161 -6.95392 7.55168 -7.02366 7.46202 -7.02366C7.43213 -7.02366 7.42217 -7.0137 7.31258 -6.90411L6.61519 -6.13699C6.52553 -6.27646 6.06725 -7.02366 4.96139 -7.02366C2.73973 -7.02366 0.498132 -4.82192 0.498132 -2.51059C0.498132 -0.926526 1.60399 0.219178 3.21793 0.219178C3.65629 0.219178 4.10461 0.129514 4.46326 -0.0199253C4.96139 -0.219178 5.15068 -0.428394 5.33001 -0.627646C5.41968 -0.37858 5.6787 -0.00996264 5.77833 -0.00996264C5.82814 -0.00996264 5.84807 -0.0398506 5.84807 -0.0498132C5.868 -0.0697385 5.96762 -0.448319 6.01743 -0.657534L6.20672 -1.42466C6.24658 -1.59402 6.29639 -1.76339 6.33624 -1.93275C6.44583 -2.38107 6.45579 -2.401 7.02366 -2.41096C7.07347 -2.41096 7.18306 -2.42092 7.18306 -2.61021C7.18306 -2.67995 7.13325 -2.7198 7.05355 -2.7198C6.82441 -2.7198 6.23661 -2.68991 6.00747 -2.68991C5.69863 -2.68991 4.92154 -2.7198 4.6127 -2.7198C4.52304 -2.7198 4.40349 -2.7198 4.40349 -2.52055C4.40349 -2.41096 4.48319 -2.41096 4.70237 -2.41096C4.71233 -2.41096 5.00125 -2.41096 5.23039 -2.39103C5.48941 -2.36115 5.53923 -2.33126 5.53923 -2.20174C5.53923 -2.11208 5.42964 -1.66376 5.33001 -1.29514C5.05106 -0.199253 3.75592 -0.0896638 3.40722 -0.0896638C2.45081 -0.0896638 1.40473 -0.657534 1.40473 -2.18182C1.40473 -2.49066 1.50436 -4.1345 2.55044 -5.42964C3.08842 -6.1071 4.05479 -6.71482 5.0411 -6.71482C6.05729 -6.71482 6.64508 -5.9477 6.64508 -4.79203C6.64508 -4.39352 6.61519 -4.38356 6.61519 -4.28394C6.61519 -4.18431 6.72478 -4.18431 6.76463 -4.18431C6.89415 -4.18431 6.89415 -4.20423 6.94396 -4.38356ZM6.94396 -4.38356" fill="black"/>
  <path d="M8.58629 -3.61536M13.0217 -5.19145C13.1332 -5.19145 13.3006 -5.19145 13.3006 -5.35883C13.3006 -5.53317 13.1402 -5.53317 13.0217 -5.53317L8.86524 -5.53317C8.75366 -5.53317 8.58629 -5.53317 8.58629 -5.3658C8.58629 -5.19145 8.74669 -5.19145 8.86524 -5.19145ZM8.86524 -5.19145" fill="black"/>
  <path d="M14.8199 -3.61536M16.396 -8.05073C16.396 -8.23903 16.3821 -8.246 16.1868 -8.246C15.7405 -7.80665 15.1059 -7.79967 14.8199 -7.79967L14.8199 -7.54861C14.9873 -7.54861 15.4476 -7.54861 15.8311 -7.74388L15.8311 -4.18722C15.8311 -3.95708 15.8311 -3.86642 15.1338 -3.86642L14.8687 -3.86642L14.8687 -3.61536C14.9943 -3.62234 15.8521 -3.64326 16.1101 -3.64326C16.3263 -3.64326 17.205 -3.62234 17.3584 -3.61536L17.3584 -3.86642L17.0934 -3.86642C16.396 -3.86642 16.396 -3.95708 16.396 -4.18722ZM16.396 -4.18722" fill="black"/>
  <path d="M19.5154 -0M21.8268 2.39103C21.8268 2.36115 21.8268 2.34122 21.6574 2.17186C20.4121 0.916563 20.0933 -0.966376 20.0933 -2.49066C20.0933 -4.22416 20.4719 -5.95766 21.6973 -7.20299C21.8268 -7.32254 21.8268 -7.34247 21.8268 -7.37235C21.8268 -7.44209 21.7869 -7.47198 21.7272 -7.47198C21.6275 -7.47198 20.7309 -6.79452 20.1431 -5.52927C19.635 -4.43337 19.5154 -3.32752 19.5154 -2.49066C19.5154 -1.71357 19.625 -0.508095 20.173 0.617684C20.7707 1.84309 21.6275 2.49066 21.7272 2.49066C21.7869 2.49066 21.8268 2.46077 21.8268 2.39103ZM21.8268 2.39103" fill="black"/>
  <path d="M22.6924 -0M27.2454 -3.79577C27.2852 -3.93524 27.2852 -3.95517 27.2852 -4.02491C27.2852 -4.20423 27.1457 -4.2939 26.9963 -4.2939C26.8967 -4.2939 26.7373 -4.23412 26.6476 -4.08468C26.6277 -4.03487 26.548 -3.72603 26.5081 -3.5467C26.4384 -3.28767 26.3687 -3.01868 26.3089 -2.74969L25.8606 -0.956413C25.8207 -0.806974 25.3923 -0.109589 24.7348 -0.109589C24.2267 -0.109589 24.1171 -0.547945 24.1171 -0.916563C24.1171 -1.37484 24.2865 -1.99253 24.6252 -2.86924C24.7846 -3.27771 24.8244 -3.3873 24.8244 -3.58655C24.8244 -4.03487 24.5056 -4.40349 24.0075 -4.40349C23.0611 -4.40349 22.6924 -2.9589 22.6924 -2.86924C22.6924 -2.76961 22.7921 -2.76961 22.812 -2.76961C22.9116 -2.76961 22.9216 -2.78954 22.9714 -2.94894C23.2404 -3.88543 23.6389 -4.18431 23.9776 -4.18431C24.0573 -4.18431 24.2267 -4.18431 24.2267 -3.8655C24.2267 -3.61644 24.1271 -3.35741 24.0573 -3.16812C23.6588 -2.11208 23.4795 -1.54421 23.4795 -1.07597C23.4795 -0.18929 24.1071 0.109589 24.6949 0.109589C25.0835 0.109589 25.4222 -0.0597758 25.7012 -0.33873C25.5716 0.179328 25.4521 0.667497 25.0536 1.19552C24.7946 1.53425 24.416 1.82316 23.9577 1.82316C23.8182 1.82316 23.3699 1.79328 23.2005 1.40473C23.3599 1.40473 23.4894 1.40473 23.6289 1.28518C23.7286 1.19552 23.8282 1.066 23.8282 0.876712C23.8282 0.56787 23.5592 0.52802 23.4596 0.52802C23.2304 0.52802 22.9017 0.687422 22.9017 1.17559C22.9017 1.67372 23.34 2.04234 23.9577 2.04234C24.9838 2.04234 26.01 1.13574 26.289 0.00996264ZM26.289 0.00996264" fill="black"/>
  <path d="M28.2133 -0M30.5247 -2.49066C30.5247 -3.26775 30.4151 -4.47323 29.8671 -5.599C29.2694 -6.82441 28.4126 -7.47198 28.313 -7.47198C28.2532 -7.47198 28.2133 -7.43213 28.2133 -7.37235C28.2133 -7.34247 28.2133 -7.32254 28.4026 -7.14321C29.379 -6.15691 29.9468 -4.57285 29.9468 -2.49066C29.9468 -0.787049 29.5782 0.966376 28.3428 2.22167C28.2133 2.34122 28.2133 2.36115 28.2133 2.39103C28.2133 2.45081 28.2532 2.49066 28.313 2.49066C28.4126 2.49066 29.3092 1.8132 29.897 0.547945C30.4051 -0.547945 30.5247 -1.6538 30.5247 -2.49066ZM30.5247 -2.49066" fill="black"/>
 </g>
 <g transform="matrix(1.000000,0.000000,0.000000,1.000000,53.858268,-11.338583)">
  <path d="M0.498132 -0M7.57161 -6.92403C7.57161 -6.95392 7.55168 -7.02366 7.46202 -7.02366C7.43213 -7.02366 7.42217 -7.0137 7.31258 -6.90411L6.61519 -6.13699C6.52553 -6.27646 6.06725 -7.02366 4.96139 -7.02366C2.73973 -7.02366 0.498132 -4.82192 0.498132 -2.51059C0.498132 -0.926526 1.60399 0.219178 3.21793 0.219178C3.65629 0.219178 4.10461 0.129514 4.46326 -0.0199253C4.96139 -0.219178 5.15068 -0.428394 5.33001 -0.627646C5.41968 -0.37858 5.6787 -0.00996264 5.77833 -0.00996264C5.82814 -0.00996264 5.84807 -0.0398506 5.84807 -0.0498132C5.868 -0.0697385 5.96762 -0.448319 6.01743 -0.657534L6.20672 -1.42466C6.24658 -1.59402 6.29639 -1.76339 6.33624 -1.93275C6.44583 -2.38107 6.45579 -2.401 7.02366 -2.41096C7.07347 -2.41096 7.18306 -2.42092 7.18306 -2.61021C7.18306 -2.67995 7.13325 -2.7198 7.05355 -2.7198C6.82441 -2.7198 6.23661 -2.68991 6.00747 -2.68991C5.69863 -2.68991 4.92154 -2.7198 4.6127 -2.7198C4.52304 -2.7198 4.40349 -2.7198 4.40349 -2.52055C4.40349 -2.41096 4.48319 -2.41096 4.70237 -2.41096C4.71233 -2.41096 5.00125 -2.41096 5.23039 -2.39103C5.48941 -2.36115 5.53923 -2.33126 5.53923 -2.20174C5.53923 -2.11208 5.42964 -1.66376 5.33001 -1.29514C5.05106 -0.199253 3.75592 -0.0896638 3.40722 -0.0896638C2.45081 -0.0896638 1.40473 -0.657534 1.40473 -2.18182C1.40473 -2.49066 1.50436 -4.1345 2.55044 -5.42964C3.08842 -6.1071 4.05479 -6.71482 5.0411 -6.71482C6.05729 -6.71482 6.64508 -5.9477 6.64508 -4.79203C6.64508 -4.39352 6.61519 -4.38356 6.61519 -4.28394C6.61519 -4.18431 6.72478 -4.18431 6.76463 -4.18431C6.89415 -4.18431 6.89415 -4.20423 6.94396 -4.38356ZM6.94396 -4.38356" fill="black"/>
  <path d="M8.81941 -0M11.1307 2.39103C11.1307 2.36115 11.1307 2.34122 10.9614 2.17186C9.71605 0.916563 9.39725 -0.966376 9.39725 -2.49066C9.39725 -4.22416 9.77583 -5.95766 11.0012 -7.20299C11.1307 -7.32254 11.1307 -7.34247 11.1307 -7.37235C11.1307 -7.44209 11.0909 -7.47198 11.0311 -7.47198C10.9315 -7.47198 10.0349 -6.79452 9.44706 -5.52927C8.93897 -4.43337 8.81941 -3.32752 8.81941 -2.49066C8.81941 -1.71357 8.929 -0.508095 9.47695 0.617684C10.0747 1.84309 10.9315 2.49066 11.0311 2.49066C11.0909 2.49066 11.1307 2.46077 11.1307 2.39103ZM11.1307 2.39103" fill="black"/>
  <path d="M11.9964 -0M16.5493 -3.79577C16.5892 -3.93524 16.5892 -3.95517 16.5892 -4.02491C16.5892 -4.20423 16.4497 -4.2939 16.3003 -4.2939C16.2006 -4.2939 16.0412 -4.23412 15.9516 -4.08468C15.9316 -4.03487 15.8519 -3.72603 15.8121 -3.5467C15.7424 -3.28767 15.6726 -3.01868 15.6128 -2.74969L15.1645 -0.956413C15.1247 -0.806974 14.6963 -0.109589 14.0387 -0.109589C13.5306 -0.109589 13.4211 -0.547945 13.4211 -0.916563C13.4211 -1.37484 13.5904 -1.99253 13.9292 -2.86924C14.0886 -3.27771 14.1284 -3.3873 14.1284 -3.58655C14.1284 -4.03487 13.8096 -4.40349 13.3115 -4.40349C12.365 -4.40349 11.9964 -2.9589 11.9964 -2.86924C11.9964 -2.76961 12.096 -2.76961 12.116 -2.76961C12.2156 -2.76961 12.2255 -2.78954 12.2754 -2.94894C12.5443 -3.88543 12.9429 -4.18431 13.2816 -4.18431C13.3613 -4.18431 13.5306 -4.18431 13.5306 -3.8655C13.5306 -3.61644 13.431 -3.35741 13.3613 -3.16812C12.9628 -2.11208 12.7835 -1.54421 12.7835 -1.07597C12.7835 -0.18929 13.4111 0.109589 13.9989 0.109589C14.3874 0.109589 14.7262 -0.0597758 15.0051 -0.33873C14.8756 0.179328 14.7561 0.667497 14.3575 1.19552C14.0985 1.53425 13.7199 1.82316 13.2617 1.82316C13.1222 1.82316 12.6739 1.79328 12.5045 1.40473C12.6639 1.40473 12.7934 1.40473 12.9329 1.28518C13.0325 1.19552 13.1321 1.066 13.1321 0.876712C13.1321 0.56787 12.8632 0.52802 12.7635 0.52802C12.5344 0.52802 12.2056 0.687422 12.2056 1.17559C12.2056 1.67372 12.644 2.04234 13.2617 2.04234C14.2878 2.04234 15.314 1.13574 15.5929 0.00996264ZM15.5929 0.00996264" fill="black"/>
  <path d="M17.5173 -0M19.8286 -2.49066C19.8286 -3.26775 19.719 -4.47323 19.1711 -5.599C18.5733 -6.82441 17.7165 -7.47198 17.6169 -7.47198C17.5571 -7.47198 17.5173 -7.43213 17.5173 -7.37235C17.5173 -7.34247 17.5173 -7.32254 17.7066 -7.14321C18.6829 -6.15691 19.2508 -4.57285 19.2508 -2.49066C19.2508 -0.787049 18.8822 0.966376 17.6468 2.22167C17.5173 2.34122 17.5173 2.36115 17.5173 2.39103C17.5173 2.45081 17.5571 2.49066 17.6169 2.49066C17.7165 2.49066 18.6132 1.8132 19.201 0.547945C19.7091 -0.547945 19.8286 -1.6538 19.8286 -2.49066ZM19.8286 -2.49066" fill="black"/>
 </g>
</svg>
