<?xml version="1.0" encoding="utf-8"?>
<svg xmlns="http://www.w3.org/2000/svg" fill="none" version="1.1" viewBox="-29.3465 -29.3465 115.41 30.3465" x="-29.3465pt" y="-29.3465pt" width="115.41pt" height="30.3465pt" stroke-width="0.566929" stroke-miterlimit="10.000000">
 <g stroke-width="1.133858">
  <path d="M0 -0L56.6929 -0L56.6929 -28.3465L0 -28.3465Z" stroke="#f00" fill="#0ff"/>
 </g>
 <g transform="matrix(1.000000,0.000000,0.000000,1.000000,8.503937,-17.007874)">
  <path d="M0.557908 -0M5.90785 -0.627646C6.03736 -0.408468 6.43587 -0.00996264 6.54545 -0.00996264C6.63512 -0.00996264 6.63512 -0.0896638 6.63512 -0.239103L6.63512 -1.9726C6.63512 -2.36115 6.67497 -2.41096 7.32254 -2.41096L7.32254 -2.7198C6.95392 -2.70984 6.40598 -2.68991 6.1071 -2.68991C5.70859 -2.68991 4.86177 -2.68991 4.50311 -2.7198L4.50311 -2.41096L4.82192 -2.41096C5.71856 -2.41096 5.74844 -2.30137 5.74844 -1.93275L5.74844 -1.29514C5.74844 -0.179328 4.48319 -0.0896638 4.20423 -0.0896638C3.55666 -0.0896638 1.58406 -0.438356 1.58406 -3.40722C1.58406 -6.38605 3.5467 -6.71482 4.14446 -6.71482C5.21046 -6.71482 6.11706 -5.81818 6.31631 -4.35367C6.33624 -4.2142 6.33624 -4.18431 6.47572 -4.18431C6.63512 -4.18431 6.63512 -4.2142 6.63512 -4.42341L6.63512 -6.78456C6.63512 -6.95392 6.63512 -7.02366 6.52553 -7.02366C6.48568 -7.02366 6.44583 -7.02366 6.36613 -6.90411L5.868 -6.16687C5.54919 -6.48568 5.01121 -7.02366 4.02491 -7.02366C2.17186 -7.02366 0.557908 -5.44956 0.557908 -3.40722C0.557908 -1.36488 2.15193 0.219178 4.04483 0.219178C4.7721 0.219178 5.56912 -0.0398506 5.90785 -0.627646ZM5.90785 -0.627646M8.08966 -0M8.92653 -2.51059C8.9863 -3.99502 9.82316 -4.24408 10.1619 -4.24408C11.188 -4.24408 11.2877 -2.89913 11.2877 -2.51059ZM11.2877 -2.51059M8.91656 -2.30137L11.6961 -2.30137C11.9153 -2.30137 11.9452 -2.30137 11.9452 -2.51059C11.9452 -3.49689 11.4072 -4.46326 10.1619 -4.46326C9.00623 -4.46326 8.08966 -3.43711 8.08966 -2.19178C8.08966 -0.856787 9.13574 0.109589 10.2814 0.109589C11.4969 0.109589 11.9452 -0.996264 11.9452 -1.18555C11.9452 -1.28518 11.8655 -1.30511 11.8157 -1.30511C11.726 -1.30511 11.7061 -1.24533 11.6862 -1.16563C11.3375 -0.139477 10.4408 -0.139477 10.3412 -0.139477C9.84309 -0.139477 9.44458 -0.438356 9.21544 -0.806974C8.91656 -1.28518 8.91656 -1.94271 8.91656 -2.30137ZM8.91656 -2.30137M12.5529 -0M13.33 -3.42715L13.33 -0.757161C13.33 -0.308842 13.2204 -0.308842 12.5529 -0.308842L12.5529 -0C12.9016 -0.00996264 13.4097 -0.0298879 13.6787 -0.0298879C13.9377 -0.0298879 14.4558 -0.00996264 14.7945 -0L14.7945 -0.308842C14.127 -0.308842 14.0174 -0.308842 14.0174 -0.757161L14.0174 -2.59029C14.0174 -3.6264 14.7248 -4.18431 15.3624 -4.18431C15.99 -4.18431 16.0996 -3.64633 16.0996 -3.07846L16.0996 -0.757161C16.0996 -0.308842 15.99 -0.308842 15.3225 -0.308842L15.3225 -0C15.6712 -0.00996264 16.1793 -0.0298879 16.4483 -0.0298879C16.7073 -0.0298879 17.2254 -0.00996264 17.5641 -0L17.5641 -0.308842C17.0461 -0.308842 16.797 -0.308842 16.787 -0.607721L16.787 -2.51059C16.787 -3.36737 16.787 -3.67621 16.4782 -4.03487C16.3387 -4.20423 16.01 -4.40349 15.4321 -4.40349C14.7049 -4.40349 14.2366 -3.97509 13.9577 -3.35741L13.9577 -4.40349L12.5529 -4.2939L12.5529 -3.98506C13.2503 -3.98506 13.33 -3.91532 13.33 -3.42715ZM13.33 -3.42715M18.0423 -0M18.8792 -2.51059C18.939 -3.99502 19.7758 -4.24408 20.1146 -4.24408C21.1407 -4.24408 21.2403 -2.89913 21.2403 -2.51059ZM21.2403 -2.51059M18.8692 -2.30137L21.6488 -2.30137C21.868 -2.30137 21.8979 -2.30137 21.8979 -2.51059C21.8979 -3.49689 21.3599 -4.46326 20.1146 -4.46326C18.9589 -4.46326 18.0423 -3.43711 18.0423 -2.19178C18.0423 -0.856787 19.0884 0.109589 20.2341 0.109589C21.4496 0.109589 21.8979 -0.996264 21.8979 -1.18555C21.8979 -1.28518 21.8182 -1.30511 21.7684 -1.30511C21.6787 -1.30511 21.6588 -1.24533 21.6389 -1.16563C21.2902 -0.139477 20.3935 -0.139477 20.2939 -0.139477C19.7958 -0.139477 19.3973 -0.438356 19.1681 -0.806974C18.8692 -1.28518 18.8692 -1.94271 18.8692 -2.30137ZM18.8692 -2.30137M22.4658 -0M23.8506 -3.3076L23.8506 -4.40349L22.4658 -4.2939L22.4658 -3.98506C23.1631 -3.98506 23.2428 -3.91532 23.2428 -3.42715L23.2428 -0.757161C23.2428 -0.308842 23.1333 -0.308842 22.4658 -0.308842L22.4658 -0C22.8543 -0.00996264 23.3225 -0.0298879 23.6015 -0.0298879C24 -0.0298879 24.4682 -0.0298879 24.8667 -0L24.8667 -0.308842L24.6575 -0.308842C23.9203 -0.308842 23.9004 -0.418431 23.9004 -0.777086L23.9004 -2.31133C23.9004 -3.29763 24.3188 -4.18431 25.076 -4.18431C25.1457 -4.18431 25.1656 -4.18431 25.1856 -4.17435C25.1557 -4.16438 24.9564 -4.04483 24.9564 -3.7858C24.9564 -3.50685 25.1656 -3.35741 25.3848 -3.35741C25.5641 -3.35741 25.8132 -3.47696 25.8132 -3.79577C25.8132 -4.11457 25.5044 -4.40349 25.076 -4.40349C24.3487 -4.40349 23.99 -3.73599 23.8506 -3.3076ZM23.8506 -3.3076M26.5006 -0M29.3998 -0.757161C29.4396 -0.358655 29.7086 0.0597758 30.1768 0.0597758C30.3861 0.0597758 30.9938 -0.0797011 30.9938 -0.886675L30.9938 -1.44458L30.7447 -1.44458L30.7447 -0.886675C30.7447 -0.308842 30.4956 -0.249066 30.3861 -0.249066C30.0573 -0.249066 30.0174 -0.697385 30.0174 -0.747198L30.0174 -2.73973C30.0174 -3.15816 30.0174 -3.5467 29.6588 -3.91532C29.2702 -4.30386 28.7721 -4.46326 28.2939 -4.46326C27.477 -4.46326 26.7895 -3.99502 26.7895 -3.33748C26.7895 -3.03861 26.9888 -2.86924 27.2478 -2.86924C27.5268 -2.86924 27.7061 -3.06849 27.7061 -3.32752C27.7061 -3.44707 27.6563 -3.77584 27.198 -3.7858C27.467 -4.1345 27.9552 -4.24408 28.274 -4.24408C28.7621 -4.24408 29.33 -3.85554 29.33 -2.96887L29.33 -2.60025C28.8219 -2.57036 28.1245 -2.54047 27.4969 -2.24159C26.7497 -1.90286 26.5006 -1.38481 26.5006 -0.946451C26.5006 -0.139477 27.467 0.109589 28.0946 0.109589C28.7522 0.109589 29.2105 -0.288917 29.3998 -0.757161ZM29.3998 -0.757161M29.33 -2.39103L29.33 -1.39477C29.33 -0.448319 28.6127 -0.109589 28.1644 -0.109589C27.6762 -0.109589 27.2677 -0.458281 27.2677 -0.956413C27.2677 -1.50436 27.6862 -2.33126 29.33 -2.39103ZM29.33 -2.39103M31.2528 -0M32.787 -3.98506L34.2117 -3.98506L34.2117 -4.2939L32.787 -4.2939L32.787 -6.12702L32.538 -6.12702C32.528 -5.31009 32.2291 -4.24408 31.2528 -4.20423L31.2528 -3.98506L32.0996 -3.98506L32.0996 -1.23537C32.0996 -0.00996264 33.0262 0.109589 33.3848 0.109589C34.0922 0.109589 34.3711 -0.597758 34.3711 -1.23537L34.3711 -1.80324L34.122 -1.80324L34.122 -1.25529C34.122 -0.518057 33.8232 -0.139477 33.4545 -0.139477C32.787 -0.139477 32.787 -1.04608 32.787 -1.21544ZM32.787 -1.21544M35.208 -0M39.6214 -2.132C39.6214 -3.40722 38.6252 -4.46326 37.4197 -4.46326C36.1743 -4.46326 35.208 -3.37733 35.208 -2.132C35.208 -0.846824 36.2441 0.109589 37.4097 0.109589C38.6152 0.109589 39.6214 -0.86675 39.6214 -2.132ZM39.6214 -2.132M37.4197 -0.139477C36.9913 -0.139477 36.5529 -0.348692 36.2839 -0.806974C36.0349 -1.24533 36.0349 -1.85305 36.0349 -2.21171C36.0349 -2.60025 36.0349 -3.13823 36.274 -3.57659C36.543 -4.03487 37.0112 -4.24408 37.4097 -4.24408C37.8481 -4.24408 38.2765 -4.02491 38.5355 -3.59651C38.7945 -3.16812 38.7945 -2.59029 38.7945 -2.21171C38.7945 -1.85305 38.7945 -1.31507 38.5753 -0.876712C38.3562 -0.428394 37.9178 -0.139477 37.4197 -0.139477ZM37.4197 -0.139477M40.1893 -0M41.5741 -3.3076L41.5741 -4.40349L40.1893 -4.2939L40.1893 -3.98506C40.8867 -3.98506 40.9664 -3.91532 40.9664 -3.42715L40.9664 -0.757161C40.9664 -0.308842 40.8568 -0.308842 40.1893 -0.308842L40.1893 -0C40.5778 -0.00996264 41.0461 -0.0298879 41.325 -0.0298879C41.7235 -0.0298879 42.1918 -0.0298879 42.5903 -0L42.5903 -0.308842L42.3811 -0.308842C41.6438 -0.308842 41.6239 -0.418431 41.6239 -0.777086L41.6239 -2.31133C41.6239 -3.29763 42.0423 -4.18431 42.7995 -4.18431C42.8692 -4.18431 42.8892 -4.18431 42.9091 -4.17435C42.8792 -4.16438 42.68 -4.04483 42.68 -3.7858C42.68 -3.50685 42.8892 -3.35741 43.1083 -3.35741C43.2877 -3.35741 43.5367 -3.47696 43.5367 -3.79577C43.5367 -4.11457 43.2279 -4.40349 42.7995 -4.40349C42.0722 -4.40349 41.7136 -3.73599 41.5741 -3.3076ZM41.5741 -3.3076" fill="black"/>
 </g>
 <g transform="matrix(1.000000,0.000000,0.000000,1.000000,22.677165,-7.086614)">
  <path d="M0.498132 -0M7.57161 -6.92403C7.57161 -6.95392 7.55168 -7.02366 7.46202 -7.02366C7.43213 -7.02366 7.42217 -7.0137 7.31258 -6.90411L6.61519 -6.13699C6.52553 -6.27646 6.06725 -7.02366 4.96139 -7.02366C2.73973 -7.02366 0.498132 -4.82192 0.498132 -2.51059C0.498132 -0.926526 1.60399 0.219178 3.21793 0.219178C3.65629 0.219178 4.10461 0.129514 4.46326 -0.0199253C4.96139 -0.219178 5.15068 -0.428394 5.33001 -0.627646C5.41968 -0.37858 5.6787 -0.00996264 5.77833 -0.00996264C5.82814 -0.00996264 5.84807 -0.0398506 5.84807 -0.0498132C5.868 -0.0697385 5.96762 -0.448319 6.01743 -0.657534L6.20672 -1.42466C6.24658 -1.59402 6.29639 -1.76339 6.33624 -1.93275C6.44583 -2.38107 6.45579 -2.401 7.02366 -2.41096C7.07347 -2.41096 7.18306 -2.42092 7.18306 -2.61021C7.18306 -2.67995 7.13325 -2.7198 7.05355 -2.7198C6.82441 -2.7198 6.23661 -2.68991 6.00747 -2.68991C5.69863 -2.68991 4.92154 -2.7198 4.6127 -2.7198C4.52304 -2.7198 4.40349 -2.7198 4.40349 -2.52055C4.40349 -2.41096 4.48319 -2.41096 4.70237 -2.41096C4.71233 -2.41096 5.00125 -2.41096 5.23039 -2.39103C5.48941 -2.36115 5.53923 -2.33126 5.53923 -2.20174C5.53923 -2.11208 5.42964 -1.66376 5.33001 -1.29514C5.05106 -0.199253 3.75592 -0.0896638 3.40722 -0.0896638C2.45081 -0.0896638 1.40473 -0.657534 1.40473 -2.18182C1.40473 -2.49066 1.50436 -4.1345 2.55044 -5.42964C3.08842 -6.1071 4.05479 -6.71482 5.0411 -6.71482C6.05729 -6.71482 6.64508 -5.9477 6.64508 -4.79203C6.64508 -4.39352 6.61519 -4.38356 6.61519 -4.28394C6.61519 -4.18431 6.72478 -4.18431 6.76463 -4.18431C6.89415 -4.18431 6.89415 -4.20423 6.94396 -4.38356ZM6.94396 -4.38356" fill="black"/>
  <path d="M8.27247 1.49438M11.3967 -1.90188C11.3967 -2.63414 11.1178 -3.41521 10.4344 -3.41521C9.38828 -3.41521 8.27247 -1.54622 8.27247 0.0507943C8.27247 0.880682 8.59326 1.56412 9.23486 1.56412C10.2949 1.56412 11.3967 -0.339741 11.3967 -1.90188ZM11.3967 -1.90188M9.06051 -1.05107C9.41618 -2.55742 10.0159 -3.21994 10.4274 -3.21994C10.8737 -3.21994 10.8737 -2.44584 10.8737 -2.31334C10.8737 -2.04136 10.8179 -1.63688 10.6715 -1.05107ZM10.6715 -1.05107M10.6087 -0.800015C10.4134 -0.0398658 10.253 0.336722 10.0438 0.678441C9.82763 1.04108 9.54868 1.36885 9.24183 1.36885C8.85827 1.36885 8.7955 0.838839 8.7955 0.462251C8.7955 0.00197733 8.92801 -0.541983 8.99775 -0.800015ZM8.99775 -0.800015" fill="black"/>
 </g>
 <g transform="matrix(1.000000,0.000000,0.000000,1.000000,-28.346457,-12.188976)">
  <path d="M0.428394 -0M1.32503 -0.826899C1.86301 -1.40473 2.15193 -1.6538 2.51059 -1.96264C2.51059 -1.9726 3.12827 -2.50062 3.48692 -2.85928C4.43337 -3.7858 4.65255 -4.26401 4.65255 -4.30386C4.65255 -4.40349 4.56289 -4.40349 4.54296 -4.40349C4.47323 -4.40349 4.44334 -4.38356 4.39352 -4.2939C4.09465 -3.81569 3.88543 -3.65629 3.64633 -3.65629C3.40722 -3.65629 3.28767 -3.80573 3.13823 -3.97509C2.94894 -4.20423 2.77958 -4.40349 2.45081 -4.40349C1.70361 -4.40349 1.24533 -3.47696 1.24533 -3.26775C1.24533 -3.21793 1.27522 -3.15816 1.36488 -3.15816C1.45455 -3.15816 1.47447 -3.20797 1.4944 -3.26775C1.68369 -3.72603 2.26152 -3.73599 2.34122 -3.73599C2.55044 -3.73599 2.73973 -3.66625 2.96887 -3.58655C3.36737 -3.43711 3.47696 -3.43711 3.73599 -3.43711C3.37733 -3.00872 2.54047 -2.29141 2.35118 -2.132L1.45455 -1.29514C0.777086 -0.627646 0.428394 -0.0597758 0.428394 0.00996264C0.428394 0.109589 0.52802 0.109589 0.547945 0.109589C0.627646 0.109589 0.647572 0.0896638 0.707347 -0.0199253C0.936488 -0.368618 1.23537 -0.637609 1.55417 -0.637609C1.78331 -0.637609 1.88294 -0.547945 2.132 -0.259029C2.30137 -0.0498132 2.4807 0.109589 2.76961 0.109589C3.75592 0.109589 4.33375 -1.15567 4.33375 -1.42466C4.33375 -1.47447 4.2939 -1.52428 4.2142 -1.52428C4.12453 -1.52428 4.10461 -1.46451 4.07472 -1.39477C3.84558 -0.747198 3.20797 -0.557908 2.8792 -0.557908C2.67995 -0.557908 2.50062 -0.617684 2.29141 -0.687422C1.95268 -0.816936 1.80324 -0.856787 1.59402 -0.856787C1.5741 -0.856787 1.41469 -0.856787 1.32503 -0.826899ZM1.32503 -0.826899" fill="black"/>
 </g>
 <g stroke-width="1.133858">
  <path d="M-19.8425 -14.1732L-4.43462 -14.1732" stroke="black"/>
  <g stroke-linecap="butt" stroke-dasharray="none">
   <path d="M-5.54328 -16.4693L0 -14.1732L-5.54328 -11.8771L-4.43462 -14.1732Z" fill="black"/>
  </g>
 </g>
 <g stroke-width="1.133858">
  <path d="M56.6929 -14.1732L72.1008 -14.1732" stroke="black"/>
  <g stroke-linecap="butt" stroke-dasharray="none">
   <path d="M70.9922 -16.4693L76.5354 -14.1732L70.9922 -11.8771L72.1008 -14.1732Z" fill="black"/>
  </g>
 </g>
 <g transform="matrix(1.000000,0.000000,0.000000,1.000000,79.370079,-12.188976)">
  <path d="M1.45995 -0M4.77751 -6.5056L4.6181 -6.65504C4.6181 -6.64508 4.23952 -6.17684 3.80117 -6.17684C3.57203 -6.17684 3.32296 -6.32628 3.1536 -6.4259C2.8846 -6.58531 2.70528 -6.65504 2.53591 -6.65504C2.15733 -6.65504 1.96804 -6.43587 1.45995 -5.87796L1.61935 -5.72852C1.61935 -5.73848 1.99793 -6.20672 2.43629 -6.20672C2.66543 -6.20672 2.91449 -6.05729 3.08386 -5.95766C3.35285 -5.79826 3.53218 -5.72852 3.70154 -5.72852C4.08012 -5.72852 4.26941 -5.9477 4.77751 -6.5056ZM4.77751 -6.5056" fill="black"/>
  <path d="M0.288917 -0M3.32752 -3.00872C3.3873 -3.26775 3.61644 -4.18431 4.31382 -4.18431C4.36364 -4.18431 4.60274 -4.18431 4.81196 -4.05479C4.533 -4.00498 4.33375 -3.75592 4.33375 -3.51681C4.33375 -3.35741 4.44334 -3.16812 4.71233 -3.16812C4.93151 -3.16812 5.25031 -3.34745 5.25031 -3.74595C5.25031 -4.26401 4.66252 -4.40349 4.32379 -4.40349C3.74595 -4.40349 3.39726 -3.87547 3.27771 -3.64633C3.02864 -4.30386 2.49066 -4.40349 2.20174 -4.40349C1.16563 -4.40349 0.597758 -3.11831 0.597758 -2.86924C0.597758 -2.76961 0.697385 -2.76961 0.71731 -2.76961C0.797011 -2.76961 0.826899 -2.78954 0.846824 -2.8792C1.18555 -3.93524 1.84309 -4.18431 2.18182 -4.18431C2.37111 -4.18431 2.7198 -4.09465 2.7198 -3.51681C2.7198 -3.20797 2.55044 -2.54047 2.18182 -1.1457C2.02242 -0.52802 1.67372 -0.109589 1.23537 -0.109589C1.17559 -0.109589 0.946451 -0.109589 0.737235 -0.239103C0.986301 -0.288917 1.20548 -0.498132 1.20548 -0.777086C1.20548 -1.04608 0.986301 -1.12578 0.836862 -1.12578C0.537983 -1.12578 0.288917 -0.86675 0.288917 -0.547945C0.288917 -0.0896638 0.787049 0.109589 1.2254 0.109589C1.88294 0.109589 2.24159 -0.587796 2.27148 -0.647572C2.39103 -0.278954 2.74969 0.109589 3.34745 0.109589C4.3736 0.109589 4.94147 -1.17559 4.94147 -1.42466C4.94147 -1.52428 4.85181 -1.52428 4.82192 -1.52428C4.73225 -1.52428 4.71233 -1.48443 4.6924 -1.41469C4.36364 -0.348692 3.68618 -0.109589 3.36737 -0.109589C2.97883 -0.109589 2.81943 -0.428394 2.81943 -0.767123C2.81943 -0.986301 2.8792 -1.20548 2.98879 -1.64384ZM2.98879 -1.64384" fill="black"/>
 </g>
</svg>
