<?xml version="1.0" encoding="utf-8"?>
<svg xmlns="http://www.w3.org/2000/svg" fill="none" version="1.1" viewBox="-29.3465 -66.1969 270.267 72.8661" x="-29.3465pt" y="-66.1969pt" width="270.267pt" height="72.8661pt" stroke-width="0.566929" stroke-miterlimit="10.000000">
 <g stroke-width="1.133858">
  <path d="M0 -0L56.6929 -0L56.6929 -28.3465L0 -28.3465Z" stroke="#f00" fill="#0ff"/>
 </g>
 <g transform="matrix(1.000000,0.000000,0.000000,1.000000,8.503937,-17.007874)">
  <path d="M0.557908 -0M5.90785 -0.627646C6.03736 -0.408468 6.43587 -0.00996264 6.54545 -0.00996264C6.63512 -0.00996264 6.63512 -0.0896638 6.63512 -0.239103L6.63512 -1.9726C6.63512 -2.36115 6.67497 -2.41096 7.32254 -2.41096L7.32254 -2.7198C6.95392 -2.70984 6.40598 -2.68991 6.1071 -2.68991C5.70859 -2.68991 4.86177 -2.68991 4.50311 -2.7198L4.50311 -2.41096L4.82192 -2.41096C5.71856 -2.41096 5.74844 -2.30137 5.74844 -1.93275L5.74844 -1.29514C5.74844 -0.179328 4.48319 -0.0896638 4.20423 -0.0896638C3.55666 -0.0896638 1.58406 -0.438356 1.58406 -3.40722C1.58406 -6.38605 3.5467 -6.71482 4.14446 -6.71482C5.21046 -6.71482 6.11706 -5.81818 6.31631 -4.35367C6.33624 -4.2142 6.33624 -4.18431 6.47572 -4.18431C6.63512 -4.18431 6.63512 -4.2142 6.63512 -4.42341L6.63512 -6.78456C6.63512 -6.95392 6.63512 -7.02366 6.52553 -7.02366C6.48568 -7.02366 6.44583 -7.02366 6.36613 -6.90411L5.868 -6.16687C5.54919 -6.48568 5.01121 -7.02366 4.02491 -7.02366C2.17186 -7.02366 0.557908 -5.44956 0.557908 -3.40722C0.557908 -1.36488 2.15193 0.219178 4.04483 0.219178C4.7721 0.219178 5.56912 -0.0398506 5.90785 -0.627646ZM5.90785 -0.627646M8.08966 -0M8.92653 -2.51059C8.9863 -3.99502 9.82316 -4.24408 10.1619 -4.24408C11.188 -4.24408 11.2877 -2.89913 11.2877 -2.51059ZM11.2877 -2.51059M8.91656 -2.30137L11.6961 -2.30137C11.9153 -2.30137 11.9452 -2.30137 11.9452 -2.51059C11.9452 -3.49689 11.4072 -4.46326 10.1619 -4.46326C9.00623 -4.46326 8.08966 -3.43711 8.08966 -2.19178C8.08966 -0.856787 9.13574 0.109589 10.2814 0.109589C11.4969 0.109589 11.9452 -0.996264 11.9452 -1.18555C11.9452 -1.28518 11.8655 -1.30511 11.8157 -1.30511C11.726 -1.30511 11.7061 -1.24533 11.6862 -1.16563C11.3375 -0.139477 10.4408 -0.139477 10.3412 -0.139477C9.84309 -0.139477 9.44458 -0.438356 9.21544 -0.806974C8.91656 -1.28518 8.91656 -1.94271 8.91656 -2.30137ZM8.91656 -2.30137M12.5529 -0M13.33 -3.42715L13.33 -0.757161C13.33 -0.308842 13.2204 -0.308842 12.5529 -0.308842L12.5529 -0C12.9016 -0.00996264 13.4097 -0.0298879 13.6787 -0.0298879C13.9377 -0.0298879 14.4558 -0.00996264 14.7945 -0L14.7945 -0.308842C14.127 -0.308842 14.0174 -0.308842 14.0174 -0.757161L14.0174 -2.59029C14.0174 -3.6264 14.7248 -4.18431 15.3624 -4.18431C15.99 -4.18431 16.0996 -3.64633 16.0996 -3.07846L16.0996 -0.757161C16.0996 -0.308842 15.99 -0.308842 15.3225 -0.308842L15.3225 -0C15.6712 -0.00996264 16.1793 -0.0298879 16.4483 -0.0298879C16.7073 -0.0298879 17.2254 -0.00996264 17.5641 -0L17.5641 -0.308842C17.0461 -0.308842 16.797 -0.308842 16.787 -0.607721L16.787 -2.51059C16.787 -3.36737 16.787 -3.67621 16.4782 -4.03487C16.3387 -4.20423 16.01 -4.40349 15.4321 -4.40349C14.7049 -4.40349 14.2366 -3.97509 13.9577 -3.35741L13.9577 -4.40349L12.5529 -4.2939L12.5529 -3.98506C13.2503 -3.98506 13.33 -3.91532 13.33 -3.42715ZM13.33 -3.42715M18.0423 -0M18.8792 -2.51059C18.939 -3.99502 19.7758 -4.24408 20.1146 -4.24408C21.1407 -4.24408 21.2403 -2.89913 21.2403 -2.51059ZM21.2403 -2.51059M18.8692 -2.30137L21.6488 -2.30137C21.868 -2.30137 21.8979 -2.30137 21.8979 -2.51059C21.8979 -3.49689 21.3599 -4.46326 20.1146 -4.46326C18.9589 -4.46326 18.0423 -3.43711 18.0423 -2.19178C18.0423 -0.856787 19.0884 0.109589 20.2341 0.109589C21.4496 0.109589 21.8979 -0.996264 21.8979 -1.18555C21.8979 -1.28518 21.8182 -1.30511 21.7684 -1.30511C21.6787 -1.30511 21.6588 -1.24533 21.6389 -1.16563C21.2902 -0.139477 20.3935 -0.139477 20.2939 -0.139477C19.7958 -0.139477 19.3973 -0.438356 19.1681 -0.806974C18.8692 -1.28518 18.8692 -1.94271 18.8692 -2.30137ZM18.8692 -2.30137M22.4658 -0M23.8506 -3.3076L23.8506 -4.40349L22.4658 -4.2939L22.4658 -3.98506C23.1631 -3.98506 23.2428 -3.91532 23.2428 -3.42715L23.2428 -0.757161C23.2428 -0.308842 23.1333 -0.308842 22.4658 -0.308842L22.4658 -0C22.8543 -0.00996264 23.3225 -0.0298879 23.6015 -0.0298879C24 -0.0298879 24.4682 -0.0298879 24.8667 -0L24.8667 -0.308842L24.6575 -0.308842C23.9203 -0.308842 23.9004 -0.418431 23.9004 -0.777086L23.9004 -2.31133C23.9004 -3.29763 24.3188 -4.18431 25.076 -4.18431C25.1457 -4.18431 25.1656 -4.18431 25.1856 -4.17435C25.1557 -4.16438 24.9564 -4.04483 24.9564 -3.7858C24.9564 -3.50685 25.1656 -3.35741 25.3848 -3.35741C25.5641 -3.35741 25.8132 -3.47696 25.8132 -3.79577C25.8132 -4.11457 25.5044 -4.40349 25.076 -4.40349C24.3487 -4.40349 23.99 -3.73599 23.8506 -3.3076ZM23.8506 -3.3076M26.5006 -0M29.3998 -0.757161C29.4396 -0.358655 29.7086 0.0597758 30.1768 0.0597758C30.3861 0.0597758 30.9938 -0.0797011 30.9938 -0.886675L30.9938 -1.44458L30.7447 -1.44458L30.7447 -0.886675C30.7447 -0.308842 30.4956 -0.249066 30.3861 -0.249066C30.0573 -0.249066 30.0174 -0.697385 30.0174 -0.747198L30.0174 -2.73973C30.0174 -3.15816 30.0174 -3.5467 29.6588 -3.91532C29.2702 -4.30386 28.7721 -4.46326 28.2939 -4.46326C27.477 -4.46326 26.7895 -3.99502 26.7895 -3.33748C26.7895 -3.03861 26.9888 -2.86924 27.2478 -2.86924C27.5268 -2.86924 27.7061 -3.06849 27.7061 -3.32752C27.7061 -3.44707 27.6563 -3.77584 27.198 -3.7858C27.467 -4.1345 27.9552 -4.24408 28.274 -4.24408C28.7621 -4.24408 29.33 -3.85554 29.33 -2.96887L29.33 -2.60025C28.8219 -2.57036 28.1245 -2.54047 27.4969 -2.24159C26.7497 -1.90286 26.5006 -1.38481 26.5006 -0.946451C26.5006 -0.139477 27.467 0.109589 28.0946 0.109589C28.7522 0.109589 29.2105 -0.288917 29.3998 -0.757161ZM29.3998 -0.757161M29.33 -2.39103L29.33 -1.39477C29.33 -0.448319 28.6127 -0.109589 28.1644 -0.109589C27.6762 -0.109589 27.2677 -0.458281 27.2677 -0.956413C27.2677 -1.50436 27.6862 -2.33126 29.33 -2.39103ZM29.33 -2.39103M31.2528 -0M32.787 -3.98506L34.2117 -3.98506L34.2117 -4.2939L32.787 -4.2939L32.787 -6.12702L32.538 -6.12702C32.528 -5.31009 32.2291 -4.24408 31.2528 -4.20423L31.2528 -3.98506L32.0996 -3.98506L32.0996 -1.23537C32.0996 -0.00996264 33.0262 0.109589 33.3848 0.109589C34.0922 0.109589 34.3711 -0.597758 34.3711 -1.23537L34.3711 -1.80324L34.122 -1.80324L34.122 -1.25529C34.122 -0.518057 33.8232 -0.139477 33.4545 -0.139477C32.787 -0.139477 32.787 -1.04608 32.787 -1.21544ZM32.787 -1.21544M35.208 -0M39.6214 -2.132C39.6214 -3.40722 38.6252 -4.46326 37.4197 -4.46326C36.1743 -4.46326 35.208 -3.37733 35.208 -2.132C35.208 -0.846824 36.2441 0.109589 37.4097 0.109589C38.6152 0.109589 39.6214 -0.86675 39.6214 -2.132ZM39.6214 -2.132M37.4197 -0.139477C36.9913 -0.139477 36.5529 -0.348692 36.2839 -0.806974C36.0349 -1.24533 36.0349 -1.85305 36.0349 -2.21171C36.0349 -2.60025 36.0349 -3.13823 36.274 -3.57659C36.543 -4.03487 37.0112 -4.24408 37.4097 -4.24408C37.8481 -4.24408 38.2765 -4.02491 38.5355 -3.59651C38.7945 -3.16812 38.7945 -2.59029 38.7945 -2.21171C38.7945 -1.85305 38.7945 -1.31507 38.5753 -0.876712C38.3562 -0.428394 37.9178 -0.139477 37.4197 -0.139477ZM37.4197 -0.139477M40.1893 -0M41.5741 -3.3076L41.5741 -4.40349L40.1893 -4.2939L40.1893 -3.98506C40.8867 -3.98506 40.9664 -3.91532 40.9664 -3.42715L40.9664 -0.757161C40.9664 -0.308842 40.8568 -0.308842 40.1893 -0.308842L40.1893 -0C40.5778 -0.00996264 41.0461 -0.0298879 41.325 -0.0298879C41.7235 -0.0298879 42.1918 -0.0298879 42.5903 -0L42.5903 -0.308842L42.3811 -0.308842C41.6438 -0.308842 41.6239 -0.418431 41.6239 -0.777086L41.6239 -2.31133C41.6239 -3.29763 42.0423 -4.18431 42.7995 -4.18431C42.8692 -4.18431 42.8892 -4.18431 42.9091 -4.17435C42.8792 -4.16438 42.68 -4.04483 42.68 -3.7858C42.68 -3.50685 42.8892 -3.35741 43.1083 -3.35741C43.2877 -3.35741 43.5367 -3.47696 43.5367 -3.79577C43.5367 -4.11457 43.2279 -4.40349 42.7995 -4.40349C42.0722 -4.40349 41.7136 -3.73599 41.5741 -3.3076ZM41.5741 -3.3076" fill="black"/>
 </g>
 <g transform="matrix(1.000000,0.000000,0.000000,1.000000,22.677165,-7.086614)">
  <path d="M0.498132 -0M7.57161 -6.92403C7.57161 -6.95392 7.55168 -7.02366 7.46202 -7.02366C7.43213 -7.02366 7.42217 -7.0137 7.31258 -6.90411L6.61519 -6.13699C6.52553 -6.27646 6.06725 -7.02366 4.96139 -7.02366C2.73973 -7.02366 0.498132 -4.82192 0.498132 -2.51059C0.498132 -0.926526 1.60399 0.219178 3.21793 0.219178C3.65629 0.219178 4.10461 0.129514 4.46326 -0.0199253C4.96139 -0.219178 5.15068 -0.428394 5.33001 -0.627646C5.41968 -0.37858 5.6787 -0.00996264 5.77833 -0.00996264C5.82814 -0.00996264 5.84807 -0.0398506 5.84807 -0.0498132C5.868 -0.0697385 5.96762 -0.448319 6.01743 -0.657534L6.20672 -1.42466C6.24658 -1.59402 6.29639 -1.76339 6.33624 -1.93275C6.44583 -2.38107 6.45579 -2.401 7.02366 -2.41096C7.07347 -2.41096 7.18306 -2.42092 7.18306 -2.61021C7.18306 -2.67995 7.13325 -2.7198 7.05355 -2.7198C6.82441 -2.7198 6.23661 -2.68991 6.00747 -2.68991C5.69863 -2.68991 4.92154 -2.7198 4.6127 -2.7198C4.52304 -2.7198 4.40349 -2.7198 4.40349 -2.52055C4.40349 -2.41096 4.48319 -2.41096 4.70237 -2.41096C4.71233 -2.41096 5.00125 -2.41096 5.23039 -2.39103C5.48941 -2.36115 5.53923 -2.33126 5.53923 -2.20174C5.53923 -2.11208 5.42964 -1.66376 5.33001 -1.29514C5.05106 -0.199253 3.75592 -0.0896638 3.40722 -0.0896638C2.45081 -0.0896638 1.40473 -0.657534 1.40473 -2.18182C1.40473 -2.49066 1.50436 -4.1345 2.55044 -5.42964C3.08842 -6.1071 4.05479 -6.71482 5.0411 -6.71482C6.05729 -6.71482 6.64508 -5.9477 6.64508 -4.79203C6.64508 -4.39352 6.61519 -4.38356 6.61519 -4.28394C6.61519 -4.18431 6.72478 -4.18431 6.76463 -4.18431C6.89415 -4.18431 6.89415 -4.20423 6.94396 -4.38356ZM6.94396 -4.38356" fill="black"/>
  <path d="M8.27247 1.49438M11.3967 -1.90188C11.3967 -2.63414 11.1178 -3.41521 10.4344 -3.41521C9.38828 -3.41521 8.27247 -1.54622 8.27247 0.0507943C8.27247 0.880682 8.59326 1.56412 9.23486 1.56412C10.2949 1.56412 11.3967 -0.339741 11.3967 -1.90188ZM11.3967 -1.90188M9.06051 -1.05107C9.41618 -2.55742 10.0159 -3.21994 10.4274 -3.21994C10.8737 -3.21994 10.8737 -2.44584 10.8737 -2.31334C10.8737 -2.04136 10.8179 -1.63688 10.6715 -1.05107ZM10.6715 -1.05107M10.6087 -0.800015C10.4134 -0.0398658 10.253 0.336722 10.0438 0.678441C9.82763 1.04108 9.54868 1.36885 9.24183 1.36885C8.85827 1.36885 8.7955 0.838839 8.7955 0.462251C8.7955 0.00197733 8.92801 -0.541983 8.99775 -0.800015ZM8.99775 -0.800015" fill="black"/>
 </g>
 <g stroke-width="1.133858">
  <path d="M0 -31.1811L56.6929 -31.1811L56.6929 -59.5276L0 -59.5276Z" stroke="#f00" fill="#7fff00"/>
 </g>
 <g transform="matrix(1.000000,0.000000,0.000000,1.000000,8.503937,-48.188976)">
  <path d="M0.328767 -0M1.35492 -0.777086C1.35492 -0.418431 1.33499 -0.308842 0.56787 -0.308842L0.328767 -0.308842L0.328767 -0L6.07721 -0L6.49564 -2.57036L6.24658 -2.57036C5.99751 -1.03611 5.76837 -0.308842 4.05479 -0.308842L2.72976 -0.308842C2.26152 -0.308842 2.24159 -0.37858 2.24159 -0.707347L2.24159 -3.36737L3.13823 -3.36737C4.10461 -3.36737 4.2142 -3.04857 4.2142 -2.20174L4.46326 -2.20174L4.46326 -4.84184L4.2142 -4.84184C4.2142 -3.98506 4.10461 -3.67621 3.13823 -3.67621L2.24159 -3.67621L2.24159 -6.06725C2.24159 -6.39601 2.26152 -6.46575 2.72976 -6.46575L4.01494 -6.46575C5.53923 -6.46575 5.80822 -5.91781 5.96762 -4.533L6.21669 -4.533L5.93773 -6.7746L0.328767 -6.7746L0.328767 -6.46575L0.56787 -6.46575C1.33499 -6.46575 1.35492 -6.35616 1.35492 -5.99751ZM1.35492 -5.99751M7.0934 -0M7.87049 -3.42715L7.87049 -0.757161C7.87049 -0.308842 7.7609 -0.308842 7.0934 -0.308842L7.0934 -0C7.44209 -0.00996264 7.95019 -0.0298879 8.21918 -0.0298879C8.47821 -0.0298879 8.99626 -0.00996264 9.33499 -0L9.33499 -0.308842C8.6675 -0.308842 8.55791 -0.308842 8.55791 -0.757161L8.55791 -2.59029C8.55791 -3.6264 9.26526 -4.18431 9.90286 -4.18431C10.5305 -4.18431 10.6401 -3.64633 10.6401 -3.07846L10.6401 -0.757161C10.6401 -0.308842 10.5305 -0.308842 9.86301 -0.308842L9.86301 -0C10.2117 -0.00996264 10.7198 -0.0298879 10.9888 -0.0298879C11.2478 -0.0298879 11.7659 -0.00996264 12.1046 -0L12.1046 -0.308842C11.5866 -0.308842 11.3375 -0.308842 11.3275 -0.607721L11.3275 -2.51059C11.3275 -3.36737 11.3275 -3.67621 11.0187 -4.03487C10.8792 -4.20423 10.5504 -4.40349 9.9726 -4.40349C9.24533 -4.40349 8.77709 -3.97509 8.49813 -3.35741L8.49813 -4.40349L7.0934 -4.2939L7.0934 -3.98506C7.79078 -3.98506 7.87049 -3.91532 7.87049 -3.42715ZM7.87049 -3.42715M12.6426 -0M13.4695 -2.17186C13.4695 -3.79577 14.2864 -4.2142 14.8144 -4.2142C14.9041 -4.2142 15.5318 -4.20423 15.8804 -3.84558C15.472 -3.81569 15.4122 -3.51681 15.4122 -3.3873C15.4122 -3.12827 15.5915 -2.92902 15.8705 -2.92902C16.1295 -2.92902 16.3288 -3.09838 16.3288 -3.39726C16.3288 -4.07472 15.5716 -4.46326 14.8045 -4.46326C13.5592 -4.46326 12.6426 -3.3873 12.6426 -2.15193C12.6426 -0.876712 13.6289 0.109589 14.7846 0.109589C16.1196 0.109589 16.4384 -1.08593 16.4384 -1.18555C16.4384 -1.28518 16.3387 -1.28518 16.3088 -1.28518C16.2192 -1.28518 16.1993 -1.24533 16.1793 -1.18555C15.8904 -0.259029 15.2428 -0.139477 14.8742 -0.139477C14.3462 -0.139477 13.4695 -0.56787 13.4695 -2.17186ZM13.4695 -2.17186M17.0062 -0M21.4197 -2.132C21.4197 -3.40722 20.4234 -4.46326 19.2179 -4.46326C17.9726 -4.46326 17.0062 -3.37733 17.0062 -2.132C17.0062 -0.846824 18.0423 0.109589 19.208 0.109589C20.4134 0.109589 21.4197 -0.86675 21.4197 -2.132ZM21.4197 -2.132M19.2179 -0.139477C18.7895 -0.139477 18.3512 -0.348692 18.0822 -0.806974C17.8331 -1.24533 17.8331 -1.85305 17.8331 -2.21171C17.8331 -2.60025 17.8331 -3.13823 18.0722 -3.57659C18.3412 -4.03487 18.8095 -4.24408 19.208 -4.24408C19.6463 -4.24408 20.0747 -4.02491 20.3337 -3.59651C20.5928 -3.16812 20.5928 -2.59029 20.5928 -2.21171C20.5928 -1.85305 20.5928 -1.31507 20.3736 -0.876712C20.1544 -0.428394 19.7161 -0.139477 19.2179 -0.139477ZM19.2179 -0.139477" fill="black"/>
  <path d="M22.3396 -0M25.7867 -0.547945L25.7867 0.109589L27.2512 -0L27.2512 -0.308842C26.5538 -0.308842 26.4741 -0.37858 26.4741 -0.86675L26.4741 -6.91407L25.0395 -6.80448L25.0395 -6.49564C25.7369 -6.49564 25.8166 -6.4259 25.8166 -5.93773L25.8166 -3.7858C25.5277 -4.14446 25.0993 -4.40349 24.5613 -4.40349C23.3857 -4.40349 22.3396 -3.42715 22.3396 -2.14197C22.3396 -0.876712 23.316 0.109589 24.4517 0.109589C25.0893 0.109589 25.5376 -0.229141 25.7867 -0.547945ZM25.7867 -0.547945M25.7867 -3.21793L25.7867 -1.17559C25.7867 -0.996264 25.7867 -0.976339 25.6771 -0.806974C25.3782 -0.328767 24.9299 -0.109589 24.5015 -0.109589C24.0532 -0.109589 23.6945 -0.368618 23.4554 -0.747198C23.1964 -1.15567 23.1665 -1.72354 23.1665 -2.132C23.1665 -2.50062 23.1864 -3.09838 23.4754 -3.5467C23.6846 -3.85554 24.0632 -4.18431 24.6011 -4.18431C24.9498 -4.18431 25.3683 -4.03487 25.6771 -3.58655C25.7867 -3.41719 25.7867 -3.39726 25.7867 -3.21793ZM25.7867 -3.21793M27.8091 -0M28.646 -2.51059C28.7057 -3.99502 29.5426 -4.24408 29.8813 -4.24408C30.9075 -4.24408 31.0071 -2.89913 31.0071 -2.51059ZM31.0071 -2.51059M28.636 -2.30137L31.4156 -2.30137C31.6348 -2.30137 31.6646 -2.30137 31.6646 -2.51059C31.6646 -3.49689 31.1267 -4.46326 29.8813 -4.46326C28.7257 -4.46326 27.8091 -3.43711 27.8091 -2.19178C27.8091 -0.856787 28.8552 0.109589 30.0009 0.109589C31.2163 0.109589 31.6646 -0.996264 31.6646 -1.18555C31.6646 -1.28518 31.5849 -1.30511 31.5351 -1.30511C31.4455 -1.30511 31.4255 -1.24533 31.4056 -1.16563C31.0569 -0.139477 30.1603 -0.139477 30.0607 -0.139477C29.5625 -0.139477 29.164 -0.438356 28.9349 -0.806974C28.636 -1.28518 28.636 -1.94271 28.636 -2.30137ZM28.636 -2.30137M32.2325 -0M33.6173 -3.3076L33.6173 -4.40349L32.2325 -4.2939L32.2325 -3.98506C32.9299 -3.98506 33.0096 -3.91532 33.0096 -3.42715L33.0096 -0.757161C33.0096 -0.308842 32.9 -0.308842 32.2325 -0.308842L32.2325 -0C32.6211 -0.00996264 33.0893 -0.0298879 33.3683 -0.0298879C33.7668 -0.0298879 34.235 -0.0298879 34.6335 -0L34.6335 -0.308842L34.4243 -0.308842C33.6871 -0.308842 33.6671 -0.418431 33.6671 -0.777086L33.6671 -2.31133C33.6671 -3.29763 34.0856 -4.18431 34.8427 -4.18431C34.9125 -4.18431 34.9324 -4.18431 34.9523 -4.17435C34.9224 -4.16438 34.7232 -4.04483 34.7232 -3.7858C34.7232 -3.50685 34.9324 -3.35741 35.1516 -3.35741C35.3309 -3.35741 35.58 -3.47696 35.58 -3.79577C35.58 -4.11457 35.2711 -4.40349 34.8427 -4.40349C34.1155 -4.40349 33.7568 -3.73599 33.6173 -3.3076ZM33.6173 -3.3076" fill="black"/>
 </g>
 <g transform="matrix(1.000000,0.000000,0.000000,1.000000,22.677165,-38.267717)">
  <path d="M0.37858 -0M7.05355 -2.3213C7.07347 -2.37111 7.10336 -2.44085 7.10336 -2.46077C7.10336 -2.47073 7.10336 -2.57036 6.98381 -2.57036C6.89415 -2.57036 6.87422 -2.51059 6.8543 -2.45081C6.20672 -0.976339 5.83811 -0.308842 4.1345 -0.308842L2.67995 -0.308842C2.54047 -0.308842 2.52055 -0.308842 2.46077 -0.318804C2.36115 -0.328767 2.33126 -0.33873 2.33126 -0.418431C2.33126 -0.448319 2.33126 -0.468244 2.38107 -0.647572L3.05853 -3.36737L4.04483 -3.36737C4.89166 -3.36737 4.89166 -3.15816 4.89166 -2.90909C4.89166 -2.83935 4.89166 -2.7198 4.82192 -2.42092C4.80199 -2.37111 4.79203 -2.34122 4.79203 -2.31133C4.79203 -2.26152 4.83188 -2.20174 4.92154 -2.20174C5.00125 -2.20174 5.03113 -2.25156 5.07098 -2.401L5.63885 -4.73225C5.63885 -4.79203 5.58904 -4.84184 5.5193 -4.84184C5.42964 -4.84184 5.40971 -4.78207 5.37983 -4.66252C5.17061 -3.90535 4.99128 -3.67621 4.07472 -3.67621L3.13823 -3.67621L3.73599 -6.07721C3.82565 -6.4259 3.83562 -6.46575 4.27397 -6.46575L5.6787 -6.46575C6.89415 -6.46575 7.19303 -6.17684 7.19303 -5.3599C7.19303 -5.1208 7.19303 -5.10087 7.15318 -4.83188C7.15318 -4.7721 7.14321 -4.70237 7.14321 -4.65255C7.14321 -4.60274 7.1731 -4.533 7.26276 -4.533C7.37235 -4.533 7.38232 -4.59278 7.40224 -4.78207L7.60149 -6.5056C7.63138 -6.7746 7.58157 -6.7746 7.3325 -6.7746L2.30137 -6.7746C2.10212 -6.7746 2.00249 -6.7746 2.00249 -6.57534C2.00249 -6.46575 2.09215 -6.46575 2.28144 -6.46575C2.65006 -6.46575 2.92902 -6.46575 2.92902 -6.28643C2.92902 -6.24658 2.92902 -6.22665 2.8792 -6.04732L1.56413 -0.777086C1.46451 -0.388543 1.44458 -0.308842 0.657534 -0.308842C0.488169 -0.308842 0.37858 -0.308842 0.37858 -0.119552C0.37858 -0 0.468244 -0 0.657534 -0L5.82814 -0C6.05729 -0 6.06725 -0.00996264 6.13699 -0.169365ZM6.13699 -0.169365" fill="black"/>
  <path d="M7.59147 1.49438M10.4717 0.518042C10.4368 0.113559 10.1997 -1.58109 9.06296 -1.58109C8.6515 -1.58109 8.29583 -1.35792 8.10057 -1.1766C7.67516 -0.793041 7.59147 -0.346715 7.59147 -0.325794C7.59147 -0.242107 7.68213 -0.242107 7.70306 -0.242107C7.79372 -0.242107 7.80069 -0.256055 7.83556 -0.360663C7.98201 -0.77212 8.49807 -1.02318 8.96532 -1.02318C10.0881 -1.02318 10.2346 0.0996112 10.2346 0.810944C10.2346 1.15964 10.2136 1.23635 10.1857 1.31306C10.0253 1.8361 9.81613 2.6102 9.81613 2.81941C9.81613 2.89612 9.84403 2.98678 9.93469 2.98678C9.9835 2.98678 10.0602 2.98678 10.1718 2.62414C10.2555 2.35216 10.388 1.8361 10.4438 1.33398C10.4717 1.0899 10.8622 0.148428 11.0087 -0.186317C11.1063 -0.402506 11.2527 -0.730277 11.5805 -1.337C11.6014 -1.37187 11.6154 -1.39977 11.6154 -1.42766C11.6154 -1.51135 11.5247 -1.51135 11.5038 -1.51135C11.4829 -1.51135 11.4201 -1.51135 11.3992 -1.47648C11.3155 -1.33003 10.7855 -0.332767 10.4717 0.518042ZM10.4717 0.518042" fill="black"/>
 </g>
 <g transform="matrix(1.000000,0.000000,0.000000,1.000000,-28.346457,-12.188976)">
  <path d="M0.428394 -0M1.32503 -0.826899C1.86301 -1.40473 2.15193 -1.6538 2.51059 -1.96264C2.51059 -1.9726 3.12827 -2.50062 3.48692 -2.85928C4.43337 -3.7858 4.65255 -4.26401 4.65255 -4.30386C4.65255 -4.40349 4.56289 -4.40349 4.54296 -4.40349C4.47323 -4.40349 4.44334 -4.38356 4.39352 -4.2939C4.09465 -3.81569 3.88543 -3.65629 3.64633 -3.65629C3.40722 -3.65629 3.28767 -3.80573 3.13823 -3.97509C2.94894 -4.20423 2.77958 -4.40349 2.45081 -4.40349C1.70361 -4.40349 1.24533 -3.47696 1.24533 -3.26775C1.24533 -3.21793 1.27522 -3.15816 1.36488 -3.15816C1.45455 -3.15816 1.47447 -3.20797 1.4944 -3.26775C1.68369 -3.72603 2.26152 -3.73599 2.34122 -3.73599C2.55044 -3.73599 2.73973 -3.66625 2.96887 -3.58655C3.36737 -3.43711 3.47696 -3.43711 3.73599 -3.43711C3.37733 -3.00872 2.54047 -2.29141 2.35118 -2.132L1.45455 -1.29514C0.777086 -0.627646 0.428394 -0.0597758 0.428394 0.00996264C0.428394 0.109589 0.52802 0.109589 0.547945 0.109589C0.627646 0.109589 0.647572 0.0896638 0.707347 -0.0199253C0.936488 -0.368618 1.23537 -0.637609 1.55417 -0.637609C1.78331 -0.637609 1.88294 -0.547945 2.132 -0.259029C2.30137 -0.0498132 2.4807 0.109589 2.76961 0.109589C3.75592 0.109589 4.33375 -1.15567 4.33375 -1.42466C4.33375 -1.47447 4.2939 -1.52428 4.2142 -1.52428C4.12453 -1.52428 4.10461 -1.46451 4.07472 -1.39477C3.84558 -0.747198 3.20797 -0.557908 2.8792 -0.557908C2.67995 -0.557908 2.50062 -0.617684 2.29141 -0.687422C1.95268 -0.816936 1.80324 -0.856787 1.59402 -0.856787C1.5741 -0.856787 1.41469 -0.856787 1.32503 -0.826899ZM1.32503 -0.826899" fill="black"/>
 </g>
 <g stroke-width="1.133858">
  <path d="M-19.8425 -14.1732L-4.43462 -14.1732" stroke="black"/>
  <g stroke-linecap="butt" stroke-dasharray="none">
   <path d="M-5.54328 -16.4693L0 -14.1732L-5.54328 -11.8771L-4.43462 -14.1732Z" fill="black"/>
  </g>
 </g>
 <g stroke-width="1.133858">
  <path d="M-14.1732 -14.1732L-14.1732 2.83465L99.2126 2.83465L99.2126 -14.1732" stroke="black"/>
 </g>
 <g stroke-width="1.133858">
  <path d="M56.6929 -14.1732L72.1008 -14.1732" stroke="black"/>
  <g stroke-linecap="butt" stroke-dasharray="none">
   <path d="M70.9922 -16.4693L76.5354 -14.1732L70.9922 -11.8771L72.1008 -14.1732Z" fill="black"/>
  </g>
 </g>
 <g transform="matrix(1.000000,0.000000,0.000000,1.000000,79.370079,-12.188976)">
  <path d="M1.45995 -0M4.77751 -6.5056L4.6181 -6.65504C4.6181 -6.64508 4.23952 -6.17684 3.80117 -6.17684C3.57203 -6.17684 3.32296 -6.32628 3.1536 -6.4259C2.8846 -6.58531 2.70528 -6.65504 2.53591 -6.65504C2.15733 -6.65504 1.96804 -6.43587 1.45995 -5.87796L1.61935 -5.72852C1.61935 -5.73848 1.99793 -6.20672 2.43629 -6.20672C2.66543 -6.20672 2.91449 -6.05729 3.08386 -5.95766C3.35285 -5.79826 3.53218 -5.72852 3.70154 -5.72852C4.08012 -5.72852 4.26941 -5.9477 4.77751 -6.5056ZM4.77751 -6.5056" fill="black"/>
  <path d="M0.288917 -0M3.32752 -3.00872C3.3873 -3.26775 3.61644 -4.18431 4.31382 -4.18431C4.36364 -4.18431 4.60274 -4.18431 4.81196 -4.05479C4.533 -4.00498 4.33375 -3.75592 4.33375 -3.51681C4.33375 -3.35741 4.44334 -3.16812 4.71233 -3.16812C4.93151 -3.16812 5.25031 -3.34745 5.25031 -3.74595C5.25031 -4.26401 4.66252 -4.40349 4.32379 -4.40349C3.74595 -4.40349 3.39726 -3.87547 3.27771 -3.64633C3.02864 -4.30386 2.49066 -4.40349 2.20174 -4.40349C1.16563 -4.40349 0.597758 -3.11831 0.597758 -2.86924C0.597758 -2.76961 0.697385 -2.76961 0.71731 -2.76961C0.797011 -2.76961 0.826899 -2.78954 0.846824 -2.8792C1.18555 -3.93524 1.84309 -4.18431 2.18182 -4.18431C2.37111 -4.18431 2.7198 -4.09465 2.7198 -3.51681C2.7198 -3.20797 2.55044 -2.54047 2.18182 -1.1457C2.02242 -0.52802 1.67372 -0.109589 1.23537 -0.109589C1.17559 -0.109589 0.946451 -0.109589 0.737235 -0.239103C0.986301 -0.288917 1.20548 -0.498132 1.20548 -0.777086C1.20548 -1.04608 0.986301 -1.12578 0.836862 -1.12578C0.537983 -1.12578 0.288917 -0.86675 0.288917 -0.547945C0.288917 -0.0896638 0.787049 0.109589 1.2254 0.109589C1.88294 0.109589 2.24159 -0.587796 2.27148 -0.647572C2.39103 -0.278954 2.74969 0.109589 3.34745 0.109589C4.3736 0.109589 4.94147 -1.17559 4.94147 -1.42466C4.94147 -1.52428 4.85181 -1.52428 4.82192 -1.52428C4.73225 -1.52428 4.71233 -1.48443 4.6924 -1.41469C4.36364 -0.348692 3.68618 -0.109589 3.36737 -0.109589C2.97883 -0.109589 2.81943 -0.428394 2.81943 -0.767123C2.81943 -0.986301 2.8792 -1.20548 2.98879 -1.64384ZM2.98879 -1.64384" fill="black"/>
 </g>
 <g stroke-width="1.133858">
  <path d="M87.874 -14.1732L103.282 -14.1732" stroke="black"/>
  <g stroke-linecap="butt" stroke-dasharray="none">
   <path d="M102.173 -16.4693L107.717 -14.1732L102.173 -11.8771L103.282 -14.1732Z" fill="black"/>
  </g>
 </g>
 <g stroke-width="1.133858">
  <path d="M107.717 5.66929L178.583 5.66929L178.583 -65.1969L107.717 -65.1969Z" stroke="#f00" fill="#ffe528"/>
 </g>
 <g transform="matrix(1.000000,0.000000,0.000000,1.000000,113.385827,-31.181102)">
  <path d="M0.348692 -0M0.348692 -6.80448L0.348692 -6.49564L0.587796 -6.49564C1.35492 -6.49564 1.37484 -6.38605 1.37484 -6.0274L1.37484 -0.777086C1.37484 -0.418431 1.35492 -0.308842 0.587796 -0.308842L0.348692 -0.308842L0.348692 -0L3.99502 -0C5.66874 -0 7.04359 -1.47447 7.04359 -3.34745C7.04359 -5.24035 5.69863 -6.80448 3.99502 -6.80448ZM3.99502 -6.80448M2.7198 -0.308842C2.25156 -0.308842 2.23163 -0.37858 2.23163 -0.707347L2.23163 -6.09714C2.23163 -6.4259 2.25156 -6.49564 2.7198 -6.49564L3.71606 -6.49564C4.33375 -6.49564 5.02117 -6.27646 5.52927 -5.56912C5.95766 -4.98132 6.04732 -4.12453 6.04732 -3.34745C6.04732 -2.24159 5.85803 -1.64384 5.49938 -1.15567C5.30012 -0.886675 4.73225 -0.308842 3.72603 -0.308842ZM3.72603 -0.308842M7.93026 -0M9.36488 -4.40349L7.97011 -4.2939L7.97011 -3.98506C8.61768 -3.98506 8.70735 -3.92528 8.70735 -3.43711L8.70735 -0.757161C8.70735 -0.308842 8.59776 -0.308842 7.93026 -0.308842L7.93026 -0C8.24907 -0.00996264 8.78705 -0.0298879 9.02615 -0.0298879C9.37484 -0.0298879 9.72354 -0.00996264 10.0623 -0L10.0623 -0.308842C9.40473 -0.308842 9.36488 -0.358655 9.36488 -0.747198ZM9.36488 -0.747198M9.40473 -6.13699C9.40473 -6.45579 9.15567 -6.66501 8.87671 -6.66501C8.56787 -6.66501 8.34869 -6.39601 8.34869 -6.13699C8.34869 -5.868 8.56787 -5.60897 8.87671 -5.60897C9.15567 -5.60897 9.40473 -5.81818 9.40473 -6.13699ZM9.40473 -6.13699M10.6899 -0M12.4334 -1.93275C12.6526 -1.8929 13.4695 -1.7335 13.4695 -1.01619C13.4695 -0.508095 13.1208 -0.109589 12.3437 -0.109589C11.5068 -0.109589 11.1482 -0.67746 10.9589 -1.52428C10.929 -1.6538 10.9191 -1.69365 10.8194 -1.69365C10.6899 -1.69365 10.6899 -1.62391 10.6899 -1.44458L10.6899 -0.129514C10.6899 0.0398506 10.6899 0.109589 10.7995 0.109589C10.8493 0.109589 10.8593 0.0996264 11.0486 -0.0896638C11.0685 -0.109589 11.0685 -0.129514 11.2478 -0.318804C11.6862 0.0996264 12.1345 0.109589 12.3437 0.109589C13.4894 0.109589 13.9477 -0.557908 13.9477 -1.27522C13.9477 -1.80324 13.6488 -2.10212 13.5293 -2.22167C13.2005 -2.54047 12.812 -2.62017 12.3935 -2.69988C11.8356 -2.80946 11.1681 -2.93898 11.1681 -3.51681C11.1681 -3.8655 11.4271 -4.27397 12.2839 -4.27397C13.3798 -4.27397 13.4296 -3.37733 13.4496 -3.06849C13.4595 -2.97883 13.5492 -2.97883 13.5691 -2.97883C13.6986 -2.97883 13.6986 -3.02864 13.6986 -3.21793L13.6986 -4.22416C13.6986 -4.39352 13.6986 -4.46326 13.589 -4.46326C13.5392 -4.46326 13.5193 -4.46326 13.3898 -4.34371C13.3599 -4.30386 13.2603 -4.2142 13.2204 -4.18431C12.8418 -4.46326 12.4334 -4.46326 12.2839 -4.46326C11.0685 -4.46326 10.6899 -3.79577 10.6899 -3.23786C10.6899 -2.88917 10.8493 -2.61021 11.1183 -2.39103C11.4371 -2.132 11.7161 -2.07223 12.4334 -1.93275ZM12.4334 -1.93275M14.6252 -0M15.4521 -2.17186C15.4521 -3.79577 16.269 -4.2142 16.797 -4.2142C16.8867 -4.2142 17.5143 -4.20423 17.863 -3.84558C17.4545 -3.81569 17.3948 -3.51681 17.3948 -3.3873C17.3948 -3.12827 17.5741 -2.92902 17.8531 -2.92902C18.1121 -2.92902 18.3113 -3.09838 18.3113 -3.39726C18.3113 -4.07472 17.5542 -4.46326 16.787 -4.46326C15.5417 -4.46326 14.6252 -3.3873 14.6252 -2.15193C14.6252 -0.876712 15.6115 0.109589 16.7671 0.109589C18.1021 0.109589 18.4209 -1.08593 18.4209 -1.18555C18.4209 -1.28518 18.3213 -1.28518 18.2914 -1.28518C18.2017 -1.28518 18.1818 -1.24533 18.1619 -1.18555C17.873 -0.259029 17.2254 -0.139477 16.8568 -0.139477C16.3288 -0.139477 15.4521 -0.56787 15.4521 -2.17186ZM15.4521 -2.17186M18.9888 -0M20.3736 -3.3076L20.3736 -4.40349L18.9888 -4.2939L18.9888 -3.98506C19.6862 -3.98506 19.7659 -3.91532 19.7659 -3.42715L19.7659 -0.757161C19.7659 -0.308842 19.6563 -0.308842 18.9888 -0.308842L18.9888 -0C19.3773 -0.00996264 19.8456 -0.0298879 20.1245 -0.0298879C20.523 -0.0298879 20.9913 -0.0298879 21.3898 -0L21.3898 -0.308842L21.1806 -0.308842C20.4433 -0.308842 20.4234 -0.418431 20.4234 -0.777086L20.4234 -2.31133C20.4234 -3.29763 20.8418 -4.18431 21.599 -4.18431C21.6687 -4.18431 21.6887 -4.18431 21.7086 -4.17435C21.6787 -4.16438 21.4795 -4.04483 21.4795 -3.7858C21.4795 -3.50685 21.6887 -3.35741 21.9078 -3.35741C22.0872 -3.35741 22.3362 -3.47696 22.3362 -3.79577C22.3362 -4.11457 22.0274 -4.40349 21.599 -4.40349C20.8717 -4.40349 20.5131 -3.73599 20.3736 -3.3076ZM20.3736 -3.3076M22.934 -0M24.3686 -4.40349L22.9738 -4.2939L22.9738 -3.98506C23.6214 -3.98506 23.7111 -3.92528 23.7111 -3.43711L23.7111 -0.757161C23.7111 -0.308842 23.6015 -0.308842 22.934 -0.308842L22.934 -0C23.2528 -0.00996264 23.7908 -0.0298879 24.0299 -0.0298879C24.3786 -0.0298879 24.7273 -0.00996264 25.066 -0L25.066 -0.308842C24.4085 -0.308842 24.3686 -0.358655 24.3686 -0.747198ZM24.3686 -0.747198M24.4085 -6.13699C24.4085 -6.45579 24.1594 -6.66501 23.8804 -6.66501C23.5716 -6.66501 23.3524 -6.39601 23.3524 -6.13699C23.3524 -5.868 23.5716 -5.60897 23.8804 -5.60897C24.1594 -5.60897 24.4085 -5.81818 24.4085 -6.13699ZM24.4085 -6.13699M25.6837 -0M26.4608 -3.42715L26.4608 -0.757161C26.4608 -0.308842 26.3512 -0.308842 25.6837 -0.308842L25.6837 -0C26.0324 -0.00996264 26.5405 -0.0298879 26.8095 -0.0298879C27.0685 -0.0298879 27.5866 -0.00996264 27.9253 -0L27.9253 -0.308842C27.2578 -0.308842 27.1482 -0.308842 27.1482 -0.757161L27.1482 -2.59029C27.1482 -3.6264 27.8555 -4.18431 28.4932 -4.18431C29.1208 -4.18431 29.2304 -3.64633 29.2304 -3.07846L29.2304 -0.757161C29.2304 -0.308842 29.1208 -0.308842 28.4533 -0.308842L28.4533 -0C28.802 -0.00996264 29.3101 -0.0298879 29.5791 -0.0298879C29.8381 -0.0298879 30.3562 -0.00996264 30.6949 -0L30.6949 -0.308842C30.0274 -0.308842 29.9178 -0.308842 29.9178 -0.757161L29.9178 -2.59029C29.9178 -3.6264 30.6252 -4.18431 31.2628 -4.18431C31.8904 -4.18431 32 -3.64633 32 -3.07846L32 -0.757161C32 -0.308842 31.8904 -0.308842 31.2229 -0.308842L31.2229 -0C31.5716 -0.00996264 32.0797 -0.0298879 32.3487 -0.0298879C32.6077 -0.0298879 33.1258 -0.00996264 33.4645 -0L33.4645 -0.308842C32.9465 -0.308842 32.6974 -0.308842 32.6874 -0.607721L32.6874 -2.51059C32.6874 -3.36737 32.6874 -3.67621 32.3786 -4.03487C32.2391 -4.20423 31.9103 -4.40349 31.3325 -4.40349C30.4956 -4.40349 30.0573 -3.80573 29.8879 -3.42715C29.7484 -4.2939 29.0112 -4.40349 28.5629 -4.40349C27.8356 -4.40349 27.3674 -3.97509 27.0884 -3.35741L27.0884 -4.40349L25.6837 -4.2939L25.6837 -3.98506C26.3811 -3.98506 26.4608 -3.91532 26.4608 -3.42715ZM26.4608 -3.42715M33.9925 -0M35.4271 -4.40349L34.0324 -4.2939L34.0324 -3.98506C34.68 -3.98506 34.7696 -3.92528 34.7696 -3.43711L34.7696 -0.757161C34.7696 -0.308842 34.66 -0.308842 33.9925 -0.308842L33.9925 -0C34.3113 -0.00996264 34.8493 -0.0298879 35.0884 -0.0298879C35.4371 -0.0298879 35.7858 -0.00996264 36.1245 -0L36.1245 -0.308842C35.467 -0.308842 35.4271 -0.358655 35.4271 -0.747198ZM35.4271 -0.747198M35.467 -6.13699C35.467 -6.45579 35.2179 -6.66501 34.939 -6.66501C34.6301 -6.66501 34.411 -6.39601 34.411 -6.13699C34.411 -5.868 34.6301 -5.60897 34.939 -5.60897C35.2179 -5.60897 35.467 -5.81818 35.467 -6.13699ZM35.467 -6.13699M36.7422 -0M37.5193 -3.42715L37.5193 -0.757161C37.5193 -0.308842 37.4097 -0.308842 36.7422 -0.308842L36.7422 -0C37.0909 -0.00996264 37.599 -0.0298879 37.868 -0.0298879C38.127 -0.0298879 38.6451 -0.00996264 38.9838 -0L38.9838 -0.308842C38.3163 -0.308842 38.2067 -0.308842 38.2067 -0.757161L38.2067 -2.59029C38.2067 -3.6264 38.9141 -4.18431 39.5517 -4.18431C40.1793 -4.18431 40.2889 -3.64633 40.2889 -3.07846L40.2889 -0.757161C40.2889 -0.308842 40.1793 -0.308842 39.5118 -0.308842L39.5118 -0C39.8605 -0.00996264 40.3686 -0.0298879 40.6376 -0.0298879C40.8966 -0.0298879 41.4147 -0.00996264 41.7534 -0L41.7534 -0.308842C41.2354 -0.308842 40.9863 -0.308842 40.9763 -0.607721L40.9763 -2.51059C40.9763 -3.36737 40.9763 -3.67621 40.6675 -4.03487C40.528 -4.20423 40.1993 -4.40349 39.6214 -4.40349C38.8941 -4.40349 38.4259 -3.97509 38.1469 -3.35741L38.1469 -4.40349L36.7422 -4.2939L36.7422 -3.98506C37.4396 -3.98506 37.5193 -3.91532 37.5193 -3.42715ZM37.5193 -3.42715M42.3711 -0M45.2702 -0.757161C45.3101 -0.358655 45.5791 0.0597758 46.0473 0.0597758C46.2565 0.0597758 46.8643 -0.0797011 46.8643 -0.886675L46.8643 -1.44458L46.6152 -1.44458L46.6152 -0.886675C46.6152 -0.308842 46.3661 -0.249066 46.2565 -0.249066C45.9278 -0.249066 45.8879 -0.697385 45.8879 -0.747198L45.8879 -2.73973C45.8879 -3.15816 45.8879 -3.5467 45.5293 -3.91532C45.1407 -4.30386 44.6426 -4.46326 44.1644 -4.46326C43.3474 -4.46326 42.66 -3.99502 42.66 -3.33748C42.66 -3.03861 42.8593 -2.86924 43.1183 -2.86924C43.3973 -2.86924 43.5766 -3.06849 43.5766 -3.32752C43.5766 -3.44707 43.5268 -3.77584 43.0685 -3.7858C43.3375 -4.1345 43.8257 -4.24408 44.1445 -4.24408C44.6326 -4.24408 45.2005 -3.85554 45.2005 -2.96887L45.2005 -2.60025C44.6924 -2.57036 43.995 -2.54047 43.3674 -2.24159C42.6202 -1.90286 42.3711 -1.38481 42.3711 -0.946451C42.3711 -0.139477 43.3375 0.109589 43.9651 0.109589C44.6227 0.109589 45.0809 -0.288917 45.2702 -0.757161ZM45.2702 -0.757161M45.2005 -2.39103L45.2005 -1.39477C45.2005 -0.448319 44.4832 -0.109589 44.0349 -0.109589C43.5467 -0.109589 43.1382 -0.458281 43.1382 -0.956413C43.1382 -1.50436 43.5567 -2.33126 45.2005 -2.39103ZM45.2005 -2.39103M47.1233 -0M48.6575 -3.98506L50.0822 -3.98506L50.0822 -4.2939L48.6575 -4.2939L48.6575 -6.12702L48.4085 -6.12702C48.3985 -5.31009 48.0996 -4.24408 47.1233 -4.20423L47.1233 -3.98506L47.9701 -3.98506L47.9701 -1.23537C47.9701 -0.00996264 48.8966 0.109589 49.2553 0.109589C49.9626 0.109589 50.2416 -0.597758 50.2416 -1.23537L50.2416 -1.80324L49.9925 -1.80324L49.9925 -1.25529C49.9925 -0.518057 49.6936 -0.139477 49.325 -0.139477C48.6575 -0.139477 48.6575 -1.04608 48.6575 -1.21544ZM48.6575 -1.21544M51.0785 -0M55.4919 -2.132C55.4919 -3.40722 54.4956 -4.46326 53.2902 -4.46326C52.0448 -4.46326 51.0785 -3.37733 51.0785 -2.132C51.0785 -0.846824 52.1146 0.109589 53.2802 0.109589C54.4857 0.109589 55.4919 -0.86675 55.4919 -2.132ZM55.4919 -2.132M53.2902 -0.139477C52.8618 -0.139477 52.4234 -0.348692 52.1544 -0.806974C51.9054 -1.24533 51.9054 -1.85305 51.9054 -2.21171C51.9054 -2.60025 51.9054 -3.13823 52.1445 -3.57659C52.4134 -4.03487 52.8817 -4.24408 53.2802 -4.24408C53.7186 -4.24408 54.1469 -4.02491 54.406 -3.59651C54.665 -3.16812 54.665 -2.59029 54.665 -2.21171C54.665 -1.85305 54.665 -1.31507 54.4458 -0.876712C54.2267 -0.428394 53.7883 -0.139477 53.2902 -0.139477ZM53.2902 -0.139477M56.0598 -0M57.4446 -3.3076L57.4446 -4.40349L56.0598 -4.2939L56.0598 -3.98506C56.7572 -3.98506 56.8369 -3.91532 56.8369 -3.42715L56.8369 -0.757161C56.8369 -0.308842 56.7273 -0.308842 56.0598 -0.308842L56.0598 -0C56.4483 -0.00996264 56.9166 -0.0298879 57.1955 -0.0298879C57.594 -0.0298879 58.0623 -0.0298879 58.4608 -0L58.4608 -0.308842L58.2516 -0.308842C57.5143 -0.308842 57.4944 -0.418431 57.4944 -0.777086L57.4944 -2.31133C57.4944 -3.29763 57.9128 -4.18431 58.67 -4.18431C58.7397 -4.18431 58.7597 -4.18431 58.7796 -4.17435C58.7497 -4.16438 58.5504 -4.04483 58.5504 -3.7858C58.5504 -3.50685 58.7597 -3.35741 58.9788 -3.35741C59.1582 -3.35741 59.4072 -3.47696 59.4072 -3.79577C59.4072 -4.11457 59.0984 -4.40349 58.67 -4.40349C57.9427 -4.40349 57.5841 -3.73599 57.4446 -3.3076ZM57.4446 -3.3076" fill="black"/>
 </g>
 <g transform="matrix(1.000000,0.000000,0.000000,1.000000,136.062992,-21.259843)">
  <path d="M0.398506 -0M1.58406 -0.777086C1.48443 -0.388543 1.46451 -0.308842 0.67746 -0.308842C0.508095 -0.308842 0.398506 -0.308842 0.398506 -0.119552C0.398506 -0 0.488169 -0 0.67746 -0L3.97509 -0C6.04732 -0 8.00996 -2.10212 8.00996 -4.28394C8.00996 -5.68867 7.16314 -6.80448 5.66874 -6.80448L2.3213 -6.80448C2.132 -6.80448 2.02242 -6.80448 2.02242 -6.61519C2.02242 -6.49564 2.11208 -6.49564 2.31133 -6.49564C2.44085 -6.49564 2.62017 -6.48568 2.73973 -6.47572C2.89913 -6.45579 2.9589 -6.4259 2.9589 -6.31631C2.9589 -6.27646 2.94894 -6.24658 2.91905 -6.12702ZM2.91905 -6.12702M3.73599 -6.11706C3.82565 -6.46575 3.84558 -6.49564 4.27397 -6.49564L5.33998 -6.49564C6.31631 -6.49564 7.14321 -5.96762 7.14321 -4.65255C7.14321 -4.16438 6.94396 -2.53051 6.09714 -1.43462C5.80822 -1.066 5.02117 -0.308842 3.79577 -0.308842L2.66999 -0.308842C2.53051 -0.308842 2.51059 -0.308842 2.45081 -0.318804C2.35118 -0.328767 2.3213 -0.33873 2.3213 -0.418431C2.3213 -0.448319 2.3213 -0.468244 2.37111 -0.647572ZM2.37111 -0.647572" fill="black"/>
  <path d="M8.7364 1.49438M11.6794 -3.25481C11.6794 -3.34547 11.5957 -3.34547 11.5608 -3.34547C11.4562 -3.34547 11.4492 -3.3106 11.4213 -3.19205L11.0238 -1.59503C9.78945 -1.53924 8.7364 -0.653564 8.7364 0.280931C8.7364 1.06898 9.4547 1.5432 10.2288 1.57109C10.173 1.78728 10.1242 2.01045 10.0684 2.22663C9.98472 2.55441 9.92195 2.81244 9.92195 2.83336C9.92195 2.91705 10.0126 2.91705 10.0335 2.91705C10.1381 2.91705 10.1451 2.89612 10.18 2.74967L10.4729 1.57807C11.6654 1.52925 12.7603 0.650545 12.7603 -0.297898C12.7603 -1.03015 12.1187 -1.55319 11.2679 -1.58806ZM11.2679 -1.58806M10.2776 1.37583C9.74063 1.34793 9.24549 1.05503 9.24549 0.399487C9.24549 -0.297898 9.7755 -1.28121 10.968 -1.39279ZM10.968 -1.39279M11.2121 -1.39279C11.7491 -1.37187 12.2512 -1.07897 12.2512 -0.416454C12.2512 0.343696 11.6515 1.27819 10.5217 1.37583ZM10.5217 1.37583" fill="black"/>
 </g>
 <g stroke-width="1.133858">
  <path d="M178.583 -14.1732L193.991 -14.1732" stroke="black"/>
  <g stroke-linecap="butt" stroke-dasharray="none">
   <path d="M192.882 -16.4693L198.425 -14.1732L192.882 -11.8771L193.991 -14.1732Z" fill="black"/>
  </g>
 </g>
 <g transform="matrix(1.000000,0.000000,0.000000,1.000000,201.259843,-12.188976)">
  <path d="M0.348692 -0M2.26152 -3.14819L3.94521 -3.14819C5.14072 -3.14819 6.21669 -3.95517 6.21669 -4.95143C6.21669 -5.92777 5.23039 -6.80448 3.8655 -6.80448L0.348692 -6.80448L0.348692 -6.49564L0.587796 -6.49564C1.35492 -6.49564 1.37484 -6.38605 1.37484 -6.0274L1.37484 -0.777086C1.37484 -0.418431 1.35492 -0.308842 0.587796 -0.308842L0.348692 -0.308842L0.348692 -0C0.697385 -0.0298879 1.43462 -0.0298879 1.8132 -0.0298879C2.19178 -0.0298879 2.93898 -0.0298879 3.28767 -0L3.28767 -0.308842L3.04857 -0.308842C2.28144 -0.308842 2.26152 -0.418431 2.26152 -0.777086ZM2.26152 -0.777086M2.23163 -3.40722L2.23163 -6.09714C2.23163 -6.4259 2.25156 -6.49564 2.7198 -6.49564L3.60648 -6.49564C5.19054 -6.49564 5.19054 -5.4396 5.19054 -4.95143C5.19054 -4.48319 5.19054 -3.40722 3.60648 -3.40722ZM3.60648 -3.40722M7.05355 -0M8.43836 -3.3076L8.43836 -4.40349L7.05355 -4.2939L7.05355 -3.98506C7.75093 -3.98506 7.83064 -3.91532 7.83064 -3.42715L7.83064 -0.757161C7.83064 -0.308842 7.72105 -0.308842 7.05355 -0.308842L7.05355 -0C7.44209 -0.00996264 7.91034 -0.0298879 8.18929 -0.0298879C8.5878 -0.0298879 9.05604 -0.0298879 9.45455 -0L9.45455 -0.308842L9.24533 -0.308842C8.50809 -0.308842 8.48817 -0.418431 8.48817 -0.777086L8.48817 -2.31133C8.48817 -3.29763 8.9066 -4.18431 9.66376 -4.18431C9.7335 -4.18431 9.75342 -4.18431 9.77335 -4.17435C9.74346 -4.16438 9.54421 -4.04483 9.54421 -3.7858C9.54421 -3.50685 9.75342 -3.35741 9.9726 -3.35741C10.1519 -3.35741 10.401 -3.47696 10.401 -3.79577C10.401 -4.11457 10.0922 -4.40349 9.66376 -4.40349C8.93649 -4.40349 8.57783 -3.73599 8.43836 -3.3076ZM8.43836 -3.3076M11.6563 -0M13.9676 2.39103C13.9676 2.36115 13.9676 2.34122 13.7983 2.17186C12.5529 0.916563 12.2341 -0.966376 12.2341 -2.49066C12.2341 -4.22416 12.6127 -5.95766 13.8381 -7.20299C13.9676 -7.32254 13.9676 -7.34247 13.9676 -7.37235C13.9676 -7.44209 13.9278 -7.47198 13.868 -7.47198C13.7684 -7.47198 12.8717 -6.79452 12.2839 -5.52927C11.7758 -4.43337 11.6563 -3.32752 11.6563 -2.49066C11.6563 -1.71357 11.7659 -0.508095 12.3138 0.617684C12.9116 1.84309 13.7684 2.49066 13.868 2.49066C13.9278 2.49066 13.9676 2.46077 13.9676 2.39103ZM13.9676 2.39103M14.8941 -0M21.1706 -6.74471L15.0834 -6.74471L14.8941 -4.50311L15.1432 -4.50311C15.2827 -6.1071 15.4321 -6.43587 16.9365 -6.43587C17.1158 -6.43587 17.3748 -6.43587 17.4745 -6.41594C17.6837 -6.37609 17.6837 -6.2665 17.6837 -6.03736L17.6837 -0.787049C17.6837 -0.448319 17.6837 -0.308842 16.6376 -0.308842L16.2391 -0.308842L16.2391 -0C16.6476 -0.0298879 17.6638 -0.0298879 18.122 -0.0298879C18.5803 -0.0298879 19.6065 -0.0298879 20.0149 -0L20.0149 -0.308842L19.6164 -0.308842C18.5704 -0.308842 18.5704 -0.448319 18.5704 -0.787049L18.5704 -6.03736C18.5704 -6.23661 18.5704 -6.37609 18.7497 -6.41594C18.8593 -6.43587 19.1283 -6.43587 19.3176 -6.43587C20.8219 -6.43587 20.9714 -6.1071 21.1108 -4.50311L21.3599 -4.50311ZM21.3599 -4.50311" fill="black"/>
  <path d="M21.2005 -0M22.5853 -3.3076L22.5853 -4.40349L21.2005 -4.2939L21.2005 -3.98506C21.8979 -3.98506 21.9776 -3.91532 21.9776 -3.42715L21.9776 -0.757161C21.9776 -0.308842 21.868 -0.308842 21.2005 -0.308842L21.2005 -0C21.5891 -0.00996264 22.0573 -0.0298879 22.3363 -0.0298879C22.7348 -0.0298879 23.203 -0.0298879 23.6015 -0L23.6015 -0.308842L23.3923 -0.308842C22.6551 -0.308842 22.6351 -0.418431 22.6351 -0.777086L22.6351 -2.31133C22.6351 -3.29763 23.0536 -4.18431 23.8107 -4.18431C23.8805 -4.18431 23.9004 -4.18431 23.9203 -4.17435C23.8904 -4.16438 23.6912 -4.04483 23.6912 -3.7858C23.6912 -3.50685 23.9004 -3.35741 24.1196 -3.35741C24.2989 -3.35741 24.548 -3.47696 24.548 -3.79577C24.548 -4.11457 24.2391 -4.40349 23.8107 -4.40349C23.0835 -4.40349 22.7248 -3.73599 22.5853 -3.3076ZM22.5853 -3.3076M25.1358 -0M28.7124 -0.787049L28.7124 0.109589L30.147 -0L30.147 -0.308842C29.4496 -0.308842 29.3699 -0.37858 29.3699 -0.86675L29.3699 -4.40349L27.9054 -4.2939L27.9054 -3.98506C28.6028 -3.98506 28.6825 -3.91532 28.6825 -3.42715L28.6825 -1.6538C28.6825 -0.787049 28.2043 -0.109589 27.477 -0.109589C26.6401 -0.109589 26.6003 -0.577833 26.6003 -1.09589L26.6003 -4.40349L25.1358 -4.2939L25.1358 -3.98506C25.9129 -3.98506 25.9129 -3.95517 25.9129 -3.06849L25.9129 -1.5741C25.9129 -0.797011 25.9129 0.109589 27.4272 0.109589C27.9851 0.109589 28.4234 -0.169365 28.7124 -0.787049ZM28.7124 -0.787049M30.6252 -0M31.462 -2.51059C31.5218 -3.99502 32.3587 -4.24408 32.6974 -4.24408C33.7236 -4.24408 33.8232 -2.89913 33.8232 -2.51059ZM33.8232 -2.51059M31.4521 -2.30137L34.2317 -2.30137C34.4508 -2.30137 34.4807 -2.30137 34.4807 -2.51059C34.4807 -3.49689 33.9427 -4.46326 32.6974 -4.46326C31.5417 -4.46326 30.6252 -3.43711 30.6252 -2.19178C30.6252 -0.856787 31.6713 0.109589 32.817 0.109589C34.0324 0.109589 34.4807 -0.996264 34.4807 -1.18555C34.4807 -1.28518 34.401 -1.30511 34.3512 -1.30511C34.2615 -1.30511 34.2416 -1.24533 34.2217 -1.16563C33.873 -0.139477 32.9764 -0.139477 32.8767 -0.139477C32.3786 -0.139477 31.9801 -0.438356 31.751 -0.806974C31.4521 -1.28518 31.4521 -1.94271 31.4521 -2.30137ZM31.4521 -2.30137M35.3375 -0M37.6488 -2.49066C37.6488 -3.26775 37.5393 -4.47323 36.9913 -5.599C36.3936 -6.82441 35.5368 -7.47198 35.4371 -7.47198C35.3774 -7.47198 35.3375 -7.43213 35.3375 -7.37235C35.3375 -7.34247 35.3375 -7.32254 35.5268 -7.14321C36.5031 -6.15691 37.071 -4.57285 37.071 -2.49066C37.071 -0.787049 36.7024 0.966376 35.467 2.22167C35.3375 2.34122 35.3375 2.36115 35.3375 2.39103C35.3375 2.45081 35.3774 2.49066 35.4371 2.49066C35.5368 2.49066 36.4334 1.8132 37.0212 0.547945C37.5293 -0.547945 37.6488 -1.6538 37.6488 -2.49066ZM37.6488 -2.49066" fill="black"/>
 </g>
 <g transform="matrix(1.000000,0.000000,0.000000,1.000000,-28.346457,-41.102362)">
  <path d="M2.58684 -0M3.65284 -6.13699C3.65284 -6.40598 3.4237 -6.66501 3.12482 -6.66501C2.78609 -6.66501 2.58684 -6.38605 2.58684 -6.13699C2.58684 -5.868 2.81598 -5.60897 3.11486 -5.60897C3.45359 -5.60897 3.65284 -5.88792 3.65284 -6.13699ZM3.65284 -6.13699" fill="black"/>
  <path d="M0.288917 -0M3.32752 -3.00872C3.3873 -3.26775 3.61644 -4.18431 4.31382 -4.18431C4.36364 -4.18431 4.60274 -4.18431 4.81196 -4.05479C4.533 -4.00498 4.33375 -3.75592 4.33375 -3.51681C4.33375 -3.35741 4.44334 -3.16812 4.71233 -3.16812C4.93151 -3.16812 5.25031 -3.34745 5.25031 -3.74595C5.25031 -4.26401 4.66252 -4.40349 4.32379 -4.40349C3.74595 -4.40349 3.39726 -3.87547 3.27771 -3.64633C3.02864 -4.30386 2.49066 -4.40349 2.20174 -4.40349C1.16563 -4.40349 0.597758 -3.11831 0.597758 -2.86924C0.597758 -2.76961 0.697385 -2.76961 0.71731 -2.76961C0.797011 -2.76961 0.826899 -2.78954 0.846824 -2.8792C1.18555 -3.93524 1.84309 -4.18431 2.18182 -4.18431C2.37111 -4.18431 2.7198 -4.09465 2.7198 -3.51681C2.7198 -3.20797 2.55044 -2.54047 2.18182 -1.1457C2.02242 -0.52802 1.67372 -0.109589 1.23537 -0.109589C1.17559 -0.109589 0.946451 -0.109589 0.737235 -0.239103C0.986301 -0.288917 1.20548 -0.498132 1.20548 -0.777086C1.20548 -1.04608 0.986301 -1.12578 0.836862 -1.12578C0.537983 -1.12578 0.288917 -0.86675 0.288917 -0.547945C0.288917 -0.0896638 0.787049 0.109589 1.2254 0.109589C1.88294 0.109589 2.24159 -0.587796 2.27148 -0.647572C2.39103 -0.278954 2.74969 0.109589 3.34745 0.109589C4.3736 0.109589 4.94147 -1.17559 4.94147 -1.42466C4.94147 -1.52428 4.85181 -1.52428 4.82192 -1.52428C4.73225 -1.52428 4.71233 -1.48443 4.6924 -1.41469C4.36364 -0.348692 3.68618 -0.109589 3.36737 -0.109589C2.97883 -0.109589 2.81943 -0.428394 2.81943 -0.767123C2.81943 -0.986301 2.8792 -1.20548 2.98879 -1.64384ZM2.98879 -1.64384" fill="black"/>
 </g>
 <g stroke-width="1.133858">
  <path d="M-19.8425 -42.5197L-4.43462 -42.5197" stroke="black"/>
  <g stroke-linecap="butt" stroke-dasharray="none">
   <path d="M-5.54328 -44.8158L0 -42.5197L-5.54328 -40.2236L-4.43462 -42.5197Z" fill="black"/>
  </g>
 </g>
 <g stroke-width="1.133858">
  <path d="M56.6929 -42.5197L72.1008 -42.5197" stroke="black"/>
  <g stroke-linecap="butt" stroke-dasharray="none">
   <path d="M70.9922 -44.8158L76.5354 -42.5197L70.9922 -40.2236L72.1008 -42.5197Z" fill="black"/>
  </g>
 </g>
 <g transform="matrix(1.000000,0.000000,0.000000,1.000000,79.370079,-40.535433)">
  <path d="M1.42538 -0M4.74294 -6.5056L4.58354 -6.65504C4.58354 -6.64508 4.20495 -6.17684 3.7666 -6.17684C3.53746 -6.17684 3.28839 -6.32628 3.11903 -6.4259C2.85004 -6.58531 2.67071 -6.65504 2.50134 -6.65504C2.12276 -6.65504 1.93347 -6.43587 1.42538 -5.87796L1.58478 -5.72852C1.58478 -5.73848 1.96336 -6.20672 2.40172 -6.20672C2.63086 -6.20672 2.87992 -6.05729 3.04929 -5.95766C3.31828 -5.79826 3.49761 -5.72852 3.66697 -5.72852C4.04555 -5.72852 4.23484 -5.9477 4.74294 -6.5056ZM4.74294 -6.5056" fill="black"/>
  <path d="M0.428394 -0M1.32503 -0.826899C1.86301 -1.40473 2.15193 -1.6538 2.51059 -1.96264C2.51059 -1.9726 3.12827 -2.50062 3.48692 -2.85928C4.43337 -3.7858 4.65255 -4.26401 4.65255 -4.30386C4.65255 -4.40349 4.56289 -4.40349 4.54296 -4.40349C4.47323 -4.40349 4.44334 -4.38356 4.39352 -4.2939C4.09465 -3.81569 3.88543 -3.65629 3.64633 -3.65629C3.40722 -3.65629 3.28767 -3.80573 3.13823 -3.97509C2.94894 -4.20423 2.77958 -4.40349 2.45081 -4.40349C1.70361 -4.40349 1.24533 -3.47696 1.24533 -3.26775C1.24533 -3.21793 1.27522 -3.15816 1.36488 -3.15816C1.45455 -3.15816 1.47447 -3.20797 1.4944 -3.26775C1.68369 -3.72603 2.26152 -3.73599 2.34122 -3.73599C2.55044 -3.73599 2.73973 -3.66625 2.96887 -3.58655C3.36737 -3.43711 3.47696 -3.43711 3.73599 -3.43711C3.37733 -3.00872 2.54047 -2.29141 2.35118 -2.132L1.45455 -1.29514C0.777086 -0.627646 0.428394 -0.0597758 0.428394 0.00996264C0.428394 0.109589 0.52802 0.109589 0.547945 0.109589C0.627646 0.109589 0.647572 0.0896638 0.707347 -0.0199253C0.936488 -0.368618 1.23537 -0.637609 1.55417 -0.637609C1.78331 -0.637609 1.88294 -0.547945 2.132 -0.259029C2.30137 -0.0498132 2.4807 0.109589 2.76961 0.109589C3.75592 0.109589 4.33375 -1.15567 4.33375 -1.42466C4.33375 -1.47447 4.2939 -1.52428 4.2142 -1.52428C4.12453 -1.52428 4.10461 -1.46451 4.07472 -1.39477C3.84558 -0.747198 3.20797 -0.557908 2.8792 -0.557908C2.67995 -0.557908 2.50062 -0.617684 2.29141 -0.687422C1.95268 -0.816936 1.80324 -0.856787 1.59402 -0.856787C1.5741 -0.856787 1.41469 -0.856787 1.32503 -0.826899ZM1.32503 -0.826899" fill="black"/>
 </g>
 <g stroke-width="1.133858">
  <path d="M87.874 -42.5197L103.282 -42.5197" stroke="black"/>
  <g stroke-linecap="butt" stroke-dasharray="none">
   <path d="M102.173 -44.8158L107.717 -42.5197L102.173 -40.2236L103.282 -42.5197Z" fill="black"/>
  </g>
 </g>
 <g stroke-width="1.133858">
  <path d="M-14.1732 -42.5197L-14.1732 -62.3622L99.2126 -62.3622L99.2126 -42.5197" stroke="black"/>
 </g>
 <g stroke-width="1.133858">
  <path d="M178.583 -42.5197L193.991 -42.5197" stroke="black"/>
  <g stroke-linecap="butt" stroke-dasharray="none">
   <path d="M192.882 -44.8158L198.425 -42.5197L192.882 -40.2236L193.991 -42.5197Z" fill="black"/>
  </g>
 </g>
 <g transform="matrix(1.000000,0.000000,0.000000,1.000000,201.259843,-40.535433)">
  <path d="M0.348692 -0M2.26152 -3.14819L3.94521 -3.14819C5.14072 -3.14819 6.21669 -3.95517 6.21669 -4.95143C6.21669 -5.92777 5.23039 -6.80448 3.8655 -6.80448L0.348692 -6.80448L0.348692 -6.49564L0.587796 -6.49564C1.35492 -6.49564 1.37484 -6.38605 1.37484 -6.0274L1.37484 -0.777086C1.37484 -0.418431 1.35492 -0.308842 0.587796 -0.308842L0.348692 -0.308842L0.348692 -0C0.697385 -0.0298879 1.43462 -0.0298879 1.8132 -0.0298879C2.19178 -0.0298879 2.93898 -0.0298879 3.28767 -0L3.28767 -0.308842L3.04857 -0.308842C2.28144 -0.308842 2.26152 -0.418431 2.26152 -0.777086ZM2.26152 -0.777086M2.23163 -3.40722L2.23163 -6.09714C2.23163 -6.4259 2.25156 -6.49564 2.7198 -6.49564L3.60648 -6.49564C5.19054 -6.49564 5.19054 -5.4396 5.19054 -4.95143C5.19054 -4.48319 5.19054 -3.40722 3.60648 -3.40722ZM3.60648 -3.40722M7.05355 -0M8.43836 -3.3076L8.43836 -4.40349L7.05355 -4.2939L7.05355 -3.98506C7.75093 -3.98506 7.83064 -3.91532 7.83064 -3.42715L7.83064 -0.757161C7.83064 -0.308842 7.72105 -0.308842 7.05355 -0.308842L7.05355 -0C7.44209 -0.00996264 7.91034 -0.0298879 8.18929 -0.0298879C8.5878 -0.0298879 9.05604 -0.0298879 9.45455 -0L9.45455 -0.308842L9.24533 -0.308842C8.50809 -0.308842 8.48817 -0.418431 8.48817 -0.777086L8.48817 -2.31133C8.48817 -3.29763 8.9066 -4.18431 9.66376 -4.18431C9.7335 -4.18431 9.75342 -4.18431 9.77335 -4.17435C9.74346 -4.16438 9.54421 -4.04483 9.54421 -3.7858C9.54421 -3.50685 9.75342 -3.35741 9.9726 -3.35741C10.1519 -3.35741 10.401 -3.47696 10.401 -3.79577C10.401 -4.11457 10.0922 -4.40349 9.66376 -4.40349C8.93649 -4.40349 8.57783 -3.73599 8.43836 -3.3076ZM8.43836 -3.3076M11.6563 -0M13.9676 2.39103C13.9676 2.36115 13.9676 2.34122 13.7983 2.17186C12.5529 0.916563 12.2341 -0.966376 12.2341 -2.49066C12.2341 -4.22416 12.6127 -5.95766 13.8381 -7.20299C13.9676 -7.32254 13.9676 -7.34247 13.9676 -7.37235C13.9676 -7.44209 13.9278 -7.47198 13.868 -7.47198C13.7684 -7.47198 12.8717 -6.79452 12.2839 -5.52927C11.7758 -4.43337 11.6563 -3.32752 11.6563 -2.49066C11.6563 -1.71357 11.7659 -0.508095 12.3138 0.617684C12.9116 1.84309 13.7684 2.49066 13.868 2.49066C13.9278 2.49066 13.9676 2.46077 13.9676 2.39103ZM13.9676 2.39103M14.8941 -0M21.1706 -6.74471L15.0834 -6.74471L14.8941 -4.50311L15.1432 -4.50311C15.2827 -6.1071 15.4321 -6.43587 16.9365 -6.43587C17.1158 -6.43587 17.3748 -6.43587 17.4745 -6.41594C17.6837 -6.37609 17.6837 -6.2665 17.6837 -6.03736L17.6837 -0.787049C17.6837 -0.448319 17.6837 -0.308842 16.6376 -0.308842L16.2391 -0.308842L16.2391 -0C16.6476 -0.0298879 17.6638 -0.0298879 18.122 -0.0298879C18.5803 -0.0298879 19.6065 -0.0298879 20.0149 -0L20.0149 -0.308842L19.6164 -0.308842C18.5704 -0.308842 18.5704 -0.448319 18.5704 -0.787049L18.5704 -6.03736C18.5704 -6.23661 18.5704 -6.37609 18.7497 -6.41594C18.8593 -6.43587 19.1283 -6.43587 19.3176 -6.43587C20.8219 -6.43587 20.9714 -6.1071 21.1108 -4.50311L21.3599 -4.50311ZM21.3599 -4.50311" fill="black"/>
  <path d="M21.2005 -0M22.5853 -3.3076L22.5853 -4.40349L21.2005 -4.2939L21.2005 -3.98506C21.8979 -3.98506 21.9776 -3.91532 21.9776 -3.42715L21.9776 -0.757161C21.9776 -0.308842 21.868 -0.308842 21.2005 -0.308842L21.2005 -0C21.5891 -0.00996264 22.0573 -0.0298879 22.3363 -0.0298879C22.7348 -0.0298879 23.203 -0.0298879 23.6015 -0L23.6015 -0.308842L23.3923 -0.308842C22.6551 -0.308842 22.6351 -0.418431 22.6351 -0.777086L22.6351 -2.31133C22.6351 -3.29763 23.0536 -4.18431 23.8107 -4.18431C23.8805 -4.18431 23.9004 -4.18431 23.9203 -4.17435C23.8904 -4.16438 23.6912 -4.04483 23.6912 -3.7858C23.6912 -3.50685 23.9004 -3.35741 24.1196 -3.35741C24.2989 -3.35741 24.548 -3.47696 24.548 -3.79577C24.548 -4.11457 24.2391 -4.40349 23.8107 -4.40349C23.0835 -4.40349 22.7248 -3.73599 22.5853 -3.3076ZM22.5853 -3.3076M25.1358 -0M28.7124 -0.787049L28.7124 0.109589L30.147 -0L30.147 -0.308842C29.4496 -0.308842 29.3699 -0.37858 29.3699 -0.86675L29.3699 -4.40349L27.9054 -4.2939L27.9054 -3.98506C28.6028 -3.98506 28.6825 -3.91532 28.6825 -3.42715L28.6825 -1.6538C28.6825 -0.787049 28.2043 -0.109589 27.477 -0.109589C26.6401 -0.109589 26.6003 -0.577833 26.6003 -1.09589L26.6003 -4.40349L25.1358 -4.2939L25.1358 -3.98506C25.9129 -3.98506 25.9129 -3.95517 25.9129 -3.06849L25.9129 -1.5741C25.9129 -0.797011 25.9129 0.109589 27.4272 0.109589C27.9851 0.109589 28.4234 -0.169365 28.7124 -0.787049ZM28.7124 -0.787049M30.6252 -0M31.462 -2.51059C31.5218 -3.99502 32.3587 -4.24408 32.6974 -4.24408C33.7236 -4.24408 33.8232 -2.89913 33.8232 -2.51059ZM33.8232 -2.51059M31.4521 -2.30137L34.2317 -2.30137C34.4508 -2.30137 34.4807 -2.30137 34.4807 -2.51059C34.4807 -3.49689 33.9427 -4.46326 32.6974 -4.46326C31.5417 -4.46326 30.6252 -3.43711 30.6252 -2.19178C30.6252 -0.856787 31.6713 0.109589 32.817 0.109589C34.0324 0.109589 34.4807 -0.996264 34.4807 -1.18555C34.4807 -1.28518 34.401 -1.30511 34.3512 -1.30511C34.2615 -1.30511 34.2416 -1.24533 34.2217 -1.16563C33.873 -0.139477 32.9764 -0.139477 32.8767 -0.139477C32.3786 -0.139477 31.9801 -0.438356 31.751 -0.806974C31.4521 -1.28518 31.4521 -1.94271 31.4521 -2.30137ZM31.4521 -2.30137M35.3375 -0M37.6488 -2.49066C37.6488 -3.26775 37.5393 -4.47323 36.9913 -5.599C36.3936 -6.82441 35.5368 -7.47198 35.4371 -7.47198C35.3774 -7.47198 35.3375 -7.43213 35.3375 -7.37235C35.3375 -7.34247 35.3375 -7.32254 35.5268 -7.14321C36.5031 -6.15691 37.071 -4.57285 37.071 -2.49066C37.071 -0.787049 36.7024 0.966376 35.467 2.22167C35.3375 2.34122 35.3375 2.36115 35.3375 2.39103C35.3375 2.45081 35.3774 2.49066 35.4371 2.49066C35.5368 2.49066 36.4334 1.8132 37.0212 0.547945C37.5293 -0.547945 37.6488 -1.6538 37.6488 -2.49066ZM37.6488 -2.49066" fill="black"/>
 </g>
</svg>
