<?xml version="1.0" encoding="utf-8"?>
<svg xmlns="http://www.w3.org/2000/svg" fill="none" version="1.1" viewBox="-227.772 -114.386 454.368 115.386" x="-227.772pt" y="-114.386pt" width="454.368pt" height="115.386pt" stroke-width="0.566929" stroke-miterlimit="10.000000">
 <g stroke-width="1.133858">
  <path d="M-155.906 -0L-99.2126 -0L-99.2126 -113.386L-155.906 -113.386Z" stroke="#f00" fill="#0ff"/>
 </g>
 <g stroke-width="1.133858">
  <path d="M99.2126 -0L155.906 -0L155.906 -113.386L99.2126 -113.386Z" stroke="#f00" fill="#ffe528"/>
 </g>
 <g stroke-width="1.133858">
  <path d="M-17.0079 -0L39.685 -0L39.685 -113.386L-17.0079 -113.386Z" stroke="#f00" fill="#4fff7f"/>
 </g>
 <g transform="matrix(1.000000,0.000000,0.000000,1.000000,-141.732283,-68.031496)">
  <path d="M0.328767 -0M1.35492 -0.777086C1.35492 -0.418431 1.33499 -0.308842 0.56787 -0.308842L0.328767 -0.308842L0.328767 -0L6.07721 -0L6.49564 -2.57036L6.24658 -2.57036C5.99751 -1.03611 5.76837 -0.308842 4.05479 -0.308842L2.72976 -0.308842C2.26152 -0.308842 2.24159 -0.37858 2.24159 -0.707347L2.24159 -3.36737L3.13823 -3.36737C4.10461 -3.36737 4.2142 -3.04857 4.2142 -2.20174L4.46326 -2.20174L4.46326 -4.84184L4.2142 -4.84184C4.2142 -3.98506 4.10461 -3.67621 3.13823 -3.67621L2.24159 -3.67621L2.24159 -6.06725C2.24159 -6.39601 2.26152 -6.46575 2.72976 -6.46575L4.01494 -6.46575C5.53923 -6.46575 5.80822 -5.91781 5.96762 -4.533L6.21669 -4.533L5.93773 -6.7746L0.328767 -6.7746L0.328767 -6.46575L0.56787 -6.46575C1.33499 -6.46575 1.35492 -6.35616 1.35492 -5.99751ZM1.35492 -5.99751M7.0934 -0M7.87049 -3.42715L7.87049 -0.757161C7.87049 -0.308842 7.7609 -0.308842 7.0934 -0.308842L7.0934 -0C7.44209 -0.00996264 7.95019 -0.0298879 8.21918 -0.0298879C8.47821 -0.0298879 8.99626 -0.00996264 9.33499 -0L9.33499 -0.308842C8.6675 -0.308842 8.55791 -0.308842 8.55791 -0.757161L8.55791 -2.59029C8.55791 -3.6264 9.26526 -4.18431 9.90286 -4.18431C10.5305 -4.18431 10.6401 -3.64633 10.6401 -3.07846L10.6401 -0.757161C10.6401 -0.308842 10.5305 -0.308842 9.86301 -0.308842L9.86301 -0C10.2117 -0.00996264 10.7198 -0.0298879 10.9888 -0.0298879C11.2478 -0.0298879 11.7659 -0.00996264 12.1046 -0L12.1046 -0.308842C11.5866 -0.308842 11.3375 -0.308842 11.3275 -0.607721L11.3275 -2.51059C11.3275 -3.36737 11.3275 -3.67621 11.0187 -4.03487C10.8792 -4.20423 10.5504 -4.40349 9.9726 -4.40349C9.24533 -4.40349 8.77709 -3.97509 8.49813 -3.35741L8.49813 -4.40349L7.0934 -4.2939L7.0934 -3.98506C7.79078 -3.98506 7.87049 -3.91532 7.87049 -3.42715ZM7.87049 -3.42715M12.6426 -0M13.4695 -2.17186C13.4695 -3.79577 14.2864 -4.2142 14.8144 -4.2142C14.9041 -4.2142 15.5318 -4.20423 15.8804 -3.84558C15.472 -3.81569 15.4122 -3.51681 15.4122 -3.3873C15.4122 -3.12827 15.5915 -2.92902 15.8705 -2.92902C16.1295 -2.92902 16.3288 -3.09838 16.3288 -3.39726C16.3288 -4.07472 15.5716 -4.46326 14.8045 -4.46326C13.5592 -4.46326 12.6426 -3.3873 12.6426 -2.15193C12.6426 -0.876712 13.6289 0.109589 14.7846 0.109589C16.1196 0.109589 16.4384 -1.08593 16.4384 -1.18555C16.4384 -1.28518 16.3387 -1.28518 16.3088 -1.28518C16.2192 -1.28518 16.1993 -1.24533 16.1793 -1.18555C15.8904 -0.259029 15.2428 -0.139477 14.8742 -0.139477C14.3462 -0.139477 13.4695 -0.56787 13.4695 -2.17186ZM13.4695 -2.17186M17.0062 -0M21.4197 -2.132C21.4197 -3.40722 20.4234 -4.46326 19.2179 -4.46326C17.9726 -4.46326 17.0062 -3.37733 17.0062 -2.132C17.0062 -0.846824 18.0423 0.109589 19.208 0.109589C20.4134 0.109589 21.4197 -0.86675 21.4197 -2.132ZM21.4197 -2.132M19.2179 -0.139477C18.7895 -0.139477 18.3512 -0.348692 18.0822 -0.806974C17.8331 -1.24533 17.8331 -1.85305 17.8331 -2.21171C17.8331 -2.60025 17.8331 -3.13823 18.0722 -3.57659C18.3412 -4.03487 18.8095 -4.24408 19.208 -4.24408C19.6463 -4.24408 20.0747 -4.02491 20.3337 -3.59651C20.5928 -3.16812 20.5928 -2.59029 20.5928 -2.21171C20.5928 -1.85305 20.5928 -1.31507 20.3736 -0.876712C20.1544 -0.428394 19.7161 -0.139477 19.2179 -0.139477ZM19.2179 -0.139477" fill="black"/>
  <path d="M22.3396 -0M25.7867 -0.547945L25.7867 0.109589L27.2512 -0L27.2512 -0.308842C26.5538 -0.308842 26.4741 -0.37858 26.4741 -0.86675L26.4741 -6.91407L25.0395 -6.80448L25.0395 -6.49564C25.7369 -6.49564 25.8166 -6.4259 25.8166 -5.93773L25.8166 -3.7858C25.5277 -4.14446 25.0993 -4.40349 24.5613 -4.40349C23.3857 -4.40349 22.3396 -3.42715 22.3396 -2.14197C22.3396 -0.876712 23.316 0.109589 24.4517 0.109589C25.0893 0.109589 25.5376 -0.229141 25.7867 -0.547945ZM25.7867 -0.547945M25.7867 -3.21793L25.7867 -1.17559C25.7867 -0.996264 25.7867 -0.976339 25.6771 -0.806974C25.3782 -0.328767 24.9299 -0.109589 24.5015 -0.109589C24.0532 -0.109589 23.6945 -0.368618 23.4554 -0.747198C23.1964 -1.15567 23.1665 -1.72354 23.1665 -2.132C23.1665 -2.50062 23.1864 -3.09838 23.4754 -3.5467C23.6846 -3.85554 24.0632 -4.18431 24.6011 -4.18431C24.9498 -4.18431 25.3683 -4.03487 25.6771 -3.58655C25.7867 -3.41719 25.7867 -3.39726 25.7867 -3.21793ZM25.7867 -3.21793M27.8091 -0M28.646 -2.51059C28.7057 -3.99502 29.5426 -4.24408 29.8813 -4.24408C30.9075 -4.24408 31.0071 -2.89913 31.0071 -2.51059ZM31.0071 -2.51059M28.636 -2.30137L31.4156 -2.30137C31.6348 -2.30137 31.6646 -2.30137 31.6646 -2.51059C31.6646 -3.49689 31.1267 -4.46326 29.8813 -4.46326C28.7257 -4.46326 27.8091 -3.43711 27.8091 -2.19178C27.8091 -0.856787 28.8552 0.109589 30.0009 0.109589C31.2163 0.109589 31.6646 -0.996264 31.6646 -1.18555C31.6646 -1.28518 31.5849 -1.30511 31.5351 -1.30511C31.4455 -1.30511 31.4255 -1.24533 31.4056 -1.16563C31.0569 -0.139477 30.1603 -0.139477 30.0607 -0.139477C29.5625 -0.139477 29.164 -0.438356 28.9349 -0.806974C28.636 -1.28518 28.636 -1.94271 28.636 -2.30137ZM28.636 -2.30137M32.2325 -0M33.6173 -3.3076L33.6173 -4.40349L32.2325 -4.2939L32.2325 -3.98506C32.9299 -3.98506 33.0096 -3.91532 33.0096 -3.42715L33.0096 -0.757161C33.0096 -0.308842 32.9 -0.308842 32.2325 -0.308842L32.2325 -0C32.6211 -0.00996264 33.0893 -0.0298879 33.3683 -0.0298879C33.7668 -0.0298879 34.235 -0.0298879 34.6335 -0L34.6335 -0.308842L34.4243 -0.308842C33.6871 -0.308842 33.6671 -0.418431 33.6671 -0.777086L33.6671 -2.31133C33.6671 -3.29763 34.0856 -4.18431 34.8427 -4.18431C34.9125 -4.18431 34.9324 -4.18431 34.9523 -4.17435C34.9224 -4.16438 34.7232 -4.04483 34.7232 -3.7858C34.7232 -3.50685 34.9324 -3.35741 35.1516 -3.35741C35.3309 -3.35741 35.58 -3.47696 35.58 -3.79577C35.58 -4.11457 35.2711 -4.40349 34.8427 -4.40349C34.1155 -4.40349 33.7568 -3.73599 33.6173 -3.3076ZM33.6173 -3.3076" fill="black"/>
 </g>
 <g transform="matrix(1.000000,0.000000,0.000000,1.000000,-133.228346,-45.354331)">
  <path d="M0.37858 -0M7.05355 -2.3213C7.07347 -2.37111 7.10336 -2.44085 7.10336 -2.46077C7.10336 -2.47073 7.10336 -2.57036 6.98381 -2.57036C6.89415 -2.57036 6.87422 -2.51059 6.8543 -2.45081C6.20672 -0.976339 5.83811 -0.308842 4.1345 -0.308842L2.67995 -0.308842C2.54047 -0.308842 2.52055 -0.308842 2.46077 -0.318804C2.36115 -0.328767 2.33126 -0.33873 2.33126 -0.418431C2.33126 -0.448319 2.33126 -0.468244 2.38107 -0.647572L3.05853 -3.36737L4.04483 -3.36737C4.89166 -3.36737 4.89166 -3.15816 4.89166 -2.90909C4.89166 -2.83935 4.89166 -2.7198 4.82192 -2.42092C4.80199 -2.37111 4.79203 -2.34122 4.79203 -2.31133C4.79203 -2.26152 4.83188 -2.20174 4.92154 -2.20174C5.00125 -2.20174 5.03113 -2.25156 5.07098 -2.401L5.63885 -4.73225C5.63885 -4.79203 5.58904 -4.84184 5.5193 -4.84184C5.42964 -4.84184 5.40971 -4.78207 5.37983 -4.66252C5.17061 -3.90535 4.99128 -3.67621 4.07472 -3.67621L3.13823 -3.67621L3.73599 -6.07721C3.82565 -6.4259 3.83562 -6.46575 4.27397 -6.46575L5.6787 -6.46575C6.89415 -6.46575 7.19303 -6.17684 7.19303 -5.3599C7.19303 -5.1208 7.19303 -5.10087 7.15318 -4.83188C7.15318 -4.7721 7.14321 -4.70237 7.14321 -4.65255C7.14321 -4.60274 7.1731 -4.533 7.26276 -4.533C7.37235 -4.533 7.38232 -4.59278 7.40224 -4.78207L7.60149 -6.5056C7.63138 -6.7746 7.58157 -6.7746 7.3325 -6.7746L2.30137 -6.7746C2.10212 -6.7746 2.00249 -6.7746 2.00249 -6.57534C2.00249 -6.46575 2.09215 -6.46575 2.28144 -6.46575C2.65006 -6.46575 2.92902 -6.46575 2.92902 -6.28643C2.92902 -6.24658 2.92902 -6.22665 2.8792 -6.04732L1.56413 -0.777086C1.46451 -0.388543 1.44458 -0.308842 0.657534 -0.308842C0.488169 -0.308842 0.37858 -0.308842 0.37858 -0.119552C0.37858 -0 0.468244 -0 0.657534 -0L5.82814 -0C6.05729 -0 6.06725 -0.00996264 6.13699 -0.169365ZM6.13699 -0.169365" fill="black"/>
  <path d="M7.84253 1.49438M10.7855 -3.25481C10.7855 -3.34547 10.7018 -3.34547 10.6669 -3.34547C10.5623 -3.34547 10.5554 -3.3106 10.5275 -3.19205L10.13 -1.59503C8.89558 -1.53924 7.84253 -0.653564 7.84253 0.280931C7.84253 1.06898 8.56084 1.5432 9.33494 1.57109C9.27915 1.78728 9.23033 2.01045 9.17454 2.22663C9.09085 2.55441 9.02809 2.81244 9.02809 2.83336C9.02809 2.91705 9.11875 2.91705 9.13967 2.91705C9.24428 2.91705 9.25125 2.89612 9.28612 2.74967L9.57902 1.57807C10.7715 1.52925 11.8664 0.650545 11.8664 -0.297898C11.8664 -1.03015 11.2248 -1.55319 10.374 -1.58806ZM10.374 -1.58806M9.38375 1.37583C8.84677 1.34793 8.35162 1.05503 8.35162 0.399487C8.35162 -0.297898 8.88164 -1.28121 10.0742 -1.39279ZM10.0742 -1.39279M10.3182 -1.39279C10.8552 -1.37187 11.3574 -1.07897 11.3574 -0.416454C11.3574 0.343696 10.7576 1.27819 9.62784 1.37583ZM9.62784 1.37583" fill="black"/>
 </g>
 <g transform="matrix(1.000000,0.000000,0.000000,1.000000,113.385827,-68.031496)">
  <path d="M0.348692 -0M0.348692 -6.80448L0.348692 -6.49564L0.587796 -6.49564C1.35492 -6.49564 1.37484 -6.38605 1.37484 -6.0274L1.37484 -0.777086C1.37484 -0.418431 1.35492 -0.308842 0.587796 -0.308842L0.348692 -0.308842L0.348692 -0L3.99502 -0C5.66874 -0 7.04359 -1.47447 7.04359 -3.34745C7.04359 -5.24035 5.69863 -6.80448 3.99502 -6.80448ZM3.99502 -6.80448M2.7198 -0.308842C2.25156 -0.308842 2.23163 -0.37858 2.23163 -0.707347L2.23163 -6.09714C2.23163 -6.4259 2.25156 -6.49564 2.7198 -6.49564L3.71606 -6.49564C4.33375 -6.49564 5.02117 -6.27646 5.52927 -5.56912C5.95766 -4.98132 6.04732 -4.12453 6.04732 -3.34745C6.04732 -2.24159 5.85803 -1.64384 5.49938 -1.15567C5.30012 -0.886675 4.73225 -0.308842 3.72603 -0.308842ZM3.72603 -0.308842M7.88045 -0M8.71731 -2.51059C8.77709 -3.99502 9.61395 -4.24408 9.95268 -4.24408C10.9788 -4.24408 11.0785 -2.89913 11.0785 -2.51059ZM11.0785 -2.51059M8.70735 -2.30137L11.4869 -2.30137C11.7061 -2.30137 11.736 -2.30137 11.736 -2.51059C11.736 -3.49689 11.198 -4.46326 9.95268 -4.46326C8.79701 -4.46326 7.88045 -3.43711 7.88045 -2.19178C7.88045 -0.856787 8.92653 0.109589 10.0722 0.109589C11.2877 0.109589 11.736 -0.996264 11.736 -1.18555C11.736 -1.28518 11.6563 -1.30511 11.6065 -1.30511C11.5168 -1.30511 11.4969 -1.24533 11.477 -1.16563C11.1283 -0.139477 10.2316 -0.139477 10.132 -0.139477C9.63387 -0.139477 9.23537 -0.438356 9.00623 -0.806974C8.70735 -1.28518 8.70735 -1.94271 8.70735 -2.30137ZM8.70735 -2.30137M12.3636 -0M13.1905 -2.17186C13.1905 -3.79577 14.0075 -4.2142 14.5355 -4.2142C14.6252 -4.2142 15.2528 -4.20423 15.6015 -3.84558C15.193 -3.81569 15.1333 -3.51681 15.1333 -3.3873C15.1333 -3.12827 15.3126 -2.92902 15.5915 -2.92902C15.8506 -2.92902 16.0498 -3.09838 16.0498 -3.39726C16.0498 -4.07472 15.2927 -4.46326 14.5255 -4.46326C13.2802 -4.46326 12.3636 -3.3873 12.3636 -2.15193C12.3636 -0.876712 13.3499 0.109589 14.5056 0.109589C15.8406 0.109589 16.1594 -1.08593 16.1594 -1.18555C16.1594 -1.28518 16.0598 -1.28518 16.0299 -1.28518C15.9402 -1.28518 15.9203 -1.24533 15.9004 -1.18555C15.6115 -0.259029 14.9639 -0.139477 14.5953 -0.139477C14.0672 -0.139477 13.1905 -0.56787 13.1905 -2.17186ZM13.1905 -2.17186M16.7273 -0M21.1407 -2.132C21.1407 -3.40722 20.1445 -4.46326 18.939 -4.46326C17.6936 -4.46326 16.7273 -3.37733 16.7273 -2.132C16.7273 -0.846824 17.7634 0.109589 18.929 0.109589C20.1345 0.109589 21.1407 -0.86675 21.1407 -2.132ZM21.1407 -2.132M18.939 -0.139477C18.5106 -0.139477 18.0722 -0.348692 17.8032 -0.806974C17.5542 -1.24533 17.5542 -1.85305 17.5542 -2.21171C17.5542 -2.60025 17.5542 -3.13823 17.7933 -3.57659C18.0623 -4.03487 18.5305 -4.24408 18.929 -4.24408C19.3674 -4.24408 19.7958 -4.02491 20.0548 -3.59651C20.3138 -3.16812 20.3138 -2.59029 20.3138 -2.21171C20.3138 -1.85305 20.3138 -1.31507 20.0946 -0.876712C19.8755 -0.428394 19.4371 -0.139477 18.939 -0.139477ZM18.939 -0.139477" fill="black"/>
  <path d="M22.0629 -0M25.5099 -0.547945L25.5099 0.109589L26.9744 -0L26.9744 -0.308842C26.277 -0.308842 26.1973 -0.37858 26.1973 -0.86675L26.1973 -6.91407L24.7627 -6.80448L24.7627 -6.49564C25.4601 -6.49564 25.5398 -6.4259 25.5398 -5.93773L25.5398 -3.7858C25.2509 -4.14446 24.8225 -4.40349 24.2845 -4.40349C23.1089 -4.40349 22.0629 -3.42715 22.0629 -2.14197C22.0629 -0.876712 23.0392 0.109589 24.1749 0.109589C24.8125 0.109589 25.2609 -0.229141 25.5099 -0.547945ZM25.5099 -0.547945M25.5099 -3.21793L25.5099 -1.17559C25.5099 -0.996264 25.5099 -0.976339 25.4003 -0.806974C25.1015 -0.328767 24.6531 -0.109589 24.2247 -0.109589C23.7764 -0.109589 23.4178 -0.368618 23.1787 -0.747198C22.9196 -1.15567 22.8898 -1.72354 22.8898 -2.132C22.8898 -2.50062 22.9097 -3.09838 23.1986 -3.5467C23.4078 -3.85554 23.7864 -4.18431 24.3244 -4.18431C24.6731 -4.18431 25.0915 -4.03487 25.4003 -3.58655C25.5099 -3.41719 25.5099 -3.39726 25.5099 -3.21793ZM25.5099 -3.21793M27.5323 -0M28.3692 -2.51059C28.429 -3.99502 29.2658 -4.24408 29.6046 -4.24408C30.6307 -4.24408 30.7303 -2.89913 30.7303 -2.51059ZM30.7303 -2.51059M28.3592 -2.30137L31.1388 -2.30137C31.358 -2.30137 31.3879 -2.30137 31.3879 -2.51059C31.3879 -3.49689 30.8499 -4.46326 29.6046 -4.46326C28.4489 -4.46326 27.5323 -3.43711 27.5323 -2.19178C27.5323 -0.856787 28.5784 0.109589 29.7241 0.109589C30.9396 0.109589 31.3879 -0.996264 31.3879 -1.18555C31.3879 -1.28518 31.3082 -1.30511 31.2584 -1.30511C31.1687 -1.30511 31.1488 -1.24533 31.1289 -1.16563C30.7802 -0.139477 29.8835 -0.139477 29.7839 -0.139477C29.2858 -0.139477 28.8873 -0.438356 28.6581 -0.806974C28.3592 -1.28518 28.3592 -1.94271 28.3592 -2.30137ZM28.3592 -2.30137M31.9558 -0M33.3406 -3.3076L33.3406 -4.40349L31.9558 -4.2939L31.9558 -3.98506C32.6531 -3.98506 32.7328 -3.91532 32.7328 -3.42715L32.7328 -0.757161C32.7328 -0.308842 32.6233 -0.308842 31.9558 -0.308842L31.9558 -0C32.3443 -0.00996264 32.8125 -0.0298879 33.0915 -0.0298879C33.49 -0.0298879 33.9582 -0.0298879 34.3567 -0L34.3567 -0.308842L34.1475 -0.308842C33.4103 -0.308842 33.3904 -0.418431 33.3904 -0.777086L33.3904 -2.31133C33.3904 -3.29763 33.8088 -4.18431 34.566 -4.18431C34.6357 -4.18431 34.6556 -4.18431 34.6756 -4.17435C34.6457 -4.16438 34.4464 -4.04483 34.4464 -3.7858C34.4464 -3.50685 34.6556 -3.35741 34.8748 -3.35741C35.0541 -3.35741 35.3032 -3.47696 35.3032 -3.79577C35.3032 -4.11457 34.9944 -4.40349 34.566 -4.40349C33.8387 -4.40349 33.48 -3.73599 33.3406 -3.3076ZM33.3406 -3.3076" fill="black"/>
 </g>
 <g transform="matrix(1.000000,0.000000,0.000000,1.000000,120.472441,-45.354331)">
  <path d="M0.398506 -0M1.58406 -0.777086C1.48443 -0.388543 1.46451 -0.308842 0.67746 -0.308842C0.508095 -0.308842 0.398506 -0.308842 0.398506 -0.119552C0.398506 -0 0.488169 -0 0.67746 -0L3.97509 -0C6.04732 -0 8.00996 -2.10212 8.00996 -4.28394C8.00996 -5.68867 7.16314 -6.80448 5.66874 -6.80448L2.3213 -6.80448C2.132 -6.80448 2.02242 -6.80448 2.02242 -6.61519C2.02242 -6.49564 2.11208 -6.49564 2.31133 -6.49564C2.44085 -6.49564 2.62017 -6.48568 2.73973 -6.47572C2.89913 -6.45579 2.9589 -6.4259 2.9589 -6.31631C2.9589 -6.27646 2.94894 -6.24658 2.91905 -6.12702ZM2.91905 -6.12702M3.73599 -6.11706C3.82565 -6.46575 3.84558 -6.49564 4.27397 -6.49564L5.33998 -6.49564C6.31631 -6.49564 7.14321 -5.96762 7.14321 -4.65255C7.14321 -4.16438 6.94396 -2.53051 6.09714 -1.43462C5.80822 -1.066 5.02117 -0.308842 3.79577 -0.308842L2.66999 -0.308842C2.53051 -0.308842 2.51059 -0.308842 2.45081 -0.318804C2.35118 -0.328767 2.3213 -0.33873 2.3213 -0.418431C2.3213 -0.448319 2.3213 -0.468244 2.37111 -0.647572ZM2.37111 -0.647572" fill="black"/>
  <path d="M8.68758 1.49438M11.8119 -1.90188C11.8119 -2.63414 11.5329 -3.41521 10.8495 -3.41521C9.8034 -3.41521 8.68758 -1.54622 8.68758 0.0507943C8.68758 0.880682 9.00838 1.56412 9.64997 1.56412C10.71 1.56412 11.8119 -0.339741 11.8119 -1.90188ZM11.8119 -1.90188M9.47563 -1.05107C9.83129 -2.55742 10.431 -3.21994 10.8425 -3.21994C11.2888 -3.21994 11.2888 -2.44584 11.2888 -2.31334C11.2888 -2.04136 11.233 -1.63688 11.0866 -1.05107ZM11.0866 -1.05107M11.0238 -0.800015C10.8286 -0.0398658 10.6682 0.336722 10.4589 0.678441C10.2427 1.04108 9.9638 1.36885 9.65695 1.36885C9.27338 1.36885 9.21062 0.838839 9.21062 0.462251C9.21062 0.00197733 9.34312 -0.541983 9.41286 -0.800015ZM9.41286 -0.800015" fill="black"/>
 </g>
 <g transform="matrix(1.000000,0.000000,0.000000,1.000000,-2.834646,-68.031496)">
  <path d="M0.557908 -0M3.47696 -3.8655L2.20174 -4.17435C1.58406 -4.32379 1.19552 -4.86177 1.19552 -5.4396C1.19552 -6.13699 1.7335 -6.74471 2.51059 -6.74471C4.17435 -6.74471 4.39352 -5.11083 4.4533 -4.66252C4.46326 -4.60274 4.46326 -4.54296 4.57285 -4.54296C4.70237 -4.54296 4.70237 -4.59278 4.70237 -4.78207L4.70237 -6.78456C4.70237 -6.95392 4.70237 -7.02366 4.59278 -7.02366C4.52304 -7.02366 4.51308 -7.0137 4.44334 -6.89415L4.09465 -6.32628C3.79577 -6.61519 3.3873 -7.02366 2.50062 -7.02366C1.39477 -7.02366 0.557908 -6.14695 0.557908 -5.09091C0.557908 -4.26401 1.08593 -3.53674 1.86301 -3.26775C1.9726 -3.2279 2.4807 -3.10834 3.17808 -2.93898C3.44707 -2.86924 3.74595 -2.7995 4.02491 -2.43088C4.23412 -2.17186 4.33375 -1.84309 4.33375 -1.51432C4.33375 -0.806974 3.83562 -0.0896638 2.99875 -0.0896638C2.70984 -0.0896638 1.95268 -0.139477 1.42466 -0.627646C0.846824 -1.16563 0.816936 -1.80324 0.806974 -2.16189C0.797011 -2.26152 0.71731 -2.26152 0.687422 -2.26152C0.557908 -2.26152 0.557908 -2.19178 0.557908 -2.01245L0.557908 -0.0199253C0.557908 0.14944 0.557908 0.219178 0.667497 0.219178C0.737235 0.219178 0.747198 0.199253 0.816936 0.0896638C0.816936 0.0797011 0.846824 0.0498132 1.17559 -0.478207C1.48443 -0.139477 2.12204 0.219178 3.00872 0.219178C4.17435 0.219178 4.97136 -0.757161 4.97136 -1.85305C4.97136 -2.84932 4.31382 -3.66625 3.47696 -3.8655ZM3.47696 -3.8655M5.9477 -0M8.84682 -0.757161C8.88667 -0.358655 9.15567 0.0597758 9.62391 0.0597758C9.83313 0.0597758 10.4408 -0.0797011 10.4408 -0.886675L10.4408 -1.44458L10.1918 -1.44458L10.1918 -0.886675C10.1918 -0.308842 9.94271 -0.249066 9.83313 -0.249066C9.50436 -0.249066 9.46451 -0.697385 9.46451 -0.747198L9.46451 -2.73973C9.46451 -3.15816 9.46451 -3.5467 9.10585 -3.91532C8.71731 -4.30386 8.21918 -4.46326 7.74097 -4.46326C6.92403 -4.46326 6.23661 -3.99502 6.23661 -3.33748C6.23661 -3.03861 6.43587 -2.86924 6.69489 -2.86924C6.97385 -2.86924 7.15318 -3.06849 7.15318 -3.32752C7.15318 -3.44707 7.10336 -3.77584 6.64508 -3.7858C6.91407 -4.1345 7.40224 -4.24408 7.72105 -4.24408C8.20922 -4.24408 8.77709 -3.85554 8.77709 -2.96887L8.77709 -2.60025C8.26899 -2.57036 7.57161 -2.54047 6.94396 -2.24159C6.19676 -1.90286 5.9477 -1.38481 5.9477 -0.946451C5.9477 -0.139477 6.91407 0.109589 7.54172 0.109589C8.19925 0.109589 8.65753 -0.288917 8.84682 -0.757161ZM8.84682 -0.757161M8.77709 -2.39103L8.77709 -1.39477C8.77709 -0.448319 8.05978 -0.109589 7.61146 -0.109589C7.12329 -0.109589 6.71482 -0.458281 6.71482 -0.956413C6.71482 -1.50436 7.13325 -2.33126 8.77709 -2.39103ZM8.77709 -2.39103M10.8294 -0M11.6065 -3.42715L11.6065 -0.757161C11.6065 -0.308842 11.4969 -0.308842 10.8294 -0.308842L10.8294 -0C11.1781 -0.00996264 11.6862 -0.0298879 11.9552 -0.0298879C12.2142 -0.0298879 12.7323 -0.00996264 13.071 -0L13.071 -0.308842C12.4035 -0.308842 12.2939 -0.308842 12.2939 -0.757161L12.2939 -2.59029C12.2939 -3.6264 13.0012 -4.18431 13.6389 -4.18431C14.2665 -4.18431 14.3761 -3.64633 14.3761 -3.07846L14.3761 -0.757161C14.3761 -0.308842 14.2665 -0.308842 13.599 -0.308842L13.599 -0C13.9477 -0.00996264 14.4558 -0.0298879 14.7248 -0.0298879C14.9838 -0.0298879 15.5019 -0.00996264 15.8406 -0L15.8406 -0.308842C15.1731 -0.308842 15.0635 -0.308842 15.0635 -0.757161L15.0635 -2.59029C15.0635 -3.6264 15.7709 -4.18431 16.4085 -4.18431C17.0361 -4.18431 17.1457 -3.64633 17.1457 -3.07846L17.1457 -0.757161C17.1457 -0.308842 17.0361 -0.308842 16.3686 -0.308842L16.3686 -0C16.7173 -0.00996264 17.2254 -0.0298879 17.4944 -0.0298879C17.7534 -0.0298879 18.2715 -0.00996264 18.6102 -0L18.6102 -0.308842C18.0922 -0.308842 17.8431 -0.308842 17.8331 -0.607721L17.8331 -2.51059C17.8331 -3.36737 17.8331 -3.67621 17.5243 -4.03487C17.3848 -4.20423 17.056 -4.40349 16.4782 -4.40349C15.6413 -4.40349 15.203 -3.80573 15.0336 -3.42715C14.8941 -4.2939 14.1569 -4.40349 13.7086 -4.40349C12.9813 -4.40349 12.5131 -3.97509 12.2341 -3.35741L12.2341 -4.40349L10.8294 -4.2939L10.8294 -3.98506C11.5268 -3.98506 11.6065 -3.91532 11.6065 -3.42715ZM11.6065 -3.42715M19.0884 -0M20.523 -3.74595L20.523 -4.40349L19.0884 -4.2939L19.0884 -3.98506C19.7958 -3.98506 19.8655 -3.92528 19.8655 -3.48692L19.8655 1.17559C19.8655 1.62391 19.7559 1.62391 19.0884 1.62391L19.0884 1.93275C19.4271 1.92279 19.9452 1.90286 20.2042 1.90286C20.4732 1.90286 20.9813 1.92279 21.33 1.93275L21.33 1.62391C20.6625 1.62391 20.5529 1.62391 20.5529 1.17559L20.5529 -0.498132L20.5529 -0.587796C20.6027 -0.428394 21.0212 0.109589 21.7783 0.109589C22.9639 0.109589 24 -0.86675 24 -2.15193C24 -3.41719 23.0336 -4.40349 21.9178 -4.40349C21.1407 -4.40349 20.7223 -3.96513 20.523 -3.74595ZM20.523 -3.74595M20.5529 -1.13574L20.5529 -3.35741C20.8418 -3.8655 21.33 -4.15442 21.8381 -4.15442C22.5654 -4.15442 23.1731 -3.27771 23.1731 -2.15193C23.1731 -0.946451 22.4757 -0.109589 21.7385 -0.109589C21.34 -0.109589 20.9614 -0.308842 20.6924 -0.71731C20.5529 -0.926526 20.5529 -0.936488 20.5529 -1.13574ZM20.5529 -1.13574M24.6675 -0M26.1021 -6.91407L24.6675 -6.80448L24.6675 -6.49564C25.3649 -6.49564 25.4446 -6.4259 25.4446 -5.93773L25.4446 -0.757161C25.4446 -0.308842 25.335 -0.308842 24.6675 -0.308842L24.6675 -0C24.9963 -0.00996264 25.5243 -0.0298879 25.7733 -0.0298879C26.0224 -0.0298879 26.5106 -0.00996264 26.8792 -0L26.8792 -0.308842C26.2117 -0.308842 26.1021 -0.308842 26.1021 -0.757161ZM26.1021 -0.757161M27.3773 -0M28.2142 -2.51059C28.274 -3.99502 29.1108 -4.24408 29.4496 -4.24408C30.4757 -4.24408 30.5753 -2.89913 30.5753 -2.51059ZM30.5753 -2.51059M28.2042 -2.30137L30.9838 -2.30137C31.203 -2.30137 31.2329 -2.30137 31.2329 -2.51059C31.2329 -3.49689 30.6949 -4.46326 29.4496 -4.46326C28.2939 -4.46326 27.3773 -3.43711 27.3773 -2.19178C27.3773 -0.856787 28.4234 0.109589 29.5691 0.109589C30.7846 0.109589 31.2329 -0.996264 31.2329 -1.18555C31.2329 -1.28518 31.1532 -1.30511 31.1034 -1.30511C31.0137 -1.30511 30.9938 -1.24533 30.9738 -1.16563C30.6252 -0.139477 29.7285 -0.139477 29.6289 -0.139477C29.1308 -0.139477 28.7323 -0.438356 28.5031 -0.806974C28.2042 -1.28518 28.2042 -1.94271 28.2042 -2.30137ZM28.2042 -2.30137M31.8007 -0M33.1856 -3.3076L33.1856 -4.40349L31.8007 -4.2939L31.8007 -3.98506C32.4981 -3.98506 32.5778 -3.91532 32.5778 -3.42715L32.5778 -0.757161C32.5778 -0.308842 32.4682 -0.308842 31.8007 -0.308842L31.8007 -0C32.1893 -0.00996264 32.6575 -0.0298879 32.9365 -0.0298879C33.335 -0.0298879 33.8032 -0.0298879 34.2017 -0L34.2017 -0.308842L33.9925 -0.308842C33.2553 -0.308842 33.2354 -0.418431 33.2354 -0.777086L33.2354 -2.31133C33.2354 -3.29763 33.6538 -4.18431 34.411 -4.18431C34.4807 -4.18431 34.5006 -4.18431 34.5205 -4.17435C34.4907 -4.16438 34.2914 -4.04483 34.2914 -3.7858C34.2914 -3.50685 34.5006 -3.35741 34.7198 -3.35741C34.8991 -3.35741 35.1482 -3.47696 35.1482 -3.79577C35.1482 -4.11457 34.8394 -4.40349 34.411 -4.40349C33.6837 -4.40349 33.325 -3.73599 33.1856 -3.3076ZM33.1856 -3.3076" fill="black"/>
 </g>
 <g transform="matrix(1.000000,0.000000,0.000000,1.000000,4.251969,-45.354331)">
  <path d="M0.518057 -0M6.4259 -6.92403C6.4259 -6.95392 6.40598 -7.02366 6.31631 -7.02366C6.2665 -7.02366 6.25654 -7.0137 6.13699 -6.87422L5.65878 -6.30635C5.39975 -6.7746 4.88169 -7.02366 4.23412 -7.02366C2.96887 -7.02366 1.77335 -5.87796 1.77335 -4.67248C1.77335 -3.8655 2.30137 -3.40722 2.80946 -3.25778L3.87547 -2.97883C4.24408 -2.88917 4.79203 -2.73973 4.79203 -1.92279C4.79203 -1.02615 3.97509 -0.0896638 2.99875 -0.0896638C2.36115 -0.0896638 1.25529 -0.308842 1.25529 -1.54421C1.25529 -1.78331 1.30511 -2.02242 1.31507 -2.08219C1.32503 -2.12204 1.33499 -2.132 1.33499 -2.15193C1.33499 -2.25156 1.26526 -2.26152 1.21544 -2.26152C1.16563 -2.26152 1.1457 -2.25156 1.11582 -2.22167C1.07597 -2.18182 0.518057 0.0896638 0.518057 0.119552C0.518057 0.179328 0.56787 0.219178 0.627646 0.219178C0.67746 0.219178 0.687422 0.209215 0.806974 0.0697385L1.29514 -0.498132C1.72354 0.0797011 2.401 0.219178 2.97883 0.219178C4.33375 0.219178 5.50934 -1.10585 5.50934 -2.34122C5.50934 -3.02864 5.17061 -3.36737 5.02117 -3.50685C4.79203 -3.73599 4.64259 -3.77584 3.75592 -4.00498C3.53674 -4.06476 3.17808 -4.16438 3.08842 -4.18431C2.81943 -4.27397 2.4807 -4.56289 2.4807 -5.09091C2.4807 -5.89788 3.27771 -6.74471 4.22416 -6.74471C5.05106 -6.74471 5.65878 -6.31631 5.65878 -5.2005C5.65878 -4.88169 5.61893 -4.70237 5.61893 -4.64259C5.61893 -4.63263 5.61893 -4.54296 5.73848 -4.54296C5.83811 -4.54296 5.84807 -4.57285 5.88792 -4.74222ZM5.88792 -4.74222" fill="black"/>
 </g>
 <g stroke-width="1.133858">
  <path d="M-212.598 -22.6772L-160.34 -22.6772" stroke="black"/>
  <g stroke-linecap="butt" stroke-dasharray="none">
   <path d="M-161.449 -24.9733L-155.906 -22.6772L-161.449 -20.3811L-160.34 -22.6772Z" fill="black"/>
  </g>
 </g>
 <g transform="matrix(1.000000,0.000000,0.000000,1.000000,-226.771654,-19.842520)">
  <path d="M0.288917 -0M3.32752 -3.00872C3.3873 -3.26775 3.61644 -4.18431 4.31382 -4.18431C4.36364 -4.18431 4.60274 -4.18431 4.81196 -4.05479C4.533 -4.00498 4.33375 -3.75592 4.33375 -3.51681C4.33375 -3.35741 4.44334 -3.16812 4.71233 -3.16812C4.93151 -3.16812 5.25031 -3.34745 5.25031 -3.74595C5.25031 -4.26401 4.66252 -4.40349 4.32379 -4.40349C3.74595 -4.40349 3.39726 -3.87547 3.27771 -3.64633C3.02864 -4.30386 2.49066 -4.40349 2.20174 -4.40349C1.16563 -4.40349 0.597758 -3.11831 0.597758 -2.86924C0.597758 -2.76961 0.697385 -2.76961 0.71731 -2.76961C0.797011 -2.76961 0.826899 -2.78954 0.846824 -2.8792C1.18555 -3.93524 1.84309 -4.18431 2.18182 -4.18431C2.37111 -4.18431 2.7198 -4.09465 2.7198 -3.51681C2.7198 -3.20797 2.55044 -2.54047 2.18182 -1.1457C2.02242 -0.52802 1.67372 -0.109589 1.23537 -0.109589C1.17559 -0.109589 0.946451 -0.109589 0.737235 -0.239103C0.986301 -0.288917 1.20548 -0.498132 1.20548 -0.777086C1.20548 -1.04608 0.986301 -1.12578 0.836862 -1.12578C0.537983 -1.12578 0.288917 -0.86675 0.288917 -0.547945C0.288917 -0.0896638 0.787049 0.109589 1.2254 0.109589C1.88294 0.109589 2.24159 -0.587796 2.27148 -0.647572C2.39103 -0.278954 2.74969 0.109589 3.34745 0.109589C4.3736 0.109589 4.94147 -1.17559 4.94147 -1.42466C4.94147 -1.52428 4.85181 -1.52428 4.82192 -1.52428C4.73225 -1.52428 4.71233 -1.48443 4.6924 -1.41469C4.36364 -0.348692 3.68618 -0.109589 3.36737 -0.109589C2.97883 -0.109589 2.81943 -0.428394 2.81943 -0.767123C2.81943 -0.986301 2.8792 -1.20548 2.98879 -1.64384ZM2.98879 -1.64384" fill="black"/>
  <path d="M5.9659 1.49438M9.38308 0.35067L9.38308 0.0996112L8.60899 0.0996112L8.60899 -3.01073C8.60899 -3.15718 8.60899 -3.20599 8.45556 -3.20599C8.37188 -3.20599 8.34398 -3.20599 8.27424 -3.10836L5.9659 0.0996112L5.9659 0.35067L8.01621 0.35067L8.01621 0.922525C8.01621 1.15964 8.01621 1.24332 7.45133 1.24332L7.26303 1.24332L7.26303 1.49438C7.61173 1.48043 8.05805 1.46649 8.30911 1.46649C8.56714 1.46649 9.01347 1.48043 9.36216 1.49438L9.36216 1.24332L9.17387 1.24332C8.60899 1.24332 8.60899 1.15964 8.60899 0.922525L8.60899 0.35067ZM8.60899 0.35067M8.06503 -2.45282L8.06503 0.0996112L6.22393 0.0996112ZM6.22393 0.0996112" fill="black"/>
 </g>
 <g stroke-width="1.133858">
  <path d="M-99.2126 -22.6772L-80.9701 -22.6772" stroke="black"/>
  <g stroke-linecap="butt" stroke-dasharray="none">
   <path d="M-82.0787 -24.9733L-76.5354 -22.6772L-82.0787 -20.3811L-80.9701 -22.6772Z" fill="black"/>
  </g>
 </g>
 <g stroke-width="1.133858">
  <path d="M76.5354 -22.6772L94.778 -22.6772" stroke="black"/>
  <g stroke-linecap="butt" stroke-dasharray="none">
   <path d="M93.6693 -24.9733L99.2126 -22.6772L93.6693 -20.3811L94.778 -22.6772Z" fill="black"/>
  </g>
 </g>
 <g transform="matrix(1.000000,0.000000,0.000000,1.000000,-75.118110,-19.842520)">
  <path d="M0.298879 -0M2.30137 -3.49689C2.35118 -3.7061 2.45081 -4.08468 2.45081 -4.1345C2.45081 -4.30386 2.33126 -4.40349 2.16189 -4.40349C2.132 -4.40349 1.85305 -4.39352 1.76339 -4.04483L0.328767 1.72354C0.298879 1.84309 0.298879 1.86301 0.298879 1.88294C0.298879 2.03238 0.408468 2.15193 0.577833 2.15193C0.787049 2.15193 0.9066 1.9726 0.926526 1.94271C0.966376 1.85305 1.09589 1.33499 1.47447 -0.199253C1.79328 0.0697385 2.24159 0.109589 2.44085 0.109589C3.13823 0.109589 3.52677 -0.33873 3.76588 -0.617684C3.85554 -0.169365 4.22416 0.109589 4.66252 0.109589C5.01121 0.109589 5.24035 -0.119552 5.39975 -0.438356C5.56912 -0.797011 5.69863 -1.40473 5.69863 -1.42466C5.69863 -1.52428 5.60897 -1.52428 5.57908 -1.52428C5.47945 -1.52428 5.46949 -1.48443 5.4396 -1.34496C5.27024 -0.697385 5.09091 -0.109589 4.68244 -0.109589C4.41345 -0.109589 4.38356 -0.368618 4.38356 -0.56787C4.38356 -0.787049 4.50311 -1.25529 4.58281 -1.60399L4.86177 -2.67995C4.89166 -2.82939 4.99128 -3.20797 5.03113 -3.35741C5.08095 -3.58655 5.18057 -3.96513 5.18057 -4.02491C5.18057 -4.20423 5.0411 -4.2939 4.89166 -4.2939C4.84184 -4.2939 4.58281 -4.28394 4.50311 -3.94521L4.03487 -2.08219C3.91532 -1.58406 3.80573 -1.16563 3.77584 -1.066C3.76588 -1.01619 3.28767 -0.109589 2.4807 -0.109589C1.98257 -0.109589 1.74346 -0.438356 1.74346 -0.976339C1.74346 -1.26526 1.8132 -1.54421 1.88294 -1.82316ZM1.88294 -1.82316" fill="black"/>
  <path d="M6.49114 1.49438M9.4341 -3.25481C9.4341 -3.34547 9.35042 -3.34547 9.31555 -3.34547C9.21094 -3.34547 9.20397 -3.3106 9.17607 -3.19205L8.77856 -1.59503C7.54419 -1.53924 6.49114 -0.653564 6.49114 0.280931C6.49114 1.06898 7.20945 1.5432 7.98354 1.57109C7.92775 1.78728 7.87894 2.01045 7.82315 2.22663C7.73946 2.55441 7.67669 2.81244 7.67669 2.83336C7.67669 2.91705 7.76735 2.91705 7.78828 2.91705C7.89288 2.91705 7.89986 2.89612 7.93473 2.74967L8.22763 1.57807C9.42016 1.52925 10.5151 0.650545 10.5151 -0.297898C10.5151 -1.03015 9.87346 -1.55319 9.02265 -1.58806ZM9.02265 -1.58806M8.03236 1.37583C7.49537 1.34793 7.00023 1.05503 7.00023 0.399487C7.00023 -0.297898 7.53024 -1.28121 8.72277 -1.39279ZM8.72277 -1.39279M8.96686 -1.39279C9.50384 -1.37187 10.006 -1.07897 10.006 -0.416454C10.006 0.343696 9.40621 1.27819 8.27645 1.37583ZM8.27645 1.37583" fill="black"/>
  <path d="M12.1483 -0M13.3139 -0.00996264C13.3139 -0.667497 13.0648 -1.05604 12.6763 -1.05604C12.3475 -1.05604 12.1483 -0.806974 12.1483 -0.52802C12.1483 -0.259029 12.3475 -0 12.6763 -0C12.7958 -0 12.9253 -0.0398506 13.025 -0.129514C13.0549 -0.14944 13.0648 -0.159402 13.0748 -0.159402C13.0847 -0.159402 13.0947 -0.14944 13.0947 -0.00996264C13.0947 0.727273 12.746 1.32503 12.4173 1.6538C12.3077 1.76339 12.3077 1.78331 12.3077 1.8132C12.3077 1.88294 12.3575 1.92279 12.4073 1.92279C12.5169 1.92279 13.3139 1.15567 13.3139 -0.00996264ZM13.3139 -0.00996264" fill="black"/>
  <path d="M16.0979 -0M20.8799 -3.71606C21.0094 -3.71606 21.3681 -3.71606 21.3681 -4.05479C21.3681 -4.2939 21.1589 -4.2939 20.9796 -4.2939L18.7081 -4.2939C17.2037 -4.2939 16.0979 -2.65006 16.0979 -1.46451C16.0979 -0.587796 16.6857 0.109589 17.5923 0.109589C18.7678 0.109589 20.0929 -1.09589 20.0929 -2.63014C20.0929 -2.7995 20.0929 -3.27771 19.784 -3.71606ZM19.784 -3.71606M17.6022 -0.109589C17.1141 -0.109589 16.7155 -0.468244 16.7155 -1.18555C16.7155 -1.48443 16.8351 -2.30137 17.1838 -2.88917C17.6022 -3.57659 18.2 -3.71606 18.5387 -3.71606C19.3756 -3.71606 19.4553 -3.05853 19.4553 -2.74969C19.4553 -2.28144 19.256 -1.46451 18.9173 -0.956413C18.5287 -0.368618 17.9908 -0.109589 17.6022 -0.109589ZM17.6022 -0.109589" fill="black"/>
  <path d="M22.2089 -3.61536M25.2913 -4.8846L25.0542 -4.8846C25.0333 -4.73118 24.9635 -4.31972 24.8729 -4.24998C24.8171 -4.20814 24.2801 -4.20814 24.1825 -4.20814L22.8993 -4.20814C23.6315 -4.85671 23.8756 -5.05198 24.294 -5.37975C24.8101 -5.7912 25.2913 -6.22358 25.2913 -6.8861C25.2913 -7.72993 24.5521 -8.246 23.6594 -8.246C22.7947 -8.246 22.2089 -7.63927 22.2089 -6.99768C22.2089 -6.64201 22.5087 -6.60714 22.5785 -6.60714C22.7458 -6.60714 22.9481 -6.7257 22.9481 -6.97676C22.9481 -7.10229 22.8993 -7.34637 22.5366 -7.34637C22.7528 -7.84152 23.227 -7.99494 23.5548 -7.99494C24.2522 -7.99494 24.6148 -7.45098 24.6148 -6.8861C24.6148 -6.27937 24.1825 -5.79818 23.9593 -5.54712L22.2786 -3.88734C22.2089 -3.82458 22.2089 -3.81063 22.2089 -3.61536L25.0821 -3.61536ZM25.0821 -3.61536" fill="black"/>
  <path d="M21.9002 2.82151M24.8432 -1.92768C24.8432 -2.01834 24.7595 -2.01834 24.7246 -2.01834C24.62 -2.01834 24.6131 -1.98347 24.5852 -1.86491L24.1877 -0.267903C22.9533 -0.212112 21.9002 0.673566 21.9002 1.60806C21.9002 2.39611 22.6185 2.87033 23.3926 2.89822C23.3368 3.11441 23.288 3.33758 23.2322 3.55377C23.1485 3.88154 23.0858 4.13957 23.0858 4.16049C23.0858 4.24418 23.1764 4.24418 23.1974 4.24418C23.302 4.24418 23.3089 4.22326 23.3438 4.0768L23.6367 2.9052C24.8292 2.85638 25.9241 1.97768 25.9241 1.02923C25.9241 0.296979 25.2825 -0.22606 24.4317 -0.260929ZM24.4317 -0.260929M23.4414 2.70296C22.9045 2.67506 22.4093 2.38216 22.4093 1.72662C22.4093 1.02923 22.9393 0.0459201 24.1319 -0.0656615ZM24.1319 -0.0656615M24.3759 -0.0656615C24.9129 -0.0447399 25.415 0.248162 25.415 0.910677C25.415 1.67083 24.8153 2.60532 23.6855 2.70296ZM23.6855 2.70296" fill="black"/>
 </g>
 <g stroke-width="1.133858">
  <path d="M-42.5197 -22.6772L-21.4425 -22.6772" stroke="black"/>
  <g stroke-linecap="butt" stroke-dasharray="none">
   <path d="M-22.5512 -24.9733L-17.0079 -22.6772L-22.5512 -20.3811L-21.4425 -22.6772Z" fill="black"/>
  </g>
 </g>
 <g stroke-width="1.133858" stroke-linecap="butt" stroke-dasharray="4.000000" stroke-dashoffset="0.000000">
  <path d="M42.5197 -22.6772L57.9276 -22.6772" stroke="black"/>
  <g stroke-linecap="butt" stroke-dasharray="none">
   <path d="M56.8189 -24.9733L62.3622 -22.6772L56.8189 -20.3811L57.9276 -22.6772Z" fill="black"/>
  </g>
 </g>
 <g transform="matrix(1.000000,0.000000,0.000000,1.000000,65.196850,-19.842520)">
  <path d="M0.428394 -0M1.32503 -0.826899C1.86301 -1.40473 2.15193 -1.6538 2.51059 -1.96264C2.51059 -1.9726 3.12827 -2.50062 3.48692 -2.85928C4.43337 -3.7858 4.65255 -4.26401 4.65255 -4.30386C4.65255 -4.40349 4.56289 -4.40349 4.54296 -4.40349C4.47323 -4.40349 4.44334 -4.38356 4.39352 -4.2939C4.09465 -3.81569 3.88543 -3.65629 3.64633 -3.65629C3.40722 -3.65629 3.28767 -3.80573 3.13823 -3.97509C2.94894 -4.20423 2.77958 -4.40349 2.45081 -4.40349C1.70361 -4.40349 1.24533 -3.47696 1.24533 -3.26775C1.24533 -3.21793 1.27522 -3.15816 1.36488 -3.15816C1.45455 -3.15816 1.47447 -3.20797 1.4944 -3.26775C1.68369 -3.72603 2.26152 -3.73599 2.34122 -3.73599C2.55044 -3.73599 2.73973 -3.66625 2.96887 -3.58655C3.36737 -3.43711 3.47696 -3.43711 3.73599 -3.43711C3.37733 -3.00872 2.54047 -2.29141 2.35118 -2.132L1.45455 -1.29514C0.777086 -0.627646 0.428394 -0.0597758 0.428394 0.00996264C0.428394 0.109589 0.52802 0.109589 0.547945 0.109589C0.627646 0.109589 0.647572 0.0896638 0.707347 -0.0199253C0.936488 -0.368618 1.23537 -0.637609 1.55417 -0.637609C1.78331 -0.637609 1.88294 -0.547945 2.132 -0.259029C2.30137 -0.0498132 2.4807 0.109589 2.76961 0.109589C3.75592 0.109589 4.33375 -1.15567 4.33375 -1.42466C4.33375 -1.47447 4.2939 -1.52428 4.2142 -1.52428C4.12453 -1.52428 4.10461 -1.46451 4.07472 -1.39477C3.84558 -0.747198 3.20797 -0.557908 2.8792 -0.557908C2.67995 -0.557908 2.50062 -0.617684 2.29141 -0.687422C1.95268 -0.816936 1.80324 -0.856787 1.59402 -0.856787C1.5741 -0.856787 1.41469 -0.856787 1.32503 -0.826899ZM1.32503 -0.826899" fill="black"/>
  <path d="M4.9051 1.49438M8.32229 0.35067L8.32229 0.0996112L7.54819 0.0996112L7.54819 -3.01073C7.54819 -3.15718 7.54819 -3.20599 7.39477 -3.20599C7.31108 -3.20599 7.28319 -3.20599 7.21345 -3.10836L4.9051 0.0996112L4.9051 0.35067L6.95541 0.35067L6.95541 0.922525C6.95541 1.15964 6.95541 1.24332 6.39053 1.24332L6.20224 1.24332L6.20224 1.49438C6.55093 1.48043 6.99726 1.46649 7.24832 1.46649C7.50635 1.46649 7.95267 1.48043 8.30137 1.49438L8.30137 1.24332L8.11307 1.24332C7.54819 1.24332 7.54819 1.15964 7.54819 0.922525L7.54819 0.35067ZM7.54819 0.35067M7.00423 -2.45282L7.00423 0.0996112L5.16314 0.0996112ZM5.16314 0.0996112" fill="black"/>
 </g>
 <g stroke-width="1.133858">
  <path d="M155.906 -22.6772L208.164 -22.6772" stroke="black"/>
  <g stroke-linecap="butt" stroke-dasharray="none">
   <path d="M207.055 -24.9733L212.598 -22.6772L207.055 -20.3811L208.164 -22.6772Z" fill="black"/>
  </g>
 </g>
 <g transform="matrix(1.000000,0.000000,0.000000,1.000000,215.433071,-19.842520)">
  <path d="M1.45995 -0M4.77751 -6.5056L4.6181 -6.65504C4.6181 -6.64508 4.23952 -6.17684 3.80117 -6.17684C3.57203 -6.17684 3.32296 -6.32628 3.1536 -6.4259C2.8846 -6.58531 2.70528 -6.65504 2.53591 -6.65504C2.15733 -6.65504 1.96804 -6.43587 1.45995 -5.87796L1.61935 -5.72852C1.61935 -5.73848 1.99793 -6.20672 2.43629 -6.20672C2.66543 -6.20672 2.91449 -6.05729 3.08386 -5.95766C3.35285 -5.79826 3.53218 -5.72852 3.70154 -5.72852C4.08012 -5.72852 4.26941 -5.9477 4.77751 -6.5056ZM4.77751 -6.5056" fill="black"/>
  <path d="M0.288917 -0M3.32752 -3.00872C3.3873 -3.26775 3.61644 -4.18431 4.31382 -4.18431C4.36364 -4.18431 4.60274 -4.18431 4.81196 -4.05479C4.533 -4.00498 4.33375 -3.75592 4.33375 -3.51681C4.33375 -3.35741 4.44334 -3.16812 4.71233 -3.16812C4.93151 -3.16812 5.25031 -3.34745 5.25031 -3.74595C5.25031 -4.26401 4.66252 -4.40349 4.32379 -4.40349C3.74595 -4.40349 3.39726 -3.87547 3.27771 -3.64633C3.02864 -4.30386 2.49066 -4.40349 2.20174 -4.40349C1.16563 -4.40349 0.597758 -3.11831 0.597758 -2.86924C0.597758 -2.76961 0.697385 -2.76961 0.71731 -2.76961C0.797011 -2.76961 0.826899 -2.78954 0.846824 -2.8792C1.18555 -3.93524 1.84309 -4.18431 2.18182 -4.18431C2.37111 -4.18431 2.7198 -4.09465 2.7198 -3.51681C2.7198 -3.20797 2.55044 -2.54047 2.18182 -1.1457C2.02242 -0.52802 1.67372 -0.109589 1.23537 -0.109589C1.17559 -0.109589 0.946451 -0.109589 0.737235 -0.239103C0.986301 -0.288917 1.20548 -0.498132 1.20548 -0.777086C1.20548 -1.04608 0.986301 -1.12578 0.836862 -1.12578C0.537983 -1.12578 0.288917 -0.86675 0.288917 -0.547945C0.288917 -0.0896638 0.787049 0.109589 1.2254 0.109589C1.88294 0.109589 2.24159 -0.587796 2.27148 -0.647572C2.39103 -0.278954 2.74969 0.109589 3.34745 0.109589C4.3736 0.109589 4.94147 -1.17559 4.94147 -1.42466C4.94147 -1.52428 4.85181 -1.52428 4.82192 -1.52428C4.73225 -1.52428 4.71233 -1.48443 4.6924 -1.41469C4.36364 -0.348692 3.68618 -0.109589 3.36737 -0.109589C2.97883 -0.109589 2.81943 -0.428394 2.81943 -0.767123C2.81943 -0.986301 2.8792 -1.20548 2.98879 -1.64384ZM2.98879 -1.64384" fill="black"/>
  <path d="M5.9659 1.49438M9.38308 0.35067L9.38308 0.0996112L8.60899 0.0996112L8.60899 -3.01073C8.60899 -3.15718 8.60899 -3.20599 8.45556 -3.20599C8.37188 -3.20599 8.34398 -3.20599 8.27424 -3.10836L5.9659 0.0996112L5.9659 0.35067L8.01621 0.35067L8.01621 0.922525C8.01621 1.15964 8.01621 1.24332 7.45133 1.24332L7.26303 1.24332L7.26303 1.49438C7.61173 1.48043 8.05805 1.46649 8.30911 1.46649C8.56714 1.46649 9.01347 1.48043 9.36216 1.49438L9.36216 1.24332L9.17387 1.24332C8.60899 1.24332 8.60899 1.15964 8.60899 0.922525L8.60899 0.35067ZM8.60899 0.35067M8.06503 -2.45282L8.06503 0.0996112L6.22393 0.0996112ZM6.22393 0.0996112" fill="black"/>
 </g>
 <g stroke-width="1.133858">
  <path d="M-212.598 -45.3543L-160.34 -45.3543" stroke="black"/>
  <g stroke-linecap="butt" stroke-dasharray="none">
   <path d="M-161.449 -47.6504L-155.906 -45.3543L-161.449 -43.0582L-160.34 -45.3543Z" fill="black"/>
  </g>
 </g>
 <g transform="matrix(1.000000,0.000000,0.000000,1.000000,-226.771654,-42.519685)">
  <path d="M0.288917 -0M3.32752 -3.00872C3.3873 -3.26775 3.61644 -4.18431 4.31382 -4.18431C4.36364 -4.18431 4.60274 -4.18431 4.81196 -4.05479C4.533 -4.00498 4.33375 -3.75592 4.33375 -3.51681C4.33375 -3.35741 4.44334 -3.16812 4.71233 -3.16812C4.93151 -3.16812 5.25031 -3.34745 5.25031 -3.74595C5.25031 -4.26401 4.66252 -4.40349 4.32379 -4.40349C3.74595 -4.40349 3.39726 -3.87547 3.27771 -3.64633C3.02864 -4.30386 2.49066 -4.40349 2.20174 -4.40349C1.16563 -4.40349 0.597758 -3.11831 0.597758 -2.86924C0.597758 -2.76961 0.697385 -2.76961 0.71731 -2.76961C0.797011 -2.76961 0.826899 -2.78954 0.846824 -2.8792C1.18555 -3.93524 1.84309 -4.18431 2.18182 -4.18431C2.37111 -4.18431 2.7198 -4.09465 2.7198 -3.51681C2.7198 -3.20797 2.55044 -2.54047 2.18182 -1.1457C2.02242 -0.52802 1.67372 -0.109589 1.23537 -0.109589C1.17559 -0.109589 0.946451 -0.109589 0.737235 -0.239103C0.986301 -0.288917 1.20548 -0.498132 1.20548 -0.777086C1.20548 -1.04608 0.986301 -1.12578 0.836862 -1.12578C0.537983 -1.12578 0.288917 -0.86675 0.288917 -0.547945C0.288917 -0.0896638 0.787049 0.109589 1.2254 0.109589C1.88294 0.109589 2.24159 -0.587796 2.27148 -0.647572C2.39103 -0.278954 2.74969 0.109589 3.34745 0.109589C4.3736 0.109589 4.94147 -1.17559 4.94147 -1.42466C4.94147 -1.52428 4.85181 -1.52428 4.82192 -1.52428C4.73225 -1.52428 4.71233 -1.48443 4.6924 -1.41469C4.36364 -0.348692 3.68618 -0.109589 3.36737 -0.109589C2.97883 -0.109589 2.81943 -0.428394 2.81943 -0.767123C2.81943 -0.986301 2.8792 -1.20548 2.98879 -1.64384ZM2.98879 -1.64384" fill="black"/>
  <path d="M6.07051 1.49438M7.59778 -0.834884C8.14174 -0.834884 8.53227 -0.458297 8.53227 0.287905C8.53227 1.15266 8.03016 1.41069 7.62567 1.41069C7.34672 1.41069 6.73302 1.33398 6.44012 0.922525C6.76789 0.908578 6.8446 0.678441 6.8446 0.53199C6.8446 0.308827 6.67723 0.148428 6.46104 0.148428C6.26577 0.148428 6.07051 0.266984 6.07051 0.552911C6.07051 1.20845 6.79579 1.63386 7.63962 1.63386C8.60899 1.63386 9.27848 0.98529 9.27848 0.287905C9.27848 -0.256055 8.83215 -0.800015 8.06503 -0.960414C8.79728 -1.22542 9.06229 -1.74846 9.06229 -2.17386C9.06229 -2.7248 8.42767 -3.13625 7.65357 -3.13625C6.87947 -3.13625 6.2867 -2.75967 6.2867 -2.20176C6.2867 -1.96465 6.44012 -1.83214 6.64934 -1.83214C6.86553 -1.83214 7.005 -1.99254 7.005 -2.18781C7.005 -2.39005 6.86553 -2.5365 6.64934 -2.55045C6.89342 -2.8573 7.37462 -2.93401 7.63265 -2.93401C7.94647 -2.93401 8.38582 -2.78059 8.38582 -2.17386C8.38582 -1.88096 8.28819 -1.56016 8.10687 -1.34398C7.87673 -1.07897 7.68147 -1.06502 7.33277 -1.0441C7.15843 -1.03015 7.14448 -1.03015 7.10961 -1.02318C7.09566 -1.02318 7.03987 -1.00923 7.03987 -0.932518C7.03987 -0.834884 7.10264 -0.834884 7.22119 -0.834884ZM7.22119 -0.834884" fill="black"/>
 </g>
 <g stroke-width="1.133858">
  <path d="M-99.2126 -45.3543L-80.9701 -45.3543" stroke="black"/>
  <g stroke-linecap="butt" stroke-dasharray="none">
   <path d="M-82.0787 -47.6504L-76.5354 -45.3543L-82.0787 -43.0582L-80.9701 -45.3543Z" fill="black"/>
  </g>
 </g>
 <g stroke-width="1.133858">
  <path d="M76.5354 -45.3543L94.778 -45.3543" stroke="black"/>
  <g stroke-linecap="butt" stroke-dasharray="none">
   <path d="M93.6693 -47.6504L99.2126 -45.3543L93.6693 -43.0582L94.778 -45.3543Z" fill="black"/>
  </g>
 </g>
 <g transform="matrix(1.000000,0.000000,0.000000,1.000000,-75.118110,-42.519685)">
  <path d="M0.298879 -0M2.30137 -3.49689C2.35118 -3.7061 2.45081 -4.08468 2.45081 -4.1345C2.45081 -4.30386 2.33126 -4.40349 2.16189 -4.40349C2.132 -4.40349 1.85305 -4.39352 1.76339 -4.04483L0.328767 1.72354C0.298879 1.84309 0.298879 1.86301 0.298879 1.88294C0.298879 2.03238 0.408468 2.15193 0.577833 2.15193C0.787049 2.15193 0.9066 1.9726 0.926526 1.94271C0.966376 1.85305 1.09589 1.33499 1.47447 -0.199253C1.79328 0.0697385 2.24159 0.109589 2.44085 0.109589C3.13823 0.109589 3.52677 -0.33873 3.76588 -0.617684C3.85554 -0.169365 4.22416 0.109589 4.66252 0.109589C5.01121 0.109589 5.24035 -0.119552 5.39975 -0.438356C5.56912 -0.797011 5.69863 -1.40473 5.69863 -1.42466C5.69863 -1.52428 5.60897 -1.52428 5.57908 -1.52428C5.47945 -1.52428 5.46949 -1.48443 5.4396 -1.34496C5.27024 -0.697385 5.09091 -0.109589 4.68244 -0.109589C4.41345 -0.109589 4.38356 -0.368618 4.38356 -0.56787C4.38356 -0.787049 4.50311 -1.25529 4.58281 -1.60399L4.86177 -2.67995C4.89166 -2.82939 4.99128 -3.20797 5.03113 -3.35741C5.08095 -3.58655 5.18057 -3.96513 5.18057 -4.02491C5.18057 -4.20423 5.0411 -4.2939 4.89166 -4.2939C4.84184 -4.2939 4.58281 -4.28394 4.50311 -3.94521L4.03487 -2.08219C3.91532 -1.58406 3.80573 -1.16563 3.77584 -1.066C3.76588 -1.01619 3.28767 -0.109589 2.4807 -0.109589C1.98257 -0.109589 1.74346 -0.438356 1.74346 -0.976339C1.74346 -1.26526 1.8132 -1.54421 1.88294 -1.82316ZM1.88294 -1.82316" fill="black"/>
  <path d="M6.49114 1.49438M9.4341 -3.25481C9.4341 -3.34547 9.35042 -3.34547 9.31555 -3.34547C9.21094 -3.34547 9.20397 -3.3106 9.17607 -3.19205L8.77856 -1.59503C7.54419 -1.53924 6.49114 -0.653564 6.49114 0.280931C6.49114 1.06898 7.20945 1.5432 7.98354 1.57109C7.92775 1.78728 7.87894 2.01045 7.82315 2.22663C7.73946 2.55441 7.67669 2.81244 7.67669 2.83336C7.67669 2.91705 7.76735 2.91705 7.78828 2.91705C7.89288 2.91705 7.89986 2.89612 7.93473 2.74967L8.22763 1.57807C9.42016 1.52925 10.5151 0.650545 10.5151 -0.297898C10.5151 -1.03015 9.87346 -1.55319 9.02265 -1.58806ZM9.02265 -1.58806M8.03236 1.37583C7.49537 1.34793 7.00023 1.05503 7.00023 0.399487C7.00023 -0.297898 7.53024 -1.28121 8.72277 -1.39279ZM8.72277 -1.39279M8.96686 -1.39279C9.50384 -1.37187 10.006 -1.07897 10.006 -0.416454C10.006 0.343696 9.40621 1.27819 8.27645 1.37583ZM8.27645 1.37583" fill="black"/>
  <path d="M12.1483 -0M13.3139 -0.00996264C13.3139 -0.667497 13.0648 -1.05604 12.6763 -1.05604C12.3475 -1.05604 12.1483 -0.806974 12.1483 -0.52802C12.1483 -0.259029 12.3475 -0 12.6763 -0C12.7958 -0 12.9253 -0.0398506 13.025 -0.129514C13.0549 -0.14944 13.0648 -0.159402 13.0748 -0.159402C13.0847 -0.159402 13.0947 -0.14944 13.0947 -0.00996264C13.0947 0.727273 12.746 1.32503 12.4173 1.6538C12.3077 1.76339 12.3077 1.78331 12.3077 1.8132C12.3077 1.88294 12.3575 1.92279 12.4073 1.92279C12.5169 1.92279 13.3139 1.15567 13.3139 -0.00996264ZM13.3139 -0.00996264" fill="black"/>
  <path d="M16.0979 -0M20.8799 -3.71606C21.0094 -3.71606 21.3681 -3.71606 21.3681 -4.05479C21.3681 -4.2939 21.1589 -4.2939 20.9796 -4.2939L18.7081 -4.2939C17.2037 -4.2939 16.0979 -2.65006 16.0979 -1.46451C16.0979 -0.587796 16.6857 0.109589 17.5923 0.109589C18.7678 0.109589 20.0929 -1.09589 20.0929 -2.63014C20.0929 -2.7995 20.0929 -3.27771 19.784 -3.71606ZM19.784 -3.71606M17.6022 -0.109589C17.1141 -0.109589 16.7155 -0.468244 16.7155 -1.18555C16.7155 -1.48443 16.8351 -2.30137 17.1838 -2.88917C17.6022 -3.57659 18.2 -3.71606 18.5387 -3.71606C19.3756 -3.71606 19.4553 -3.05853 19.4553 -2.74969C19.4553 -2.28144 19.256 -1.46451 18.9173 -0.956413C18.5287 -0.368618 17.9908 -0.109589 17.6022 -0.109589ZM17.6022 -0.109589" fill="black"/>
  <path d="M22.2089 -3.61536M25.2913 -4.8846L25.0542 -4.8846C25.0333 -4.73118 24.9635 -4.31972 24.8729 -4.24998C24.8171 -4.20814 24.2801 -4.20814 24.1825 -4.20814L22.8993 -4.20814C23.6315 -4.85671 23.8756 -5.05198 24.294 -5.37975C24.8101 -5.7912 25.2913 -6.22358 25.2913 -6.8861C25.2913 -7.72993 24.5521 -8.246 23.6594 -8.246C22.7947 -8.246 22.2089 -7.63927 22.2089 -6.99768C22.2089 -6.64201 22.5087 -6.60714 22.5785 -6.60714C22.7458 -6.60714 22.9481 -6.7257 22.9481 -6.97676C22.9481 -7.10229 22.8993 -7.34637 22.5366 -7.34637C22.7528 -7.84152 23.227 -7.99494 23.5548 -7.99494C24.2522 -7.99494 24.6148 -7.45098 24.6148 -6.8861C24.6148 -6.27937 24.1825 -5.79818 23.9593 -5.54712L22.2786 -3.88734C22.2089 -3.82458 22.2089 -3.81063 22.2089 -3.61536L25.0821 -3.61536ZM25.0821 -3.61536" fill="black"/>
  <path d="M21.9002 2.82151M24.8432 -1.92768C24.8432 -2.01834 24.7595 -2.01834 24.7246 -2.01834C24.62 -2.01834 24.6131 -1.98347 24.5852 -1.86491L24.1877 -0.267903C22.9533 -0.212112 21.9002 0.673566 21.9002 1.60806C21.9002 2.39611 22.6185 2.87033 23.3926 2.89822C23.3368 3.11441 23.288 3.33758 23.2322 3.55377C23.1485 3.88154 23.0858 4.13957 23.0858 4.16049C23.0858 4.24418 23.1764 4.24418 23.1974 4.24418C23.302 4.24418 23.3089 4.22326 23.3438 4.0768L23.6367 2.9052C24.8292 2.85638 25.9241 1.97768 25.9241 1.02923C25.9241 0.296979 25.2825 -0.22606 24.4317 -0.260929ZM24.4317 -0.260929M23.4414 2.70296C22.9045 2.67506 22.4093 2.38216 22.4093 1.72662C22.4093 1.02923 22.9393 0.0459201 24.1319 -0.0656615ZM24.1319 -0.0656615M24.3759 -0.0656615C24.9129 -0.0447399 25.415 0.248162 25.415 0.910677C25.415 1.67083 24.8153 2.60532 23.6855 2.70296ZM23.6855 2.70296" fill="black"/>
 </g>
 <g stroke-width="1.133858">
  <path d="M-42.5197 -45.3543L-21.4425 -45.3543" stroke="black"/>
  <g stroke-linecap="butt" stroke-dasharray="none">
   <path d="M-22.5512 -47.6504L-17.0079 -45.3543L-22.5512 -43.0582L-21.4425 -45.3543Z" fill="black"/>
  </g>
 </g>
 <g stroke-width="1.133858" stroke-linecap="butt" stroke-dasharray="4.000000" stroke-dashoffset="0.000000">
  <path d="M42.5197 -45.3543L57.9276 -45.3543" stroke="black"/>
  <g stroke-linecap="butt" stroke-dasharray="none">
   <path d="M56.8189 -47.6504L62.3622 -45.3543L56.8189 -43.0582L57.9276 -45.3543Z" fill="black"/>
  </g>
 </g>
 <g transform="matrix(1.000000,0.000000,0.000000,1.000000,65.196850,-42.519685)">
  <path d="M0.428394 -0M1.32503 -0.826899C1.86301 -1.40473 2.15193 -1.6538 2.51059 -1.96264C2.51059 -1.9726 3.12827 -2.50062 3.48692 -2.85928C4.43337 -3.7858 4.65255 -4.26401 4.65255 -4.30386C4.65255 -4.40349 4.56289 -4.40349 4.54296 -4.40349C4.47323 -4.40349 4.44334 -4.38356 4.39352 -4.2939C4.09465 -3.81569 3.88543 -3.65629 3.64633 -3.65629C3.40722 -3.65629 3.28767 -3.80573 3.13823 -3.97509C2.94894 -4.20423 2.77958 -4.40349 2.45081 -4.40349C1.70361 -4.40349 1.24533 -3.47696 1.24533 -3.26775C1.24533 -3.21793 1.27522 -3.15816 1.36488 -3.15816C1.45455 -3.15816 1.47447 -3.20797 1.4944 -3.26775C1.68369 -3.72603 2.26152 -3.73599 2.34122 -3.73599C2.55044 -3.73599 2.73973 -3.66625 2.96887 -3.58655C3.36737 -3.43711 3.47696 -3.43711 3.73599 -3.43711C3.37733 -3.00872 2.54047 -2.29141 2.35118 -2.132L1.45455 -1.29514C0.777086 -0.627646 0.428394 -0.0597758 0.428394 0.00996264C0.428394 0.109589 0.52802 0.109589 0.547945 0.109589C0.627646 0.109589 0.647572 0.0896638 0.707347 -0.0199253C0.936488 -0.368618 1.23537 -0.637609 1.55417 -0.637609C1.78331 -0.637609 1.88294 -0.547945 2.132 -0.259029C2.30137 -0.0498132 2.4807 0.109589 2.76961 0.109589C3.75592 0.109589 4.33375 -1.15567 4.33375 -1.42466C4.33375 -1.47447 4.2939 -1.52428 4.2142 -1.52428C4.12453 -1.52428 4.10461 -1.46451 4.07472 -1.39477C3.84558 -0.747198 3.20797 -0.557908 2.8792 -0.557908C2.67995 -0.557908 2.50062 -0.617684 2.29141 -0.687422C1.95268 -0.816936 1.80324 -0.856787 1.59402 -0.856787C1.5741 -0.856787 1.41469 -0.856787 1.32503 -0.826899ZM1.32503 -0.826899" fill="black"/>
  <path d="M5.00971 1.49438M6.53698 -0.834884C7.08094 -0.834884 7.47148 -0.458297 7.47148 0.287905C7.47148 1.15266 6.96936 1.41069 6.56488 1.41069C6.28593 1.41069 5.67223 1.33398 5.37932 0.922525C5.7071 0.908578 5.78381 0.678441 5.78381 0.53199C5.78381 0.308827 5.61644 0.148428 5.40025 0.148428C5.20498 0.148428 5.00971 0.266984 5.00971 0.552911C5.00971 1.20845 5.73499 1.63386 6.57883 1.63386C7.54819 1.63386 8.21768 0.98529 8.21768 0.287905C8.21768 -0.256055 7.77135 -0.800015 7.00423 -0.960414C7.73649 -1.22542 8.00149 -1.74846 8.00149 -2.17386C8.00149 -2.7248 7.36687 -3.13625 6.59277 -3.13625C5.81868 -3.13625 5.2259 -2.75967 5.2259 -2.20176C5.2259 -1.96465 5.37932 -1.83214 5.58854 -1.83214C5.80473 -1.83214 5.94421 -1.99254 5.94421 -2.18781C5.94421 -2.39005 5.80473 -2.5365 5.58854 -2.55045C5.83263 -2.8573 6.31382 -2.93401 6.57185 -2.93401C6.88568 -2.93401 7.32503 -2.78059 7.32503 -2.17386C7.32503 -1.88096 7.22739 -1.56016 7.04607 -1.34398C6.81594 -1.07897 6.62067 -1.06502 6.27198 -1.0441C6.09763 -1.03015 6.08368 -1.03015 6.04881 -1.02318C6.03487 -1.02318 5.97908 -1.00923 5.97908 -0.932518C5.97908 -0.834884 6.04184 -0.834884 6.1604 -0.834884ZM6.1604 -0.834884" fill="black"/>
 </g>
 <g stroke-width="1.133858">
  <path d="M155.906 -45.3543L208.164 -45.3543" stroke="black"/>
  <g stroke-linecap="butt" stroke-dasharray="none">
   <path d="M207.055 -47.6504L212.598 -45.3543L207.055 -43.0582L208.164 -45.3543Z" fill="black"/>
  </g>
 </g>
 <g transform="matrix(1.000000,0.000000,0.000000,1.000000,215.433071,-42.519685)">
  <path d="M1.45995 -0M4.77751 -6.5056L4.6181 -6.65504C4.6181 -6.64508 4.23952 -6.17684 3.80117 -6.17684C3.57203 -6.17684 3.32296 -6.32628 3.1536 -6.4259C2.8846 -6.58531 2.70528 -6.65504 2.53591 -6.65504C2.15733 -6.65504 1.96804 -6.43587 1.45995 -5.87796L1.61935 -5.72852C1.61935 -5.73848 1.99793 -6.20672 2.43629 -6.20672C2.66543 -6.20672 2.91449 -6.05729 3.08386 -5.95766C3.35285 -5.79826 3.53218 -5.72852 3.70154 -5.72852C4.08012 -5.72852 4.26941 -5.9477 4.77751 -6.5056ZM4.77751 -6.5056" fill="black"/>
  <path d="M0.288917 -0M3.32752 -3.00872C3.3873 -3.26775 3.61644 -4.18431 4.31382 -4.18431C4.36364 -4.18431 4.60274 -4.18431 4.81196 -4.05479C4.533 -4.00498 4.33375 -3.75592 4.33375 -3.51681C4.33375 -3.35741 4.44334 -3.16812 4.71233 -3.16812C4.93151 -3.16812 5.25031 -3.34745 5.25031 -3.74595C5.25031 -4.26401 4.66252 -4.40349 4.32379 -4.40349C3.74595 -4.40349 3.39726 -3.87547 3.27771 -3.64633C3.02864 -4.30386 2.49066 -4.40349 2.20174 -4.40349C1.16563 -4.40349 0.597758 -3.11831 0.597758 -2.86924C0.597758 -2.76961 0.697385 -2.76961 0.71731 -2.76961C0.797011 -2.76961 0.826899 -2.78954 0.846824 -2.8792C1.18555 -3.93524 1.84309 -4.18431 2.18182 -4.18431C2.37111 -4.18431 2.7198 -4.09465 2.7198 -3.51681C2.7198 -3.20797 2.55044 -2.54047 2.18182 -1.1457C2.02242 -0.52802 1.67372 -0.109589 1.23537 -0.109589C1.17559 -0.109589 0.946451 -0.109589 0.737235 -0.239103C0.986301 -0.288917 1.20548 -0.498132 1.20548 -0.777086C1.20548 -1.04608 0.986301 -1.12578 0.836862 -1.12578C0.537983 -1.12578 0.288917 -0.86675 0.288917 -0.547945C0.288917 -0.0896638 0.787049 0.109589 1.2254 0.109589C1.88294 0.109589 2.24159 -0.587796 2.27148 -0.647572C2.39103 -0.278954 2.74969 0.109589 3.34745 0.109589C4.3736 0.109589 4.94147 -1.17559 4.94147 -1.42466C4.94147 -1.52428 4.85181 -1.52428 4.82192 -1.52428C4.73225 -1.52428 4.71233 -1.48443 4.6924 -1.41469C4.36364 -0.348692 3.68618 -0.109589 3.36737 -0.109589C2.97883 -0.109589 2.81943 -0.428394 2.81943 -0.767123C2.81943 -0.986301 2.8792 -1.20548 2.98879 -1.64384ZM2.98879 -1.64384" fill="black"/>
  <path d="M6.07051 1.49438M7.59778 -0.834884C8.14174 -0.834884 8.53227 -0.458297 8.53227 0.287905C8.53227 1.15266 8.03016 1.41069 7.62567 1.41069C7.34672 1.41069 6.73302 1.33398 6.44012 0.922525C6.76789 0.908578 6.8446 0.678441 6.8446 0.53199C6.8446 0.308827 6.67723 0.148428 6.46104 0.148428C6.26577 0.148428 6.07051 0.266984 6.07051 0.552911C6.07051 1.20845 6.79579 1.63386 7.63962 1.63386C8.60899 1.63386 9.27848 0.98529 9.27848 0.287905C9.27848 -0.256055 8.83215 -0.800015 8.06503 -0.960414C8.79728 -1.22542 9.06229 -1.74846 9.06229 -2.17386C9.06229 -2.7248 8.42767 -3.13625 7.65357 -3.13625C6.87947 -3.13625 6.2867 -2.75967 6.2867 -2.20176C6.2867 -1.96465 6.44012 -1.83214 6.64934 -1.83214C6.86553 -1.83214 7.005 -1.99254 7.005 -2.18781C7.005 -2.39005 6.86553 -2.5365 6.64934 -2.55045C6.89342 -2.8573 7.37462 -2.93401 7.63265 -2.93401C7.94647 -2.93401 8.38582 -2.78059 8.38582 -2.17386C8.38582 -1.88096 8.28819 -1.56016 8.10687 -1.34398C7.87673 -1.07897 7.68147 -1.06502 7.33277 -1.0441C7.15843 -1.03015 7.14448 -1.03015 7.10961 -1.02318C7.09566 -1.02318 7.03987 -1.00923 7.03987 -0.932518C7.03987 -0.834884 7.10264 -0.834884 7.22119 -0.834884ZM7.22119 -0.834884" fill="black"/>
 </g>
 <g stroke-width="1.133858">
  <path d="M-212.598 -68.0315L-160.34 -68.0315" stroke="black"/>
  <g stroke-linecap="butt" stroke-dasharray="none">
   <path d="M-161.449 -70.3276L-155.906 -68.0315L-161.449 -65.7354L-160.34 -68.0315Z" fill="black"/>
  </g>
 </g>
 <g transform="matrix(1.000000,0.000000,0.000000,1.000000,-226.771654,-65.196850)">
  <path d="M0.288917 -0M3.32752 -3.00872C3.3873 -3.26775 3.61644 -4.18431 4.31382 -4.18431C4.36364 -4.18431 4.60274 -4.18431 4.81196 -4.05479C4.533 -4.00498 4.33375 -3.75592 4.33375 -3.51681C4.33375 -3.35741 4.44334 -3.16812 4.71233 -3.16812C4.93151 -3.16812 5.25031 -3.34745 5.25031 -3.74595C5.25031 -4.26401 4.66252 -4.40349 4.32379 -4.40349C3.74595 -4.40349 3.39726 -3.87547 3.27771 -3.64633C3.02864 -4.30386 2.49066 -4.40349 2.20174 -4.40349C1.16563 -4.40349 0.597758 -3.11831 0.597758 -2.86924C0.597758 -2.76961 0.697385 -2.76961 0.71731 -2.76961C0.797011 -2.76961 0.826899 -2.78954 0.846824 -2.8792C1.18555 -3.93524 1.84309 -4.18431 2.18182 -4.18431C2.37111 -4.18431 2.7198 -4.09465 2.7198 -3.51681C2.7198 -3.20797 2.55044 -2.54047 2.18182 -1.1457C2.02242 -0.52802 1.67372 -0.109589 1.23537 -0.109589C1.17559 -0.109589 0.946451 -0.109589 0.737235 -0.239103C0.986301 -0.288917 1.20548 -0.498132 1.20548 -0.777086C1.20548 -1.04608 0.986301 -1.12578 0.836862 -1.12578C0.537983 -1.12578 0.288917 -0.86675 0.288917 -0.547945C0.288917 -0.0896638 0.787049 0.109589 1.2254 0.109589C1.88294 0.109589 2.24159 -0.587796 2.27148 -0.647572C2.39103 -0.278954 2.74969 0.109589 3.34745 0.109589C4.3736 0.109589 4.94147 -1.17559 4.94147 -1.42466C4.94147 -1.52428 4.85181 -1.52428 4.82192 -1.52428C4.73225 -1.52428 4.71233 -1.48443 4.6924 -1.41469C4.36364 -0.348692 3.68618 -0.109589 3.36737 -0.109589C2.97883 -0.109589 2.81943 -0.428394 2.81943 -0.767123C2.81943 -0.986301 2.8792 -1.20548 2.98879 -1.64384ZM2.98879 -1.64384" fill="black"/>
  <path d="M6.13327 1.49438M9.21571 0.22514L8.9786 0.22514C8.95768 0.378565 8.88794 0.790022 8.79728 0.859761C8.74149 0.901604 8.2045 0.901604 8.10687 0.901604L6.82368 0.901604C7.55594 0.253036 7.80002 0.0577681 8.21845 -0.270003C8.73452 -0.68146 9.21571 -1.11384 9.21571 -1.77635C9.21571 -2.62019 8.47648 -3.13625 7.58383 -3.13625C6.71907 -3.13625 6.13327 -2.52953 6.13327 -1.88794C6.13327 -1.53227 6.43315 -1.4974 6.50289 -1.4974C6.67026 -1.4974 6.8725 -1.61596 6.8725 -1.86701C6.8725 -1.99254 6.82368 -2.23663 6.46104 -2.23663C6.67723 -2.73177 7.15145 -2.8852 7.47922 -2.8852C8.17661 -2.8852 8.53925 -2.34124 8.53925 -1.77635C8.53925 -1.16963 8.10687 -0.688434 7.88371 -0.437375L6.20301 1.2224C6.13327 1.28517 6.13327 1.29911 6.13327 1.49438L9.0065 1.49438ZM9.0065 1.49438" fill="black"/>
 </g>
 <g stroke-width="1.133858">
  <path d="M-99.2126 -68.0315L-80.9701 -68.0315" stroke="black"/>
  <g stroke-linecap="butt" stroke-dasharray="none">
   <path d="M-82.0787 -70.3276L-76.5354 -68.0315L-82.0787 -65.7354L-80.9701 -68.0315Z" fill="black"/>
  </g>
 </g>
 <g stroke-width="1.133858">
  <path d="M76.5354 -68.0315L94.778 -68.0315" stroke="black"/>
  <g stroke-linecap="butt" stroke-dasharray="none">
   <path d="M93.6693 -70.3276L99.2126 -68.0315L93.6693 -65.7354L94.778 -68.0315Z" fill="black"/>
  </g>
 </g>
 <g transform="matrix(1.000000,0.000000,0.000000,1.000000,-75.118110,-65.196850)">
  <path d="M0.298879 -0M2.30137 -3.49689C2.35118 -3.7061 2.45081 -4.08468 2.45081 -4.1345C2.45081 -4.30386 2.33126 -4.40349 2.16189 -4.40349C2.132 -4.40349 1.85305 -4.39352 1.76339 -4.04483L0.328767 1.72354C0.298879 1.84309 0.298879 1.86301 0.298879 1.88294C0.298879 2.03238 0.408468 2.15193 0.577833 2.15193C0.787049 2.15193 0.9066 1.9726 0.926526 1.94271C0.966376 1.85305 1.09589 1.33499 1.47447 -0.199253C1.79328 0.0697385 2.24159 0.109589 2.44085 0.109589C3.13823 0.109589 3.52677 -0.33873 3.76588 -0.617684C3.85554 -0.169365 4.22416 0.109589 4.66252 0.109589C5.01121 0.109589 5.24035 -0.119552 5.39975 -0.438356C5.56912 -0.797011 5.69863 -1.40473 5.69863 -1.42466C5.69863 -1.52428 5.60897 -1.52428 5.57908 -1.52428C5.47945 -1.52428 5.46949 -1.48443 5.4396 -1.34496C5.27024 -0.697385 5.09091 -0.109589 4.68244 -0.109589C4.41345 -0.109589 4.38356 -0.368618 4.38356 -0.56787C4.38356 -0.787049 4.50311 -1.25529 4.58281 -1.60399L4.86177 -2.67995C4.89166 -2.82939 4.99128 -3.20797 5.03113 -3.35741C5.08095 -3.58655 5.18057 -3.96513 5.18057 -4.02491C5.18057 -4.20423 5.0411 -4.2939 4.89166 -4.2939C4.84184 -4.2939 4.58281 -4.28394 4.50311 -3.94521L4.03487 -2.08219C3.91532 -1.58406 3.80573 -1.16563 3.77584 -1.066C3.76588 -1.01619 3.28767 -0.109589 2.4807 -0.109589C1.98257 -0.109589 1.74346 -0.438356 1.74346 -0.976339C1.74346 -1.26526 1.8132 -1.54421 1.88294 -1.82316ZM1.88294 -1.82316" fill="black"/>
  <path d="M6.49114 1.49438M9.4341 -3.25481C9.4341 -3.34547 9.35042 -3.34547 9.31555 -3.34547C9.21094 -3.34547 9.20397 -3.3106 9.17607 -3.19205L8.77856 -1.59503C7.54419 -1.53924 6.49114 -0.653564 6.49114 0.280931C6.49114 1.06898 7.20945 1.5432 7.98354 1.57109C7.92775 1.78728 7.87894 2.01045 7.82315 2.22663C7.73946 2.55441 7.67669 2.81244 7.67669 2.83336C7.67669 2.91705 7.76735 2.91705 7.78828 2.91705C7.89288 2.91705 7.89986 2.89612 7.93473 2.74967L8.22763 1.57807C9.42016 1.52925 10.5151 0.650545 10.5151 -0.297898C10.5151 -1.03015 9.87346 -1.55319 9.02265 -1.58806ZM9.02265 -1.58806M8.03236 1.37583C7.49537 1.34793 7.00023 1.05503 7.00023 0.399487C7.00023 -0.297898 7.53024 -1.28121 8.72277 -1.39279ZM8.72277 -1.39279M8.96686 -1.39279C9.50384 -1.37187 10.006 -1.07897 10.006 -0.416454C10.006 0.343696 9.40621 1.27819 8.27645 1.37583ZM8.27645 1.37583" fill="black"/>
  <path d="M12.1483 -0M13.3139 -0.00996264C13.3139 -0.667497 13.0648 -1.05604 12.6763 -1.05604C12.3475 -1.05604 12.1483 -0.806974 12.1483 -0.52802C12.1483 -0.259029 12.3475 -0 12.6763 -0C12.7958 -0 12.9253 -0.0398506 13.025 -0.129514C13.0549 -0.14944 13.0648 -0.159402 13.0748 -0.159402C13.0847 -0.159402 13.0947 -0.14944 13.0947 -0.00996264C13.0947 0.727273 12.746 1.32503 12.4173 1.6538C12.3077 1.76339 12.3077 1.78331 12.3077 1.8132C12.3077 1.88294 12.3575 1.92279 12.4073 1.92279C12.5169 1.92279 13.3139 1.15567 13.3139 -0.00996264ZM13.3139 -0.00996264" fill="black"/>
  <path d="M16.0979 -0M20.8799 -3.71606C21.0094 -3.71606 21.3681 -3.71606 21.3681 -4.05479C21.3681 -4.2939 21.1589 -4.2939 20.9796 -4.2939L18.7081 -4.2939C17.2037 -4.2939 16.0979 -2.65006 16.0979 -1.46451C16.0979 -0.587796 16.6857 0.109589 17.5923 0.109589C18.7678 0.109589 20.0929 -1.09589 20.0929 -2.63014C20.0929 -2.7995 20.0929 -3.27771 19.784 -3.71606ZM19.784 -3.71606M17.6022 -0.109589C17.1141 -0.109589 16.7155 -0.468244 16.7155 -1.18555C16.7155 -1.48443 16.8351 -2.30137 17.1838 -2.88917C17.6022 -3.57659 18.2 -3.71606 18.5387 -3.71606C19.3756 -3.71606 19.4553 -3.05853 19.4553 -2.74969C19.4553 -2.28144 19.256 -1.46451 18.9173 -0.956413C18.5287 -0.368618 17.9908 -0.109589 17.6022 -0.109589ZM17.6022 -0.109589" fill="black"/>
  <path d="M22.2089 -3.61536M25.2913 -4.8846L25.0542 -4.8846C25.0333 -4.73118 24.9635 -4.31972 24.8729 -4.24998C24.8171 -4.20814 24.2801 -4.20814 24.1825 -4.20814L22.8993 -4.20814C23.6315 -4.85671 23.8756 -5.05198 24.294 -5.37975C24.8101 -5.7912 25.2913 -6.22358 25.2913 -6.8861C25.2913 -7.72993 24.5521 -8.246 23.6594 -8.246C22.7947 -8.246 22.2089 -7.63927 22.2089 -6.99768C22.2089 -6.64201 22.5087 -6.60714 22.5785 -6.60714C22.7458 -6.60714 22.9481 -6.7257 22.9481 -6.97676C22.9481 -7.10229 22.8993 -7.34637 22.5366 -7.34637C22.7528 -7.84152 23.227 -7.99494 23.5548 -7.99494C24.2522 -7.99494 24.6148 -7.45098 24.6148 -6.8861C24.6148 -6.27937 24.1825 -5.79818 23.9593 -5.54712L22.2786 -3.88734C22.2089 -3.82458 22.2089 -3.81063 22.2089 -3.61536L25.0821 -3.61536ZM25.0821 -3.61536" fill="black"/>
  <path d="M21.9002 2.82151M24.8432 -1.92768C24.8432 -2.01834 24.7595 -2.01834 24.7246 -2.01834C24.62 -2.01834 24.6131 -1.98347 24.5852 -1.86491L24.1877 -0.267903C22.9533 -0.212112 21.9002 0.673566 21.9002 1.60806C21.9002 2.39611 22.6185 2.87033 23.3926 2.89822C23.3368 3.11441 23.288 3.33758 23.2322 3.55377C23.1485 3.88154 23.0858 4.13957 23.0858 4.16049C23.0858 4.24418 23.1764 4.24418 23.1974 4.24418C23.302 4.24418 23.3089 4.22326 23.3438 4.0768L23.6367 2.9052C24.8292 2.85638 25.9241 1.97768 25.9241 1.02923C25.9241 0.296979 25.2825 -0.22606 24.4317 -0.260929ZM24.4317 -0.260929M23.4414 2.70296C22.9045 2.67506 22.4093 2.38216 22.4093 1.72662C22.4093 1.02923 22.9393 0.0459201 24.1319 -0.0656615ZM24.1319 -0.0656615M24.3759 -0.0656615C24.9129 -0.0447399 25.415 0.248162 25.415 0.910677C25.415 1.67083 24.8153 2.60532 23.6855 2.70296ZM23.6855 2.70296" fill="black"/>
 </g>
 <g stroke-width="1.133858">
  <path d="M-42.5197 -68.0315L-21.4425 -68.0315" stroke="black"/>
  <g stroke-linecap="butt" stroke-dasharray="none">
   <path d="M-22.5512 -70.3276L-17.0079 -68.0315L-22.5512 -65.7354L-21.4425 -68.0315Z" fill="black"/>
  </g>
 </g>
 <g stroke-width="1.133858" stroke-linecap="butt" stroke-dasharray="4.000000" stroke-dashoffset="0.000000">
  <path d="M42.5197 -68.0315L57.9276 -68.0315" stroke="black"/>
  <g stroke-linecap="butt" stroke-dasharray="none">
   <path d="M56.8189 -70.3276L62.3622 -68.0315L56.8189 -65.7354L57.9276 -68.0315Z" fill="black"/>
  </g>
 </g>
 <g transform="matrix(1.000000,0.000000,0.000000,1.000000,65.196850,-65.196850)">
  <path d="M0.428394 -0M1.32503 -0.826899C1.86301 -1.40473 2.15193 -1.6538 2.51059 -1.96264C2.51059 -1.9726 3.12827 -2.50062 3.48692 -2.85928C4.43337 -3.7858 4.65255 -4.26401 4.65255 -4.30386C4.65255 -4.40349 4.56289 -4.40349 4.54296 -4.40349C4.47323 -4.40349 4.44334 -4.38356 4.39352 -4.2939C4.09465 -3.81569 3.88543 -3.65629 3.64633 -3.65629C3.40722 -3.65629 3.28767 -3.80573 3.13823 -3.97509C2.94894 -4.20423 2.77958 -4.40349 2.45081 -4.40349C1.70361 -4.40349 1.24533 -3.47696 1.24533 -3.26775C1.24533 -3.21793 1.27522 -3.15816 1.36488 -3.15816C1.45455 -3.15816 1.47447 -3.20797 1.4944 -3.26775C1.68369 -3.72603 2.26152 -3.73599 2.34122 -3.73599C2.55044 -3.73599 2.73973 -3.66625 2.96887 -3.58655C3.36737 -3.43711 3.47696 -3.43711 3.73599 -3.43711C3.37733 -3.00872 2.54047 -2.29141 2.35118 -2.132L1.45455 -1.29514C0.777086 -0.627646 0.428394 -0.0597758 0.428394 0.00996264C0.428394 0.109589 0.52802 0.109589 0.547945 0.109589C0.627646 0.109589 0.647572 0.0896638 0.707347 -0.0199253C0.936488 -0.368618 1.23537 -0.637609 1.55417 -0.637609C1.78331 -0.637609 1.88294 -0.547945 2.132 -0.259029C2.30137 -0.0498132 2.4807 0.109589 2.76961 0.109589C3.75592 0.109589 4.33375 -1.15567 4.33375 -1.42466C4.33375 -1.47447 4.2939 -1.52428 4.2142 -1.52428C4.12453 -1.52428 4.10461 -1.46451 4.07472 -1.39477C3.84558 -0.747198 3.20797 -0.557908 2.8792 -0.557908C2.67995 -0.557908 2.50062 -0.617684 2.29141 -0.687422C1.95268 -0.816936 1.80324 -0.856787 1.59402 -0.856787C1.5741 -0.856787 1.41469 -0.856787 1.32503 -0.826899ZM1.32503 -0.826899" fill="black"/>
  <path d="M5.07248 1.49438M8.15492 0.22514L7.91781 0.22514C7.89688 0.378565 7.82715 0.790022 7.73649 0.859761C7.68069 0.901604 7.14371 0.901604 7.04607 0.901604L5.76289 0.901604C6.49514 0.253036 6.73923 0.0577681 7.15766 -0.270003C7.67372 -0.68146 8.15492 -1.11384 8.15492 -1.77635C8.15492 -2.62019 7.41569 -3.13625 6.52304 -3.13625C5.65828 -3.13625 5.07248 -2.52953 5.07248 -1.88794C5.07248 -1.53227 5.37235 -1.4974 5.44209 -1.4974C5.60946 -1.4974 5.8117 -1.61596 5.8117 -1.86701C5.8117 -1.99254 5.76289 -2.23663 5.40025 -2.23663C5.61644 -2.73177 6.09066 -2.8852 6.41843 -2.8852C7.11581 -2.8852 7.47845 -2.34124 7.47845 -1.77635C7.47845 -1.16963 7.04607 -0.688434 6.82291 -0.437375L5.14221 1.2224C5.07248 1.28517 5.07248 1.29911 5.07248 1.49438L7.9457 1.49438ZM7.9457 1.49438" fill="black"/>
 </g>
 <g stroke-width="1.133858">
  <path d="M155.906 -68.0315L208.164 -68.0315" stroke="black"/>
  <g stroke-linecap="butt" stroke-dasharray="none">
   <path d="M207.055 -70.3276L212.598 -68.0315L207.055 -65.7354L208.164 -68.0315Z" fill="black"/>
  </g>
 </g>
 <g transform="matrix(1.000000,0.000000,0.000000,1.000000,215.433071,-65.196850)">
  <path d="M1.45995 -0M4.77751 -6.5056L4.6181 -6.65504C4.6181 -6.64508 4.23952 -6.17684 3.80117 -6.17684C3.57203 -6.17684 3.32296 -6.32628 3.1536 -6.4259C2.8846 -6.58531 2.70528 -6.65504 2.53591 -6.65504C2.15733 -6.65504 1.96804 -6.43587 1.45995 -5.87796L1.61935 -5.72852C1.61935 -5.73848 1.99793 -6.20672 2.43629 -6.20672C2.66543 -6.20672 2.91449 -6.05729 3.08386 -5.95766C3.35285 -5.79826 3.53218 -5.72852 3.70154 -5.72852C4.08012 -5.72852 4.26941 -5.9477 4.77751 -6.5056ZM4.77751 -6.5056" fill="black"/>
  <path d="M0.288917 -0M3.32752 -3.00872C3.3873 -3.26775 3.61644 -4.18431 4.31382 -4.18431C4.36364 -4.18431 4.60274 -4.18431 4.81196 -4.05479C4.533 -4.00498 4.33375 -3.75592 4.33375 -3.51681C4.33375 -3.35741 4.44334 -3.16812 4.71233 -3.16812C4.93151 -3.16812 5.25031 -3.34745 5.25031 -3.74595C5.25031 -4.26401 4.66252 -4.40349 4.32379 -4.40349C3.74595 -4.40349 3.39726 -3.87547 3.27771 -3.64633C3.02864 -4.30386 2.49066 -4.40349 2.20174 -4.40349C1.16563 -4.40349 0.597758 -3.11831 0.597758 -2.86924C0.597758 -2.76961 0.697385 -2.76961 0.71731 -2.76961C0.797011 -2.76961 0.826899 -2.78954 0.846824 -2.8792C1.18555 -3.93524 1.84309 -4.18431 2.18182 -4.18431C2.37111 -4.18431 2.7198 -4.09465 2.7198 -3.51681C2.7198 -3.20797 2.55044 -2.54047 2.18182 -1.1457C2.02242 -0.52802 1.67372 -0.109589 1.23537 -0.109589C1.17559 -0.109589 0.946451 -0.109589 0.737235 -0.239103C0.986301 -0.288917 1.20548 -0.498132 1.20548 -0.777086C1.20548 -1.04608 0.986301 -1.12578 0.836862 -1.12578C0.537983 -1.12578 0.288917 -0.86675 0.288917 -0.547945C0.288917 -0.0896638 0.787049 0.109589 1.2254 0.109589C1.88294 0.109589 2.24159 -0.587796 2.27148 -0.647572C2.39103 -0.278954 2.74969 0.109589 3.34745 0.109589C4.3736 0.109589 4.94147 -1.17559 4.94147 -1.42466C4.94147 -1.52428 4.85181 -1.52428 4.82192 -1.52428C4.73225 -1.52428 4.71233 -1.48443 4.6924 -1.41469C4.36364 -0.348692 3.68618 -0.109589 3.36737 -0.109589C2.97883 -0.109589 2.81943 -0.428394 2.81943 -0.767123C2.81943 -0.986301 2.8792 -1.20548 2.98879 -1.64384ZM2.98879 -1.64384" fill="black"/>
  <path d="M6.13327 1.49438M9.21571 0.22514L8.9786 0.22514C8.95768 0.378565 8.88794 0.790022 8.79728 0.859761C8.74149 0.901604 8.2045 0.901604 8.10687 0.901604L6.82368 0.901604C7.55594 0.253036 7.80002 0.0577681 8.21845 -0.270003C8.73452 -0.68146 9.21571 -1.11384 9.21571 -1.77635C9.21571 -2.62019 8.47648 -3.13625 7.58383 -3.13625C6.71907 -3.13625 6.13327 -2.52953 6.13327 -1.88794C6.13327 -1.53227 6.43315 -1.4974 6.50289 -1.4974C6.67026 -1.4974 6.8725 -1.61596 6.8725 -1.86701C6.8725 -1.99254 6.82368 -2.23663 6.46104 -2.23663C6.67723 -2.73177 7.15145 -2.8852 7.47922 -2.8852C8.17661 -2.8852 8.53925 -2.34124 8.53925 -1.77635C8.53925 -1.16963 8.10687 -0.688434 7.88371 -0.437375L6.20301 1.2224C6.13327 1.28517 6.13327 1.29911 6.13327 1.49438L9.0065 1.49438ZM9.0065 1.49438" fill="black"/>
 </g>
 <g stroke-width="1.133858">
  <path d="M-212.598 -90.7087L-160.34 -90.7087" stroke="black"/>
  <g stroke-linecap="butt" stroke-dasharray="none">
   <path d="M-161.449 -93.0048L-155.906 -90.7087L-161.449 -88.4126L-160.34 -90.7087Z" fill="black"/>
  </g>
 </g>
 <g transform="matrix(1.000000,0.000000,0.000000,1.000000,-226.771654,-87.874016)">
  <path d="M0.288917 -0M3.32752 -3.00872C3.3873 -3.26775 3.61644 -4.18431 4.31382 -4.18431C4.36364 -4.18431 4.60274 -4.18431 4.81196 -4.05479C4.533 -4.00498 4.33375 -3.75592 4.33375 -3.51681C4.33375 -3.35741 4.44334 -3.16812 4.71233 -3.16812C4.93151 -3.16812 5.25031 -3.34745 5.25031 -3.74595C5.25031 -4.26401 4.66252 -4.40349 4.32379 -4.40349C3.74595 -4.40349 3.39726 -3.87547 3.27771 -3.64633C3.02864 -4.30386 2.49066 -4.40349 2.20174 -4.40349C1.16563 -4.40349 0.597758 -3.11831 0.597758 -2.86924C0.597758 -2.76961 0.697385 -2.76961 0.71731 -2.76961C0.797011 -2.76961 0.826899 -2.78954 0.846824 -2.8792C1.18555 -3.93524 1.84309 -4.18431 2.18182 -4.18431C2.37111 -4.18431 2.7198 -4.09465 2.7198 -3.51681C2.7198 -3.20797 2.55044 -2.54047 2.18182 -1.1457C2.02242 -0.52802 1.67372 -0.109589 1.23537 -0.109589C1.17559 -0.109589 0.946451 -0.109589 0.737235 -0.239103C0.986301 -0.288917 1.20548 -0.498132 1.20548 -0.777086C1.20548 -1.04608 0.986301 -1.12578 0.836862 -1.12578C0.537983 -1.12578 0.288917 -0.86675 0.288917 -0.547945C0.288917 -0.0896638 0.787049 0.109589 1.2254 0.109589C1.88294 0.109589 2.24159 -0.587796 2.27148 -0.647572C2.39103 -0.278954 2.74969 0.109589 3.34745 0.109589C4.3736 0.109589 4.94147 -1.17559 4.94147 -1.42466C4.94147 -1.52428 4.85181 -1.52428 4.82192 -1.52428C4.73225 -1.52428 4.71233 -1.48443 4.6924 -1.41469C4.36364 -0.348692 3.68618 -0.109589 3.36737 -0.109589C2.97883 -0.109589 2.81943 -0.428394 2.81943 -0.767123C2.81943 -0.986301 2.8792 -1.20548 2.98879 -1.64384ZM2.98879 -1.64384" fill="black"/>
  <path d="M6.45407 1.49438M8.03016 -2.94099C8.03016 -3.12928 8.01621 -3.13625 7.82094 -3.13625C7.37462 -2.6969 6.74 -2.68993 6.45407 -2.68993L6.45407 -2.43887C6.62144 -2.43887 7.08171 -2.43887 7.46528 -2.63414L7.46528 0.922525C7.46528 1.15266 7.46528 1.24332 6.76789 1.24332L6.50289 1.24332L6.50289 1.49438C6.62841 1.48741 7.4862 1.46649 7.74423 1.46649C7.96042 1.46649 8.83912 1.48741 8.99255 1.49438L8.99255 1.24332L8.72754 1.24332C8.03016 1.24332 8.03016 1.15266 8.03016 0.922525ZM8.03016 0.922525" fill="black"/>
 </g>
 <g stroke-width="1.133858">
  <path d="M-99.2126 -90.7087L-80.9701 -90.7087" stroke="black"/>
  <g stroke-linecap="butt" stroke-dasharray="none">
   <path d="M-82.0787 -93.0048L-76.5354 -90.7087L-82.0787 -88.4126L-80.9701 -90.7087Z" fill="black"/>
  </g>
 </g>
 <g stroke-width="1.133858">
  <path d="M76.5354 -90.7087L94.778 -90.7087" stroke="black"/>
  <g stroke-linecap="butt" stroke-dasharray="none">
   <path d="M93.6693 -93.0048L99.2126 -90.7087L93.6693 -88.4126L94.778 -90.7087Z" fill="black"/>
  </g>
 </g>
 <g transform="matrix(1.000000,0.000000,0.000000,1.000000,-75.118110,-87.874016)">
  <path d="M0.298879 -0M2.30137 -3.49689C2.35118 -3.7061 2.45081 -4.08468 2.45081 -4.1345C2.45081 -4.30386 2.33126 -4.40349 2.16189 -4.40349C2.132 -4.40349 1.85305 -4.39352 1.76339 -4.04483L0.328767 1.72354C0.298879 1.84309 0.298879 1.86301 0.298879 1.88294C0.298879 2.03238 0.408468 2.15193 0.577833 2.15193C0.787049 2.15193 0.9066 1.9726 0.926526 1.94271C0.966376 1.85305 1.09589 1.33499 1.47447 -0.199253C1.79328 0.0697385 2.24159 0.109589 2.44085 0.109589C3.13823 0.109589 3.52677 -0.33873 3.76588 -0.617684C3.85554 -0.169365 4.22416 0.109589 4.66252 0.109589C5.01121 0.109589 5.24035 -0.119552 5.39975 -0.438356C5.56912 -0.797011 5.69863 -1.40473 5.69863 -1.42466C5.69863 -1.52428 5.60897 -1.52428 5.57908 -1.52428C5.47945 -1.52428 5.46949 -1.48443 5.4396 -1.34496C5.27024 -0.697385 5.09091 -0.109589 4.68244 -0.109589C4.41345 -0.109589 4.38356 -0.368618 4.38356 -0.56787C4.38356 -0.787049 4.50311 -1.25529 4.58281 -1.60399L4.86177 -2.67995C4.89166 -2.82939 4.99128 -3.20797 5.03113 -3.35741C5.08095 -3.58655 5.18057 -3.96513 5.18057 -4.02491C5.18057 -4.20423 5.0411 -4.2939 4.89166 -4.2939C4.84184 -4.2939 4.58281 -4.28394 4.50311 -3.94521L4.03487 -2.08219C3.91532 -1.58406 3.80573 -1.16563 3.77584 -1.066C3.76588 -1.01619 3.28767 -0.109589 2.4807 -0.109589C1.98257 -0.109589 1.74346 -0.438356 1.74346 -0.976339C1.74346 -1.26526 1.8132 -1.54421 1.88294 -1.82316ZM1.88294 -1.82316" fill="black"/>
  <path d="M6.49114 1.49438M9.4341 -3.25481C9.4341 -3.34547 9.35042 -3.34547 9.31555 -3.34547C9.21094 -3.34547 9.20397 -3.3106 9.17607 -3.19205L8.77856 -1.59503C7.54419 -1.53924 6.49114 -0.653564 6.49114 0.280931C6.49114 1.06898 7.20945 1.5432 7.98354 1.57109C7.92775 1.78728 7.87894 2.01045 7.82315 2.22663C7.73946 2.55441 7.67669 2.81244 7.67669 2.83336C7.67669 2.91705 7.76735 2.91705 7.78828 2.91705C7.89288 2.91705 7.89986 2.89612 7.93473 2.74967L8.22763 1.57807C9.42016 1.52925 10.5151 0.650545 10.5151 -0.297898C10.5151 -1.03015 9.87346 -1.55319 9.02265 -1.58806ZM9.02265 -1.58806M8.03236 1.37583C7.49537 1.34793 7.00023 1.05503 7.00023 0.399487C7.00023 -0.297898 7.53024 -1.28121 8.72277 -1.39279ZM8.72277 -1.39279M8.96686 -1.39279C9.50384 -1.37187 10.006 -1.07897 10.006 -0.416454C10.006 0.343696 9.40621 1.27819 8.27645 1.37583ZM8.27645 1.37583" fill="black"/>
  <path d="M12.1483 -0M13.3139 -0.00996264C13.3139 -0.667497 13.0648 -1.05604 12.6763 -1.05604C12.3475 -1.05604 12.1483 -0.806974 12.1483 -0.52802C12.1483 -0.259029 12.3475 -0 12.6763 -0C12.7958 -0 12.9253 -0.0398506 13.025 -0.129514C13.0549 -0.14944 13.0648 -0.159402 13.0748 -0.159402C13.0847 -0.159402 13.0947 -0.14944 13.0947 -0.00996264C13.0947 0.727273 12.746 1.32503 12.4173 1.6538C12.3077 1.76339 12.3077 1.78331 12.3077 1.8132C12.3077 1.88294 12.3575 1.92279 12.4073 1.92279C12.5169 1.92279 13.3139 1.15567 13.3139 -0.00996264ZM13.3139 -0.00996264" fill="black"/>
  <path d="M16.0979 -0M20.8799 -3.71606C21.0094 -3.71606 21.3681 -3.71606 21.3681 -4.05479C21.3681 -4.2939 21.1589 -4.2939 20.9796 -4.2939L18.7081 -4.2939C17.2037 -4.2939 16.0979 -2.65006 16.0979 -1.46451C16.0979 -0.587796 16.6857 0.109589 17.5923 0.109589C18.7678 0.109589 20.0929 -1.09589 20.0929 -2.63014C20.0929 -2.7995 20.0929 -3.27771 19.784 -3.71606ZM19.784 -3.71606M17.6022 -0.109589C17.1141 -0.109589 16.7155 -0.468244 16.7155 -1.18555C16.7155 -1.48443 16.8351 -2.30137 17.1838 -2.88917C17.6022 -3.57659 18.2 -3.71606 18.5387 -3.71606C19.3756 -3.71606 19.4553 -3.05853 19.4553 -2.74969C19.4553 -2.28144 19.256 -1.46451 18.9173 -0.956413C18.5287 -0.368618 17.9908 -0.109589 17.6022 -0.109589ZM17.6022 -0.109589" fill="black"/>
  <path d="M22.2089 -3.61536M25.2913 -4.8846L25.0542 -4.8846C25.0333 -4.73118 24.9635 -4.31972 24.8729 -4.24998C24.8171 -4.20814 24.2801 -4.20814 24.1825 -4.20814L22.8993 -4.20814C23.6315 -4.85671 23.8756 -5.05198 24.294 -5.37975C24.8101 -5.7912 25.2913 -6.22358 25.2913 -6.8861C25.2913 -7.72993 24.5521 -8.246 23.6594 -8.246C22.7947 -8.246 22.2089 -7.63927 22.2089 -6.99768C22.2089 -6.64201 22.5087 -6.60714 22.5785 -6.60714C22.7458 -6.60714 22.9481 -6.7257 22.9481 -6.97676C22.9481 -7.10229 22.8993 -7.34637 22.5366 -7.34637C22.7528 -7.84152 23.227 -7.99494 23.5548 -7.99494C24.2522 -7.99494 24.6148 -7.45098 24.6148 -6.8861C24.6148 -6.27937 24.1825 -5.79818 23.9593 -5.54712L22.2786 -3.88734C22.2089 -3.82458 22.2089 -3.81063 22.2089 -3.61536L25.0821 -3.61536ZM25.0821 -3.61536" fill="black"/>
  <path d="M21.9002 2.82151M24.8432 -1.92768C24.8432 -2.01834 24.7595 -2.01834 24.7246 -2.01834C24.62 -2.01834 24.6131 -1.98347 24.5852 -1.86491L24.1877 -0.267903C22.9533 -0.212112 21.9002 0.673566 21.9002 1.60806C21.9002 2.39611 22.6185 2.87033 23.3926 2.89822C23.3368 3.11441 23.288 3.33758 23.2322 3.55377C23.1485 3.88154 23.0858 4.13957 23.0858 4.16049C23.0858 4.24418 23.1764 4.24418 23.1974 4.24418C23.302 4.24418 23.3089 4.22326 23.3438 4.0768L23.6367 2.9052C24.8292 2.85638 25.9241 1.97768 25.9241 1.02923C25.9241 0.296979 25.2825 -0.22606 24.4317 -0.260929ZM24.4317 -0.260929M23.4414 2.70296C22.9045 2.67506 22.4093 2.38216 22.4093 1.72662C22.4093 1.02923 22.9393 0.0459201 24.1319 -0.0656615ZM24.1319 -0.0656615M24.3759 -0.0656615C24.9129 -0.0447399 25.415 0.248162 25.415 0.910677C25.415 1.67083 24.8153 2.60532 23.6855 2.70296ZM23.6855 2.70296" fill="black"/>
 </g>
 <g stroke-width="1.133858">
  <path d="M-42.5197 -90.7087L-21.4425 -90.7087" stroke="black"/>
  <g stroke-linecap="butt" stroke-dasharray="none">
   <path d="M-22.5512 -93.0048L-17.0079 -90.7087L-22.5512 -88.4126L-21.4425 -90.7087Z" fill="black"/>
  </g>
 </g>
 <g stroke-width="1.133858" stroke-linecap="butt" stroke-dasharray="4.000000" stroke-dashoffset="0.000000">
  <path d="M42.5197 -90.7087L57.9276 -90.7087" stroke="black"/>
  <g stroke-linecap="butt" stroke-dasharray="none">
   <path d="M56.8189 -93.0048L62.3622 -90.7087L56.8189 -88.4126L57.9276 -90.7087Z" fill="black"/>
  </g>
 </g>
 <g transform="matrix(1.000000,0.000000,0.000000,1.000000,65.196850,-87.874016)">
  <path d="M0.428394 -0M1.32503 -0.826899C1.86301 -1.40473 2.15193 -1.6538 2.51059 -1.96264C2.51059 -1.9726 3.12827 -2.50062 3.48692 -2.85928C4.43337 -3.7858 4.65255 -4.26401 4.65255 -4.30386C4.65255 -4.40349 4.56289 -4.40349 4.54296 -4.40349C4.47323 -4.40349 4.44334 -4.38356 4.39352 -4.2939C4.09465 -3.81569 3.88543 -3.65629 3.64633 -3.65629C3.40722 -3.65629 3.28767 -3.80573 3.13823 -3.97509C2.94894 -4.20423 2.77958 -4.40349 2.45081 -4.40349C1.70361 -4.40349 1.24533 -3.47696 1.24533 -3.26775C1.24533 -3.21793 1.27522 -3.15816 1.36488 -3.15816C1.45455 -3.15816 1.47447 -3.20797 1.4944 -3.26775C1.68369 -3.72603 2.26152 -3.73599 2.34122 -3.73599C2.55044 -3.73599 2.73973 -3.66625 2.96887 -3.58655C3.36737 -3.43711 3.47696 -3.43711 3.73599 -3.43711C3.37733 -3.00872 2.54047 -2.29141 2.35118 -2.132L1.45455 -1.29514C0.777086 -0.627646 0.428394 -0.0597758 0.428394 0.00996264C0.428394 0.109589 0.52802 0.109589 0.547945 0.109589C0.627646 0.109589 0.647572 0.0896638 0.707347 -0.0199253C0.936488 -0.368618 1.23537 -0.637609 1.55417 -0.637609C1.78331 -0.637609 1.88294 -0.547945 2.132 -0.259029C2.30137 -0.0498132 2.4807 0.109589 2.76961 0.109589C3.75592 0.109589 4.33375 -1.15567 4.33375 -1.42466C4.33375 -1.47447 4.2939 -1.52428 4.2142 -1.52428C4.12453 -1.52428 4.10461 -1.46451 4.07472 -1.39477C3.84558 -0.747198 3.20797 -0.557908 2.8792 -0.557908C2.67995 -0.557908 2.50062 -0.617684 2.29141 -0.687422C1.95268 -0.816936 1.80324 -0.856787 1.59402 -0.856787C1.5741 -0.856787 1.41469 -0.856787 1.32503 -0.826899ZM1.32503 -0.826899" fill="black"/>
  <path d="M5.39327 1.49438M6.96936 -2.94099C6.96936 -3.12928 6.95541 -3.13625 6.76015 -3.13625C6.31382 -2.6969 5.6792 -2.68993 5.39327 -2.68993L5.39327 -2.43887C5.56065 -2.43887 6.02092 -2.43887 6.40448 -2.63414L6.40448 0.922525C6.40448 1.15266 6.40448 1.24332 5.7071 1.24332L5.44209 1.24332L5.44209 1.49438C5.56762 1.48741 6.4254 1.46649 6.68343 1.46649C6.89962 1.46649 7.77833 1.48741 7.93175 1.49438L7.93175 1.24332L7.66675 1.24332C6.96936 1.24332 6.96936 1.15266 6.96936 0.922525ZM6.96936 0.922525" fill="black"/>
 </g>
 <g stroke-width="1.133858">
  <path d="M155.906 -90.7087L208.164 -90.7087" stroke="black"/>
  <g stroke-linecap="butt" stroke-dasharray="none">
   <path d="M207.055 -93.0048L212.598 -90.7087L207.055 -88.4126L208.164 -90.7087Z" fill="black"/>
  </g>
 </g>
 <g transform="matrix(1.000000,0.000000,0.000000,1.000000,215.433071,-87.874016)">
  <path d="M1.45995 -0M4.77751 -6.5056L4.6181 -6.65504C4.6181 -6.64508 4.23952 -6.17684 3.80117 -6.17684C3.57203 -6.17684 3.32296 -6.32628 3.1536 -6.4259C2.8846 -6.58531 2.70528 -6.65504 2.53591 -6.65504C2.15733 -6.65504 1.96804 -6.43587 1.45995 -5.87796L1.61935 -5.72852C1.61935 -5.73848 1.99793 -6.20672 2.43629 -6.20672C2.66543 -6.20672 2.91449 -6.05729 3.08386 -5.95766C3.35285 -5.79826 3.53218 -5.72852 3.70154 -5.72852C4.08012 -5.72852 4.26941 -5.9477 4.77751 -6.5056ZM4.77751 -6.5056" fill="black"/>
  <path d="M0.288917 -0M3.32752 -3.00872C3.3873 -3.26775 3.61644 -4.18431 4.31382 -4.18431C4.36364 -4.18431 4.60274 -4.18431 4.81196 -4.05479C4.533 -4.00498 4.33375 -3.75592 4.33375 -3.51681C4.33375 -3.35741 4.44334 -3.16812 4.71233 -3.16812C4.93151 -3.16812 5.25031 -3.34745 5.25031 -3.74595C5.25031 -4.26401 4.66252 -4.40349 4.32379 -4.40349C3.74595 -4.40349 3.39726 -3.87547 3.27771 -3.64633C3.02864 -4.30386 2.49066 -4.40349 2.20174 -4.40349C1.16563 -4.40349 0.597758 -3.11831 0.597758 -2.86924C0.597758 -2.76961 0.697385 -2.76961 0.71731 -2.76961C0.797011 -2.76961 0.826899 -2.78954 0.846824 -2.8792C1.18555 -3.93524 1.84309 -4.18431 2.18182 -4.18431C2.37111 -4.18431 2.7198 -4.09465 2.7198 -3.51681C2.7198 -3.20797 2.55044 -2.54047 2.18182 -1.1457C2.02242 -0.52802 1.67372 -0.109589 1.23537 -0.109589C1.17559 -0.109589 0.946451 -0.109589 0.737235 -0.239103C0.986301 -0.288917 1.20548 -0.498132 1.20548 -0.777086C1.20548 -1.04608 0.986301 -1.12578 0.836862 -1.12578C0.537983 -1.12578 0.288917 -0.86675 0.288917 -0.547945C0.288917 -0.0896638 0.787049 0.109589 1.2254 0.109589C1.88294 0.109589 2.24159 -0.587796 2.27148 -0.647572C2.39103 -0.278954 2.74969 0.109589 3.34745 0.109589C4.3736 0.109589 4.94147 -1.17559 4.94147 -1.42466C4.94147 -1.52428 4.85181 -1.52428 4.82192 -1.52428C4.73225 -1.52428 4.71233 -1.48443 4.6924 -1.41469C4.36364 -0.348692 3.68618 -0.109589 3.36737 -0.109589C2.97883 -0.109589 2.81943 -0.428394 2.81943 -0.767123C2.81943 -0.986301 2.8792 -1.20548 2.98879 -1.64384ZM2.98879 -1.64384" fill="black"/>
  <path d="M6.45407 1.49438M8.03016 -2.94099C8.03016 -3.12928 8.01621 -3.13625 7.82094 -3.13625C7.37462 -2.6969 6.74 -2.68993 6.45407 -2.68993L6.45407 -2.43887C6.62144 -2.43887 7.08171 -2.43887 7.46528 -2.63414L7.46528 0.922525C7.46528 1.15266 7.46528 1.24332 6.76789 1.24332L6.50289 1.24332L6.50289 1.49438C6.62841 1.48741 7.4862 1.46649 7.74423 1.46649C7.96042 1.46649 8.83912 1.48741 8.99255 1.49438L8.99255 1.24332L8.72754 1.24332C8.03016 1.24332 8.03016 1.15266 8.03016 0.922525ZM8.03016 0.922525" fill="black"/>
 </g>
</svg>
